{
.appVersion = "3151";
.formatVersion = 3;
DisplayStrings = (
"…"
);
customParameters = (
{
name = vendorID;
value = "1BOU";
},
{
name = panose;
value = (
0,
0,
0,
0,
0,
0,
0,
0,
0,
0
);
},
{
name = unicodeRanges;
value = (
0,
1,
2,
3,
5,
6,
13,
24,
29,
31,
32,
33,
35,
36,
37,
38,
45,
60,
63,
67
);
},
{
name = codePageRanges;
value = (
"1252",
"1258"
);
},
{
name = fsType;
value = (
);
},
{
name = glyphOrder;
value = (
.notdef,
space,
exclam,
quotedbl,
numbersign,
dollar,
percent,
ampersand,
quotesingle,
parenleft,
parenright,
asterisk,
plus,
comma,
hyphen,
period,
slash,
zero,
one,
two,
three,
four,
five,
six,
seven,
eight,
nine,
colon,
semicolon,
less,
equal,
greater,
question,
at,
A,
B,
C,
D,
E,
F,
G,
H,
I,
J,
K,
L,
M,
N,
O,
P,
Q,
R,
S,
T,
U,
V,
W,
X,
Y,
Z,
bracketleft,
backslash,
bracketright,
asciicircum,
underscore,
grave,
a,
b,
c,
d,
e,
f,
g,
h,
i,
j,
k,
l,
m,
n,
o,
p,
q,
r,
s,
t,
u,
v,
w,
x,
y,
z,
braceleft,
bar,
braceright,
asciitilde,
uni00A0,
exclamdown,
cent,
sterling,
currency,
yen,
brokenbar,
section,
dieresis,
copyright,
ordfeminine,
guillemotleft,
logicalnot,
uni00AD,
registered,
macron,
degree,
plusminus,
twosuperior,
threesuperior,
acute,
paragraph,
periodcentered,
cedilla,
onesuperior,
ordmasculine,
guillemotright,
onequarter,
onehalf,
threequarters,
questiondown,
Agrave,
Aacute,
Acircumflex,
Atilde,
Adieresis,
Aring,
AE,
Ccedilla,
Egrave,
Eacute,
Ecircumflex,
Edieresis,
Igrave,
Iacute,
Icircumflex,
Idieresis,
Eth,
Ntilde,
Ograve,
Oacute,
Ocircumflex,
Otilde,
Odieresis,
multiply,
Oslash,
Ugrave,
Uacute,
Ucircumflex,
Udieresis,
Yacute,
Thorn,
germandbls,
agrave,
aacute,
acircumflex,
atilde,
adieresis,
aring,
ae,
ccedilla,
egrave,
eacute,
ecircumflex,
edieresis,
igrave,
iacute,
icircumflex,
idieresis,
eth,
ntilde,
ograve,
oacute,
ocircumflex,
otilde,
odieresis,
divide,
oslash,
ugrave,
uacute,
ucircumflex,
udieresis,
yacute,
thorn,
ydieresis,
Amacron,
amacron,
Abreve,
abreve,
Aogonek,
aogonek,
Cacute,
cacute,
Ccircumflex,
ccircumflex,
Cdotaccent,

glyphs = (
{
glyphname = .notdef;
layers = (
{
layerId = m01;
shapes = (
{
closed = 1;
nodes = (
(137,712,l),
(137,-149,l),
(343,-149,l),
(343,712,l)
);
},
{
closed = 1;
nodes = (
(389,-191,l),
(90,-191,l),
(90,754,l),
(389,754,l)
);
}
);
width = 493;
}
);
note = ".notdef";
},
{
glyphname = exclam;
kernLeft = exclam;
layers = (
{
layerId = m01;
shapes = (
{
closed = 1;
nodes = (
(183,197,ls),
(183,174,o),
(172,161,o),
(153,161,cs),
(135,161,o),
(124,174,o),
(123,197,cs),
(117,573,ls),
(117,599,o),
(128,618,o),
(154,618,cs),
(177,618,o),
(191,601,o),
(190,574,cs)
);
},
{
closed = 1;
nodes = (
(180,94,o),
(197,75,o),
(197,42,cs),
(197,10,o),
(180,-9,o),
(153,-9,cs),
(127,-9,o),
(110,10,o),
(110,42,cs),
(110,75,o),
(127,94,o),
(153,94,cs)
);
}
);
width = 308;
}
);
note = exclam;
unicode = 33;
},
{
glyphname = quotedbl;
kernLeft = quotedbl;
kernRight = quotedbl;
layers = (
{
layerId = m01;
shapes = (
{
closed = 1;
nodes = (
(40,590,o),
(53,605,o),
(73,605,cs),
(96,605,o),
(107,588,o),
(106,565,cs),
(100,388,ls),
(99,368,o),
(90,356,o),
(73,356,cs),
(57,356,o),
(47,367,o),
(47,388,cs),
(41,566,ls)
);
},
{
closed = 1;
nodes = (
(223,388,ls),
(223,367,o),
(213,356,o),
(197,356,cs),
(180,356,o),
(171,367,o),
(170,388,cs),
(164,566,ls),
(163,590,o),
(176,605,o),
(197,605,cs),
(217,605,o),
(230,590,o),
(229,567,cs)
);
}
);
width = 270;
}
);
note = quotedbl;
unicode = 34;
},
{
glyphname = numbersign;
layers = (
{
layerId = m01;
shapes = (
{
closed = 1;
nodes = (
(410,421,ls),
(430,421,o),
(441,412,o),
(441,397,cs),
(441,381,o),
(430,372,o),
(410,372,cs),
(91,372,ls),
(72,372,o),
(61,381,o),
(61,397,cs),
(61,412,o),
(72,421,o),
(91,421,cs)
);
},
{
closed = 1;
nodes = (
(390,267,ls),
(409,267,o),
(420,258,o),
(420,242,cs),
(420,226,o),
(409,217,o),
(390,217,cs),
(71,217,ls),
(52,217,o),
(41,226,o),
(41,242,cs),
(41,258,o),
(52,267,o),
(71,267,cs)
);
},
{
closed = 1;
nodes = (
(166,531,ls),
(169,551,o),
(178,561,o),
(194,561,cs),
(210,561,o),
(222,549,o),
(222,532,cs),
(222,529,o),
(221,526,o),
(221,524,cs),
(167,93,ls),
(165,73,o),
(155,63,o),
(139,63,cs),
(122,63,o),
(111,75,o),
(111,91,cs),
(111,94,o),
(112,97,o),
(112,100,cs)
);
},
{
closed = 1;
nodes = (
(315,531,ls),
(318,551,o),
(328,561,o),
(344,561,cs),
(360,561,o),
(371,549,o),
(371,533,cs),
(371,530,o),
(371,526,o),
(370,524,c),
(316,93,ls),
(314,73,o),
(304,63,o),
(288,63,cs),
(272,63,o),
(261,75,o),
(261,91,cs),
(261,94,o),
(261,97,o),
(262,100,c)
);
}
);
width = 480;
}
);
note = numbersign;
unicode = 35;
},
{
glyphname = dollar;
layers = (
{
layerId = m01;
shapes = (
{
closed = 1;
nodes = (
(262,657,ls),
(264,671,o),
(272,681,o),
(286,680,cs),
(298,679,o),
(305,671,o),
(306,659,cs),
(306,656,o),
(306,654,o),
(305,651,c),
(207,-64,ls),
(205,-78,o),
(197,-88,o),
(183,-87,cs),
(171,-86,o),
(164,-77,o),
(164,-65,cs),
(164,-62,o),
(164,-60,o),
(165,-56,cs)
);
},
{
closed = 1;
nodes = (
(106,347,o),
(76,382,o),
(76,458,cs),
(76,554,o),
(135,606,o),
(245,606,cs),
(291,606,o),
(335,594,o),
(363,577,cs),
(377,569,o),
(385,559,o),
(385,547,cs),
(385,531,o),
(370,516,o),
(353,516,cs),
(348,516,o),
(341,519,o),
(330,525,cs),
(302,541,o),
(278,548,o),
(247,548,cs),
(179,548,o),
(142,518,o),
(142,461,cs),
(142,406,o),
(179,385,o),
(241,355,cs),
(291,330,o),
(335,307,o),
(367,276,cs),
(398,246,o),
(411,208,o),
(411,157,cs),
(411,47,o),
(345,-10,o),
(218,-10,cs),
(155,-10,o),
(111,2,o),
(71,31,cs),
(59,40,o),
(52,50,o),
(52,62,cs),
(52,79,o),
(66,93,o),
(83,93,cs),
(91,93,o),
(93,92,o),
(108,81,cs),
(137,60,o),
(175,48,o),
(219,48,cs),
(300,48,o),
(346,86,o),
(346,155,cs),
(346,185,o),
(335,212,o),
(316,230,cs),
(298,248,o),
(298,248,o),
(215,291,cs)
);
}
);
width = 480;
}
);
note = dollar;
unicode = 36;
},
{
glyphname = percent;
layers = (
{
layerId = m01;
shapes = (
{
closed = 1;
nodes = (
(44,556,o),
(80,602,o),
(161,602,cs),
(241,602,o),
(277,556,o),
(277,455,cs),
(277,420,ls),
(277,318,o),
(241,272,o),
(161,272,cs),
(80,272,o),
(44,318,o),
(44,420,cs),
(44,455,ls)
);
},
{
closed = 1;
nodes = (
(226,526,o),
(204,562,o),
(160,562,cs),
(117,562,o),
(95,526,o),
(95,454,cs),
(97,420,ls),
(99,341,o),
(116,313,o),
(161,313,cs),
(204,313,o),
(226,349,o),
(226,420,cs),
(226,454,ls)
);
},
{
closed = 1;
nodes = (
(443,584,ls),
(450,598,o),
(457,604,o),
(469,604,cs),
(482,604,o),
(494,593,o),
(494,580,cs),
(494,575,o),
(493,568,o),
(490,562,cs),
(238,12,ls),
(231,-2,o),
(223,-8,o),
(212,-8,cs),
(198,-8,o),
(186,4,o),
(186,16,cs),
(186,21,o),
(187,28,o),
(190,34,cs)
);
},
{
closed = 1;
nodes = (
(636,141,ls),
(636,40,o),
(600,-6,o),
(520,-6,cs),
(440,-6,o),
(403,40,o),
(403,141,cs),
(403,176,ls),
(403,278,o),
(440,324,o),
(520,324,cs),
(600,324,o),
(636,278,o),
(636,176,cs)
);
},
{
closed = 1;
nodes = (
(458,62,o),
(475,34,o),
(520,34,cs),
(563,34,o),
(585,71,o),
(585,142,cs),
(585,176,ls),
(585,247,o),
(563,283,o),
(520,283,cs),
(477,283,o),
(455,247,o),
(455,176,cs),
(456,142,ls)
);
}
);
width = 680;
}
);
note = percent;
unicode = 37;
},
{
glyphname = ampersand;
layers = (
{
layerId = m01;
shapes = (
{
closed = 1;
nodes = (
(478,48,ls),
(484,40,o),
(488,31,o),
(488,24,cs),
(488,7,o),
(474,-7,o),
(456,-7,cs),
(447,-7,o),
(438,-2,o),
(431,8,cs),
(398,50,l),
(356,9,o),
(301,-12,o),
(229,-12,cs),
(112,-12,o),
(47,49,o),
(47,159,cs),
(47,254,o),
(90,298,o),
(173,338,c),
(135,398,o),
(125,426,o),
(125,468,cs),
(125,559,o),
(172,609,o),
(259,609,cs),
(344,609,o),
(391,564,o),
(391,484,cs),
(391,408,o),
(349,360,o),
(267,322,c),
(402,144,l),
(430,202,o),
(445,261,o),
(458,355,cs),
(461,381,o),
(471,390,o),
(491,390,cs),
(510,390,o),
(522,378,o),
(522,363,cs),
(522,335,o),
(501,244,o),
(482,186,cs),
(472,158,o),
(457,126,o),
(440,97,c)
);
},
{
closed = 1;
nodes = (
(299,396,o),
(328,431,o),
(328,481,cs),
(328,528,o),
(302,556,o),
(259,556,cs),
(215,556,o),
(190,527,o),
(190,475,cs),
(190,440,o),
(199,416,o),
(232,366,c)
);
},
{
closed = 1;
nodes = (
(142,266,o),
(114,229,o),
(114,170,cs),
(114,90,o),
(161,45,o),
(244,45,cs),
(292,45,o),
(330,61,o),
(361,94,c),
(208,294,l)
);
}
);
width = 563;
}
);
note = ampersand;
unicode = 38;
},
{
glyphname = quotesingle;
kernLeft = quotedbl;
kernRight = quotedbl;
layers = (
{
layerId = m01;
shapes = (
{
closed = 1;
nodes = (
(36,590,o),
(49,605,o),
(69,605,cs),
(92,605,o),
(103,588,o),
(102,565,cs),
(96,388,ls),
(95,368,o),
(86,356,o),
(69,356,cs),
(53,356,o),
(43,367,o),
(43,388,cs),
(37,566,ls)
);
}
);
width = 139;
}
);
note = quotesingle;
unicode = 39;
},
{
glyphname = parenleft;
layers = (
{
layerId = m01;
shapes = (
{
closed = 1;
nodes = (
(99,399,o),
(136,522,o),
(214,626,cs),
(235,655,o),
(245,663,o),
(257,663,cs),
(271,663,o),
(284,651,o),
(284,636,cs),
(284,630,o),
(280,622,o),
(269,606,cs),
(200,509,o),
(168,376,o),
(168,249,cs),
(168,116,o),
(201,-16,o),
(276,-120,cs),
(282,-129,o),
(284,-133,o),
(284,-140,cs),
(284,-154,o),
(272,-167,o),
(257,-167,cs),
(244,-167,o),
(230,-153,o),
(204,-115,cs),
(133,-14,o),
(99,104,o),
(99,248,cs)
);
}
);
width = 311;
}
);
note = parenleft;
unicode = 40;
},
{
glyphname = parenright;
layers = (
{
layerId = m01;
shapes = (
{
closed = 1;
nodes = (
(141,390,o),
(105,515,o),
(34,617,cs),
(28,626,o),
(26,630,o),
(26,636,cs),
(26,651,o),
(38,663,o),
(53,663,cs),
(66,663,o),
(81,649,o),
(108,610,cs),
(179,505,o),
(211,392,o),
(211,248,cs),
(211,97,o),
(173,-26,o),
(96,-129,cs),
(73,-159,o),
(65,-167,o),
(53,-167,cs),
(38,-167,o),
(26,-154,o),
(26,-140,cs),
(26,-134,o),
(28,-129,o),
(34,-120,cs),
(106,-15,o),
(141,106,o),
(141,248,cs)
);
}
);
width = 311;
}
);
note = parenright;
unicode = 41;
},
{
glyphname = asterisk;
layers = (
{
layerId = m01;
shapes = (
{
closed = 1;
nodes = (
(206,633,l),
(205,635,o),
(205,637,o),
(205,639,cs),
(205,660,o),
(217,672,o),
(236,672,cs),
(254,672,o),
(266,660,o),
(266,639,cs),
(266,637,o),
(266,635,o),
(265,633,c),
(259,537,l),
(355,571,ls),
(361,573,o),
(368,574,o),
(373,574,cs),
(388,574,o),
(400,561,o),
(400,545,cs),
(400,529,o),
(390,518,o),
(369,514,cs),
(272,495,l),
(339,416,ls),
(346,407,o),
(350,398,o),
(350,391,cs),
(350,375,o),
(337,361,o),
(321,361,cs),
(309,361,o),
(301,367,o),
(292,381,cs),
(236,467,l),
(179,381,ls),
(170,367,o),
(162,361,o),
(150,361,cs),
(134,361,o),
(121,375,o),
(121,391,cs),
(121,398,o),
(125,407,o),
(132,416,cs),
(200,495,l),
(102,514,ls),
(82,518,o),
(71,529,o),
(71,545,cs),
(71,561,o),
(84,574,o),
(98,574,cs),
(104,574,o),
(110,573,o),
(117,571,cs),
(212,537,l)
);
}
);
width = 473;
}
);
note = asterisk;
unicode = 42;
},
{
glyphname = plus;
layers = (
{
layerId = m01;
shapes = (
{
closed = 1;
nodes = (
(207,440,ls),
(207,465,o),
(219,479,o),
(239,479,cs),
(259,479,o),
(271,465,o),
(271,440,cs),
(271,325,l),
(396,325,ls),
(419,325,o),
(431,314,o),
(431,296,cs),
(431,278,o),
(419,268,o),
(396,268,cs),
(271,268,l),
(271,153,ls),
(271,129,o),
(259,114,o),
(239,114,cs),
(219,114,o),
(207,129,o),
(207,153,cs),
(207,268,l),
(83,268,ls),
(61,268,o),
(48,278,o),
(48,296,cs),
(48,314,o),
(61,325,o),
(83,325,cs),
(207,325,l)
);
}
);
width = 480;
}
);
note = plus;
unicode = 43;
},
{
glyphname = comma;
kernLeft = comma;
kernRight = comma;
layers = (
{
layerId = m01;
shapes = (
{
closed = 1;
nodes = (
(59,4,o),
(48,20,o),
(48,43,cs),
(48,74,o),
(66,94,o),
(93,94,cs),
(121,94,o),
(137,75,o),
(137,40,cs),
(137,5,o),
(125,-30,o),
(94,-97,cs),
(89,-107,o),
(82,-112,o),
(73,-112,cs),
(62,-112,o),
(51,-102,o),
(51,-91,cs),
(51,-86,o),
(52,-83,o),
(56,-75,cs),
(65,-56,o),
(73,-29,o),
(81,-2,c)
);
}
);
width = 188;
}
);
note = comma;
unicode = 44;
},
{
glyphname = hyphen;
kernLeft = hyphen;
kernRight = hyphen;
layers = (
{
layerId = m01;
shapes = (
{
closed = 1;
nodes = (
(223,305,ls),
(247,305,o),
(262,293,o),
(262,273,cs),
(262,253,o),
(247,241,o),
(223,241,cs),
(64,241,ls),
(39,241,o),
(25,253,o),
(25,273,cs),
(25,293,o),
(39,305,o),
(64,305,cs)
);
}
);
width = 287;
}
);
note = hyphen;
unicode = 45;
},
{
glyphname = period;
kernLeft = comma;
kernRight = comma;
layers = (
{
layerId = m01;
shapes = (
{
closed = 1;
nodes = (
(121,94,o),
(138,75,o),
(138,42,cs),
(138,10,o),
(121,-9,o),
(94,-9,cs),
(68,-9,o),
(51,10,o),
(51,42,cs),
(51,75,o),
(68,94,o),
(94,94,cs)
);
}
);
width = 188;
}
);
note = period;
unicode = 46;
},
{
glyphname = slash;
layers = (
{
layerId = m01;
shapes = (
{
closed = 1;
nodes = (
(168,574,ls),
(174,595,o),
(185,605,o),
(202,605,cs),
(220,605,o),
(235,591,o),
(235,574,cs),
(235,568,o),
(234,562,o),
(232,555,cs),
(73,22,ls),
(67,1,o),
(56,-9,o),
(39,-9,cs),
(21,-9,o),
(6,5,o),
(6,22,cs),
(6,28,o),
(7,35,o),
(9,41,cs)
);
}
);
width = 241;
}
);
note = slash;
unicode = 47;
},
{
glyphname = zero;
layers = (
{
layerId = m01;
shapes = (
{
closed = 1;
nodes = (
(54,535,o),
(105,606,o),
(240,606,cs),
(374,606,o),
(425,535,o),
(425,344,cs),
(425,251,ls),
(425,61,o),
(374,-10,o),
(240,-10,cs),
(105,-10,o),
(54,61,o),
(54,251,cs),
(54,345,ls)
);
},
{
closed = 1;
nodes = (
(125,178,o),
(130,139,o),
(142,107,cs),
(157,69,o),
(192,48,o),
(239,48,cs),
(292,48,o),
(326,71,o),
(341,118,cs),
(350,147,o),
(357,205,o),
(357,252,cs),
(357,344,ls),
(357,399,o),
(349,459,o),
(337,489,cs),
(322,527,o),
(287,548,o),
(239,548,cs),
(188,548,o),
(154,525,o),
(139,478,cs),
(129,449,o),
(122,390,o),
(122,344,cs),
(123,252,ls)
);
}
);
width = 480;
}
);
note = zero;
unicode = 48;
},
{
glyphname = one;
layers = (
{
layerId = m01;
shapes = (
{
closed = 1;
nodes = (
(108,475,ls),
(102,472,o),
(95,470,o),
(90,470,cs),
(76,470,o),
(64,483,o),
(64,498,cs),
(64,511,o),
(71,519,o),
(86,526,cs),
(243,600,l),
(253,600,ls),
(284,600,o),
(295,584,o),
(295,554,cs),
(295,33,ls),
(295,6,o),
(283,-9,o),
(261,-9,cs),
(239,-9,o),
(227,7,o),
(227,33,cs),
(227,528,l)
);
}
);
width = 480;
}
);
note = one;
unicode = 49;
},
{
glyphname = two;
layers = (
{
layerId = m01;
shapes = (
{
closed = 1;
nodes = (
(379,58,ls),
(402,58,o),
(415,48,o),
(415,29,cs),
(415,11,o),
(402,0,o),
(379,0,cs),
(101,0,ls),
(79,0,o),
(61,10,o),
(61,33,cs),
(61,49,o),
(73,60,o),
(130,132,cs),
(257,290,o),
(326,379,o),
(326,458,cs),
(326,517,o),
(292,548,o),
(231,548,cs),
(196,548,o),
(164,538,o),
(131,516,cs),
(113,504,o),
(109,503,o),
(102,503,cs),
(87,503,o),
(73,517,o),
(73,533,cs),
(73,547,o),
(83,558,o),
(109,573,cs),
(148,596,o),
(191,606,o),
(240,606,cs),
(338,606,o),
(395,562,o),
(395,468,cs),
(395,390,o),
(366,328,o),
(275,209,cs),
(236,160,o),
(202,119,o),
(151,58,c)
);
}
);
width = 480;
}
);
note = two;
unicode = 50;
},
{
glyphname = three;
layers = (
{
layerId = m01;
shapes = (
{
closed = 1;
nodes = (
(380,305,o),
(406,258,o),
(406,170,cs),
(406,46,o),
(343,-10,o),
(212,-10,cs),
(124,-10,o),
(56,15,o),
(56,50,cs),
(56,66,o),
(69,81,o),
(86,81,cs),
(91,81,o),
(96,80,o),
(103,75,cs),
(130,57,o),
(166,48,o),
(208,48,cs),
(295,48,o),
(337,89,o),
(337,172,cs),
(337,251,o),
(296,288,o),
(205,288,cs),
(176,288,ls),
(157,288,o),
(144,299,o),
(144,320,cs),
(144,336,o),
(153,344,o),
(170,344,cs),
(195,344,ls),
(273,344,o),
(316,382,o),
(316,451,cs),
(316,515,o),
(282,548,o),
(218,548,cs),
(181,548,o),
(150,539,o),
(117,518,cs),
(108,513,o),
(104,511,o),
(99,511,cs),
(83,511,o),
(70,526,o),
(70,542,cs),
(70,553,o),
(79,564,o),
(99,577,cs),
(131,596,o),
(174,606,o),
(224,606,cs),
(332,606,o),
(384,558,o),
(384,459,cs),
(384,390,o),
(358,348,o),
(300,324,c)
);
}
);
width = 480;
}
);
note = three;
unicode = 51;
},
{
glyphname = four;
layers = (
{
layerId = m01;
shapes = (
{
closed = 1;
nodes = (
(69,143,ls),
(45,143,o),
(26,154,o),
(26,178,cs),
(26,185,o),
(29,192,o),
(35,202,cs),
(264,578,ls),
(277,599,o),
(289,607,o),
(308,607,cs),
(338,607,o),
(352,584,o),
(352,553,cs),
(352,202,l),
(420,202,ls),
(441,202,o),
(454,190,o),
(454,172,cs),
(454,154,o),
(441,143,o),
(420,143,cs),
(352,143,l),
(352,30,ls),
(352,6,o),
(340,-9,o),
(320,-9,cs),
(299,-9,o),
(288,6,o),
(288,30,cs),
(288,143,l)
);
},
{
closed = 1;
nodes = (
(289,509,l),
(99,200,l),
(289,200,l)
);
}
);
width = 480;
}
);
note = four;
unicode = 52;
},
{
glyphname = five;
layers = (
{
layerId = m01;
shapes = (
{
closed = 1;
nodes = (
(164,346,l),
(197,363,o),
(223,369,o),
(261,369,cs),
(368,369,o),
(413,315,o),
(413,189,cs),
(413,48,o),
(356,-10,o),
(214,-10,cs),
(127,-10,o),
(59,14,o),
(59,47,cs),
(59,63,o),
(73,78,o),
(90,78,cs),
(95,78,o),
(100,76,o),
(116,68,cs),
(143,54,o),
(172,48,o),
(207,48,cs),
(303,48,o),
(344,88,o),
(344,184,cs),
(344,259,o),
(324,313,o),
(244,313,cs),
(211,313,o),
(190,305,o),
(151,281,cs),
(142,275,o),
(134,273,o),
(125,273,cs),
(107,273,o),
(98,285,o),
(99,304,cs),
(111,552,ls),
(113,584,o),
(126,596,o),
(158,596,cs),
(347,596,ls),
(370,596,o),
(383,585,o),
(383,567,cs),
(383,548,o),
(370,538,o),
(347,538,cs),
(174,538,l)
);
}
);
width = 480;
}
);
note = five;
unicode = 53;
},
{
glyphname = six;
layers = (
{
layerId = m01;
shapes = (
{
closed = 1;
nodes = (
(169,361,o),
(205,376,o),
(260,376,cs),
(370,376,o),
(423,315,o),
(423,189,cs),
(423,51,o),
(368,-10,o),
(244,-10,cs),
(78,-10,o),
(64,95,o),
(64,234,cs),
(64,338,o),
(76,429,o),
(96,488,cs),
(123,569,o),
(179,606,o),
(274,606,cs),
(305,606,o),
(342,602,o),
(361,595,cs),
(374,591,o),
(381,581,o),
(381,568,cs),
(381,552,o),
(368,538,o),
(353,538,cs),
(350,538,o),
(345,539,o),
(340,540,cs),
(318,546,o),
(297,548,o),
(276,548,cs),
(213,548,o),
(173,519,o),
(156,459,cs),
(146,425,o),
(142,396,o),
(137,326,c)
);
},
{
closed = 1;
nodes = (
(173,321,o),
(133,274,o),
(133,186,cs),
(133,105,o),
(155,48,o),
(244,48,cs),
(328,48,o),
(353,100,o),
(353,184,cs),
(353,264,o),
(329,321,o),
(248,321,cs)
);
}
);
width = 480;
}
);
note = six;
unicode = 54;
},
{
glyphname = seven;
layers = (
{
layerId = m01;
shapes = (
{
closed = 1;
nodes = (
(97,538,ls),
(74,538,o),
(61,548,o),
(61,567,cs),
(61,585,o),
(74,596,o),
(97,596,cs),
(380,596,ls),
(400,596,o),
(413,583,o),
(413,561,c),
(411,551,o),
(409,546,o),
(407,540,cs),
(205,21,ls),
(197,1,o),
(187,-8,o),
(171,-8,cs),
(153,-8,o),
(137,7,o),
(137,24,cs),
(137,30,o),
(139,38,o),
(142,47,cs),
(339,538,l)
);
}
);
width = 480;
}
);
note = seven;
unicode = 55;
},
{
glyphname = eight;
layers = (
{
layerId = m01;
shapes = (
{
closed = 1;
nodes = (
(91,339,o),
(70,377,o),
(70,447,cs),
(70,556,o),
(124,606,o),
(240,606,cs),
(356,606,o),
(410,556,o),
(410,448,cs),
(410,377,o),
(389,339,o),
(335,311,c),
(402,284,o),
(430,238,o),
(430,157,cs),
(430,39,o),
(374,-10,o),
(239,-10,cs),
(105,-10,o),
(49,39,o),
(49,157,cs),
(49,238,o),
(77,284,o),
(145,311,c)
);
},
{
closed = 1;
nodes = (
(171,550,o),
(137,516,o),
(137,444,cs),
(137,373,o),
(170,339,o),
(240,339,cs),
(309,339,o),
(343,373,o),
(343,444,cs),
(343,516,o),
(310,550,o),
(241,550,cs)
);
},
{
closed = 1;
nodes = (
(158,282,o),
(118,242,o),
(118,162,cs),
(118,80,o),
(153,46,o),
(240,46,cs),
(326,46,o),
(362,80,o),
(362,162,cs),
(362,242,o),
(321,282,o),
(240,282,cs)
);
}
);
width = 480;
}
);
note = eight;
unicode = 56;
},
{
glyphname = nine;
layers = (
{
layerId = m01;
shapes = (
{
closed = 1;
nodes = (
(311,234,o),
(275,220,o),
(220,220,cs),
(110,220,o),
(57,281,o),
(57,407,cs),
(57,544,o),
(113,606,o),
(236,606,cs),
(380,606,o),
(416,537,o),
(416,361,cs),
(416,258,o),
(404,167,o),
(384,108,cs),
(357,26,o),
(302,-10,o),
(206,-10,cs),
(169,-10,o),
(134,-6,o),
(115,3,cs),
(104,8,o),
(99,16,o),
(99,27,cs),
(99,43,o),
(112,57,o),
(126,57,cs),
(130,57,o),
(134,57,o),
(140,55,cs),
(162,50,o),
(183,48,o),
(204,48,cs),
(268,48,o),
(306,76,o),
(323,135,cs),
(333,169,o),
(338,201,o),
(343,269,c)
);
},
{
closed = 1;
nodes = (
(307,275,o),
(346,321,o),
(346,410,cs),
(346,495,o),
(322,548,o),
(236,548,cs),
(152,548,o),
(126,496,o),
(126,412,cs),
(126,332,o),
(151,275,o),
(232,275,cs)
);
}
);
width = 480;
}
);
note = nine;
unicode = 57;
},
{
glyphname = colon;
layers = (
{
layerId = m01;
shapes = (
{
closed = 1;
nodes = (
(141,94,o),
(158,75,o),
(158,42,cs),
(158,10,o),
(141,-9,o),
(114,-9,cs),
(88,-9,o),
(71,10,o),
(71,42,cs),
(71,75,o),
(88,94,o),
(114,94,cs)
);
},
{
closed = 1;
nodes = (
(141,393,o),
(158,373,o),
(158,341,cs),
(158,309,o),
(141,290,o),
(114,290,cs),
(88,290,o),
(71,309,o),
(71,341,cs),
(71,373,o),
(88,393,o),
(114,393,cs)
);
}
);
width = 228;
}
);
note = colon;
unicode = 58;
},
{
glyphname = semicolon;
layers = (
{
layerId = m01;
shapes = (
{
closed = 1;
nodes = (
(140,393,o),
(156,373,o),
(156,341,cs),
(156,309,o),
(140,290,o),
(113,290,cs),
(87,290,o),
(70,309,o),
(70,341,cs),
(70,373,o),
(87,393,o),
(113,393,cs)
);
},
{
closed = 1;
nodes = (
(79,4,o),
(68,20,o),
(68,43,cs),
(68,74,o),
(86,94,o),
(113,94,cs),
(141,94,o),
(157,75,o),
(157,40,cs),
(157,5,o),
(145,-30,o),
(114,-97,cs),
(109,-107,o),
(102,-112,o),
(93,-112,cs),
(82,-112,o),
(71,-102,o),
(71,-91,cs),
(71,-86,o),
(72,-83,o),
(76,-75,cs),
(85,-56,o),
(93,-29,o),
(101,-2,c)
);
}
);
width = 228;
}
);
note = semicolon;
unicode = 59;
},
{
glyphname = less;
layers = (
{
layerId = m01;
shapes = (
{
closed = 1;
nodes = (
(394,178,ls),
(411,170,o),
(418,161,o),
(418,147,cs),
(418,131,o),
(404,117,o),
(390,117,cs),
(383,117,o),
(375,119,o),
(367,123,cs),
(73,277,ls),
(62,282,o),
(58,288,o),
(58,296,cs),
(58,305,o),
(62,310,o),
(73,316,cs),
(367,470,ls),
(375,474,o),
(383,476,o),
(390,476,cs),
(404,476,o),
(418,462,o),
(418,446,cs),
(418,432,o),
(411,423,o),
(394,415,cs),
(155,297,l)
);
}
);
width = 480;
}
);
note = less;
unicode = 60;
},
{
glyphname = equal;
layers = (
{
layerId = m01;
shapes = (
{
closed = 1;
nodes = (
(397,385,ls),
(418,385,o),
(431,375,o),
(431,357,cs),
(431,340,o),
(418,330,o),
(397,330,cs),
(82,330,ls),
(60,330,o),
(48,340,o),
(48,357,cs),
(48,375,o),
(60,385,o),
(82,385,cs)
);
},
{
closed = 1;
nodes = (
(397,263,ls),
(418,263,o),
(431,253,o),
(431,235,cs),
(431,218,o),
(418,208,o),
(397,208,cs),
(82,208,ls),
(60,208,o),
(48,218,o),
(48,236,cs),
(48,253,o),
(60,263,o),
(82,263,cs)
);
}
);
width = 480;
}
);
note = equal;
unicode = 61;
},
{
glyphname = greater;
layers = (
{
layerId = m01;
shapes = (
{
closed = 1;
nodes = (
(86,415,ls),
(69,423,o),
(62,432,o),
(62,446,cs),
(62,462,o),
(76,476,o),
(90,476,cs),
(97,476,o),
(105,474,o),
(113,470,cs),
(408,316,ls),
(418,311,o),
(422,305,o),
(422,296,cs),
(422,288,o),
(418,282,o),
(408,277,cs),
(113,123,ls),
(105,119,o),
(97,117,o),
(90,117,cs),
(76,117,o),
(62,131,o),
(62,147,cs),
(62,161,o),
(69,170,o),
(86,178,cs),
(325,297,l)
);
}
);
width = 480;
}
);
note = greater;
unicode = 62;
},
{
glyphname = question;
kernLeft = question;
layers = (
{
layerId = m01;
shapes = (
{
closed = 1;
nodes = (
(191,94,o),
(207,75,o),
(207,42,cs),
(207,10,o),
(191,-9,o),
(164,-9,cs),
(137,-9,o),
(121,10,o),
(121,42,cs),
(121,75,o),
(137,94,o),
(164,94,cs)
);
},
{
closed = 1;
nodes = (
(134,292,o),
(141,304,o),
(211,373,cs),
(251,412,o),
(263,436,o),
(263,476,cs),
(263,534,o),
(235,562,o),
(179,562,cs),
(143,562,o),
(107,552,o),
(75,531,cs),
(68,526,o),
(63,524,o),
(57,524,cs),
(42,524,o),
(29,538,o),
(29,553,cs),
(29,562,o),
(33,569,o),
(40,576,c),
(75,604,o),
(125,620,o),
(184,620,cs),
(282,620,o),
(332,575,o),
(332,487,cs),
(332,426,o),
(314,390,o),
(255,334,cs),
(202,284,o),
(197,274,o),
(197,219,cs),
(197,185,ls),
(197,169,o),
(188,161,o),
(167,161,cs),
(144,161,o),
(134,171,o),
(134,192,cs),
(134,234,ls)
);
}
);
width = 370;
}
);
note = question;
unicode = 63;
},
{
glyphname = at;
layers = (
{
layerId = m01;
shapes = (
{
closed = 1;
nodes = (
(437,433,o),
(442,437,o),
(454,437,cs),
(469,437,o),
(478,428,o),
(478,418,cs),
(478,415,o),
(478,411,o),
(477,408,cs),
(445,239,ls),
(440,213,o),
(439,202,o),
(439,192,cs),
(439,166,o),
(449,155,o),
(472,155,cs),
(530,155,o),
(569,214,o),
(569,300,cs),
(569,354,ls),
(569,500,o),
(482,558,o),
(342,558,cs),
(178,558,o),
(103,477,o),
(103,309,cs),
(103,226,ls),
(103,63,o),
(172,-5,o),
(329,-5,cs),
(391,-5,o),
(442,4,o),
(485,21,cs),
(506,29,o),
(511,31,o),
(516,31,cs),
(527,31,o),
(537,21,o),
(537,8,cs),
(537,1,o),
(534,-4,o),
(527,-8,cs),
(484,-35,o),
(410,-49,o),
(321,-49,cs),
(141,-49,o),
(49,33,o),
(49,219,cs),
(49,310,ls),
(49,512,o),
(151,603,o),
(340,603,cs),
(511,603,o),
(623,530,o),
(623,355,cs),
(623,302,ls),
(623,181,o),
(563,104,o),
(464,104,cs),
(420,104,o),
(398,121,o),
(393,160,c),
(366,118,o),
(338,102,o),
(293,102,cs),
(229,102,o),
(197,142,o),
(197,217,cs),
(197,270,o),
(213,334,o),
(237,374,cs),
(261,416,o),
(298,438,o),
(346,438,cs),
(382,438,o),
(404,428,o),
(426,402,c)
);
},
{
closed = 1;
nodes = (
(397,374,o),
(378,388,o),
(351,388,cs),
(320,388,o),
(297,369,o),
(280,332,cs),
(265,301,o),
(255,256,o),
(255,220,cs),
(255,175,o),
(271,153,o),
(303,153,cs),
(348,153,o),
(383,196,o),
(396,267,cs),
(410,346,l)
);
}
);
width = 670;
}
);
note = at;
unicode = 64;
},
{
glyphname = A;
kernLeft = A;
kernRight = A;
layers = (
{
layerId = m01;
shapes = (
{
closed = 1;
nodes = (
(123,141,l),
(79,21,ls),
(72,1,o),
(61,-9,o),
(45,-9,cs),
(27,-9,o),
(12,6,o),
(12,23,cs),
(12,29,o),
(13,36,o),
(16,44,cs),
(209,567,ls),
(219,593,o),
(232,605,o),
(253,605,cs),
(274,605,o),
(287,593,o),
(296,568,cs),
(490,45,ls),
(493,37,o),
(494,30,o),
(494,23,cs),
(494,6,o),
(479,-9,o),
(460,-9,cs),
(444,-9,o),
(433,1,o),
(425,22,cs),
(382,141,l)
);
},
{
closed = 1;
nodes = (
(253,505,l),
(141,199,l),
(364,199,l)
);
}
);
width = 506;
}
);
note = A;
unicode = 65;
},
{
glyphname = B;
layers = (
{
layerId = m01;
shapes = (
{
closed = 1;
nodes = (
(435,302,o),
(459,249,o),
(459,168,cs),
(459,35,o),
(390,0,o),
(255,0,cs),
(122,0,ls),
(92,0,o),
(81,19,o),
(81,46,cs),
(81,550,ls),
(81,583,o),
(94,596,o),
(127,596,cs),
(257,596,ls),
(389,596,o),
(442,556,o),
(442,456,cs),
(442,387,o),
(414,341,o),
(359,320,c)
);
},
{
closed = 1;
nodes = (
(235,342,ls),
(326,342,o),
(374,358,o),
(374,450,cs),
(374,528,o),
(321,539,o),
(248,539,cs),
(148,539,l),
(148,342,l)
);
},
{
closed = 1;
nodes = (
(246,58,ls),
(339,58,o),
(390,73,o),
(390,169,cs),
(390,268,o),
(338,288,o),
(241,288,cs),
(148,288,l),
(148,58,l)
);
}
);
width = 504;
}
);
note = B;
unicode = 66;
},
{
glyphname = C;
kernLeft = C;
layers = (
{
layerId = m01;
shapes = (
{
closed = 1;
nodes = (
(122,258,ls),
(122,147,o),
(146,49,o),
(265,49,cs),
(308,49,o),
(338,59,o),
(375,85,cs),
(386,92,o),
(391,94,o),
(397,94,cs),
(414,94,o),
(427,78,o),
(427,61,cs),
(427,53,o),
(424,45,o),
(417,39,cs),
(385,8,o),
(329,-10,o),
(263,-10,cs),
(95,-10,o),
(53,108,o),
(53,259,cs),
(53,337,ls),
(53,490,o),
(97,606,o),
(264,606,cs),
(326,606,o),
(378,590,o),
(410,560,cs),
(416,554,o),
(419,546,o),
(419,538,cs),
(419,520,o),
(405,506,o),
(388,506,cs),
(381,506,o),
(376,508,o),
(365,516,cs),
(336,537,o),
(305,547,o),
(266,547,cs),
(145,547,o),
(122,448,o),
(122,335,cs)
);
}
);
width = 431;
}
);
note = C;
unicode = 67;
},
{
glyphname = D;
layers = (
{
layerId = m01;
shapes = (
{
closed = 1;
nodes = (
(81,550,ls),
(81,583,o),
(94,596,o),
(127,596,cs),
(248,596,ls),
(418,596,o),
(484,527,o),
(484,326,cs),
(484,270,ls),
(484,69,o),
(418,0,o),
(248,0,cs),
(122,0,ls),
(92,0,o),
(81,19,o),
(81,46,cs)
);
},
{
closed = 1;
nodes = (
(254,60,ls),
(393,60,o),
(415,146,o),
(415,268,cs),
(415,327,ls),
(415,449,o),
(393,536,o),
(254,536,cs),
(150,536,l),
(150,60,l)
);
}
);
width = 536;
}
);
note = D;
unicode = 68;
},
{
glyphname = E;
layers = (
{
layerId = m01;
shapes = (
{
closed = 1;
nodes = (
(150,341,l),
(348,341,ls),
(371,341,o),
(385,330,o),
(385,311,cs),
(385,292,o),
(371,281,o),
(348,281,cs),
(150,281,l),
(150,61,l),
(393,61,ls),
(416,61,o),
(430,49,o),
(430,30,cs),
(430,11,o),
(416,0,o),
(393,0,cs),
(122,0,ls),
(92,0,o),
(81,19,o),
(81,46,cs),
(81,550,ls),
(81,583,o),
(94,596,o),
(127,596,cs),
(382,596,ls),
(406,596,o),
(419,585,o),
(419,566,cs),
(419,547,o),
(406,535,o),
(382,535,cs),
(150,535,l)
);
}
);
width = 456;
}
);
note = E;
unicode = 69;
},
{
glyphname = F;
kernRight = F;
layers = (
{
layerId = m01;
shapes = (
{
closed = 1;
nodes = (
(150,336,l),
(342,336,ls),
(365,336,o),
(378,325,o),
(378,306,cs),
(378,287,o),
(365,276,o),
(342,276,cs),
(150,276,l),
(150,33,ls),
(150,7,o),
(137,-9,o),
(115,-9,cs),
(94,-9,o),
(81,7,o),
(81,33,cs),
(81,555,ls),
(81,585,o),
(100,596,o),
(127,596,cs),
(375,596,ls),
(399,596,o),
(412,585,o),
(412,566,cs),
(412,547,o),
(399,535,o),
(375,535,cs),
(150,535,l)
);
}
);
width = 416;
}
);
note = F;
unicode = 70;
},
{
glyphname = G;
kernLeft = C;
layers = (
{
layerId = m01;
shapes = (
{
closed = 1;
nodes = (
(387,244,l),
(303,244,ls),
(283,244,o),
(272,254,o),
(272,270,cs),
(272,291,o),
(288,300,o),
(308,300,cs),
(400,300,ls),
(418,300,o),
(435,299,o),
(443,286,cs),
(449,276,o),
(450,260,o),
(450,243,cs),
(450,61,ls),
(450,36,o),
(446,26,o),
(431,17,cs),
(406,1,o),
(339,-10,o),
(275,-10,cs),
(186,-10,o),
(127,16,o),
(91,72,cs),
(67,110,o),
(53,179,o),
(53,259,cs),
(53,337,ls),
(53,425,o),
(69,496,o),
(99,535,cs),
(134,582,o),
(191,606,o),
(265,606,cs),
(330,606,o),
(380,590,o),
(414,558,cs),
(420,553,o),
(423,545,o),
(423,537,cs),
(423,520,o),
(408,505,o),
(392,505,cs),
(387,505,o),
(385,506,o),
(364,520,cs),
(335,538,o),
(306,547,o),
(266,547,cs),
(210,547,o),
(170,524,o),
(147,481,cs),
(133,453,o),
(123,392,o),
(123,335,cs),
(123,258,ls),
(123,226,o),
(127,190,o),
(133,160,cs),
(150,81,o),
(192,49,o),
(279,49,cs),
(322,49,o),
(351,53,o),
(387,64,c)
);
}
);
width = 509;
}
);
note = G;
unicode = 71;
},
{
glyphname = H;
layers = (
{
layerId = m01;
shapes = (
{
closed = 1;
nodes = (
(412,343,l),
(412,563,ls),
(412,589,o),
(424,605,o),
(446,605,cs),
(468,605,o),
(480,589,o),
(480,563,cs),
(480,33,ls),
(480,7,o),
(468,-9,o),
(446,-9,cs),
(424,-9,o),
(412,7,o),
(412,33,cs),
(412,282,l),
(150,282,l),
(150,33,ls),
(150,7,o),
(137,-9,o),
(115,-9,cs),
(94,-9,o),
(81,7,o),
(81,33,cs),
(81,563,ls),
(81,589,o),
(94,605,o),
(115,605,cs),
(137,605,o),
(150,589,o),
(150,563,cs),
(150,343,l)
);
}
);
width = 561;
}
);
note = H;
unicode = 72;
},
{
glyphname = I;
layers = (
{
layerId = m01;
shapes = (
{
closed = 1;
nodes = (
(87,563,ls),
(87,589,o),
(100,605,o),
(121,605,cs),
(143,605,o),
(156,589,o),
(156,563,cs),
(156,33,ls),
(156,7,o),
(143,-9,o),
(121,-9,cs),
(100,-9,o),
(87,7,o),
(87,33,cs)
);
}
);
width = 243;
}
);
note = I;
unicode = 73;
},
{
glyphname = J;
kernLeft = J;
layers = (
{
layerId = m01;
shapes = (
{
closed = 1;
nodes = (
(166,106,ls),
(166,-7,o),
(158,-56,o),
(134,-91,cs),
(114,-120,o),
(69,-142,o),
(33,-142,cs),
(18,-142,o),
(7,-131,o),
(7,-115,cs),
(7,-108,o),
(8,-102,o),
(12,-98,cs),
(16,-93,o),
(20,-92,o),
(37,-87,cs),
(85,-72,o),
(97,-35,o),
(97,91,cs),
(97,563,ls),
(97,589,o),
(110,605,o),
(132,605,cs),
(153,605,o),
(166,589,o),
(166,563,cs)
);
}
);
width = 251;
}
);
note = J;
unicode = 74;
},
{
glyphname = K;
kernRight = K;
layers = (
{
layerId = m01;
shapes = (
{
closed = 1;
nodes = (
(381,587,ls),
(390,598,o),
(398,603,o),
(408,603,cs),
(424,603,o),
(438,589,o),
(438,573,cs),
(438,566,o),
(434,557,o),
(426,549,cs),
(215,327,l),
(448,51,ls),
(455,42,o),
(459,32,o),
(459,25,cs),
(459,8,o),
(444,-7,o),
(426,-7,cs),
(415,-7,o),
(406,-1,o),
(396,11,cs),
(152,303,l),
(152,33,ls),
(152,7,o),
(139,-9,o),
(117,-9,cs),
(96,-9,o),
(83,7,o),
(83,33,cs),
(83,563,ls),
(83,589,o),
(96,605,o),
(117,605,cs),
(139,605,o),
(152,589,o),
(152,563,cs),
(152,338,l)
);
}
);
width = 469;
}
);
note = K;
unicode = 75;
},
{
glyphname = L;
kernRight = L;
layers = (
{
layerId = m01;
shapes = (
{
closed = 1;
nodes = (
(364,61,ls),
(387,61,o),
(401,49,o),
(401,30,cs),
(401,11,o),
(387,0,o),
(364,0,cs),
(124,0,ls),
(94,0,o),
(83,19,o),
(83,46,cs),
(83,563,ls),
(83,589,o),
(96,605,o),
(117,605,cs),
(139,605,o),
(152,589,o),
(152,563,cs),
(152,61,l)
);
}
);
width = 405;
}
);
note = L;
unicode = 76;
},
{
glyphname = M;
layers = (
{
layerId = m01;
shapes = (
{
closed = 1;
nodes = (
(129,29,ls),
(127,4,o),
(116,-9,o),
(96,-9,cs),
(76,-9,o),
(64,5,o),
(64,27,cs),
(64,29,o),
(64,32,o),
(64,34,cs),
(100,559,ls),
(101,585,o),
(114,605,o),
(140,605,cs),
(160,605,o),
(172,594,o),
(182,570,cs),
(340,162,l),
(499,571,ls),
(508,595,o),
(520,605,o),
(539,605,cs),
(565,605,o),
(577,586,o),
(579,560,cs),
(614,34,l),
(615,32,o),
(615,29,o),
(615,27,cs),
(615,5,o),
(602,-9,o),
(583,-9,cs),
(563,-9,o),
(551,4,o),
(550,29,cs),
(523,464,l),
(367,73,ls),
(361,57,o),
(353,50,o),
(339,50,cs),
(326,50,o),
(318,57,o),
(311,73,cs),
(156,464,l)
);
}
);
width = 679;
}
);
note = M;
unicode = 77;
},
{
glyphname = N;
layers = (
{
layerId = m01;
shapes = (
{
closed = 1;
nodes = (
(431,565,ls),
(431,590,o),
(443,605,o),
(463,605,cs),
(484,605,o),
(496,590,o),
(496,565,cs),
(496,36,ls),
(496,11,o),
(485,-8,o),
(460,-8,cs),
(445,-8,o),
(435,-1,o),
(425,17,cs),
(148,483,l),
(148,31,ls),
(148,6,o),
(136,-9,o),
(116,-9,cs),
(95,-9,o),
(83,6,o),
(83,31,cs),
(83,554,ls),
(83,582,o),
(96,604,o),
(124,604,cs),
(141,604,o),
(152,596,o),
(164,576,cs),
(431,127,l)
);
}
);
width = 579;
}
);
note = N;
unicode = 78;
},
{
glyphname = O;
kernLeft = C;
layers = (
{
layerId = m01;
shapes = (
{
closed = 1;
nodes = (
(486,260,ls),
(486,101,o),
(441,-10,o),
(270,-10,cs),
(97,-10,o),
(53,102,o),
(53,260,cs),
(53,337,ls),
(53,495,o),
(98,606,o),
(270,606,cs),
(442,606,o),
(486,494,o),
(486,337,cs)
);
},
{
closed = 1;
nodes = (
(127,140,o),
(141,49,o),
(270,49,cs),
(394,49,o),
(417,142,o),
(417,259,cs),
(417,338,ls),
(417,455,o),
(393,547,o),
(270,547,cs),
(145,547,o),
(122,454,o),
(122,338,cs),
(124,259,ls)
);
}
);
width = 540;
}
);
note = O;
unicode = 79;
},
{
glyphname = P;
kernRight = P;
layers = (
{
layerId = m01;
shapes = (
{
closed = 1;
nodes = (
(150,33,ls),
(150,7,o),
(137,-9,o),
(115,-9,cs),
(94,-9,o),
(81,7,o),
(81,33,cs),
(81,555,ls),
(81,585,o),
(100,596,o),
(127,596,cs),
(243,596,ls),
(381,596,o),
(444,553,o),
(444,420,cs),
(444,281,o),
(373,240,o),
(223,240,cs),
(150,240,l)
);
},
{
closed = 1;
nodes = (
(233,298,ls),
(341,298,o),
(376,328,o),
(376,419,cs),
(376,508,o),
(344,538,o),
(249,538,cs),
(149,538,l),
(149,298,l)
);
}
);
width = 489;
}
);
note = P;
unicode = 80;
},
{
glyphname = Q;
kernLeft = C;
layers = (
{
layerId = m01;
shapes = (
{
closed = 1;
nodes = (
(397,55,l),
(517,6,o),
(528,-7,o),
(528,-23,cs),
(528,-40,o),
(513,-55,o),
(496,-55,cs),
(489,-55,o),
(480,-52,o),
(470,-46,cs),
(345,20,l)
);
},
{
closed = 1;
nodes = (
(486,260,ls),
(486,101,o),
(441,-10,o),
(270,-10,cs),
(97,-10,o),
(53,102,o),
(53,260,cs),
(53,337,ls),
(53,495,o),
(98,606,o),
(270,606,cs),
(442,606,o),
(486,494,o),
(486,337,cs)
);
},
{
closed = 1;
nodes = (
(127,140,o),
(141,49,o),
(270,49,cs),
(394,49,o),
(417,142,o),
(417,259,cs),
(417,338,ls),
(417,455,o),
(393,547,o),
(270,547,cs),
(145,547,o),
(122,454,o),
(122,338,cs),
(124,259,ls)
);
}
);
width = 540;
}
);
note = Q;
unicode = 81;
},
{
glyphname = R;
kernRight = R;
layers = (
{
layerId = m01;
shapes = (
{
closed = 1;
nodes = (
(150,33,ls),
(150,7,o),
(137,-9,o),
(115,-9,cs),
(94,-9,o),
(81,7,o),
(81,33,cs),
(81,555,ls),
(81,585,o),
(100,596,o),
(127,596,cs),
(243,596,ls),
(380,596,o),
(444,553,o),
(444,420,cs),
(444,332,o),
(417,286,o),
(347,259,c),
(360,247,o),
(370,230,o),
(386,195,cs),
(451,50,ls),
(455,40,o),
(458,32,o),
(458,24,cs),
(458,8,o),
(441,-8,o),
(423,-8,cs),
(407,-8,o),
(396,0,o),
(388,20,cs),
(321,177,ls),
(310,202,o),
(298,223,o),
(288,231,cs),
(278,240,o),
(269,242,o),
(240,242,cs),
(150,242,l)
);
},
{
closed = 1;
nodes = (
(233,298,ls),
(341,298,o),
(376,328,o),
(376,419,cs),
(376,508,o),
(344,538,o),
(249,538,cs),
(149,538,l),
(149,298,l)
);
}
);
width = 502;
}
);
note = R;
unicode = 82;
},
{
glyphname = S;
kernRight = S;
layers = (
{
layerId = m01;
shapes = (
{
closed = 1;
nodes = (
(73,347,o),
(44,382,o),
(44,458,cs),
(44,554,o),
(102,606,o),
(210,606,cs),
(279,606,o),
(344,578,o),
(344,547,cs),
(344,530,o),
(330,516,o),
(313,516,cs),
(307,516,o),
(304,517,o),
(286,527,cs),
(264,540,o),
(240,547,o),
(212,547,cs),
(148,547,o),
(113,517,o),
(113,462,cs),
(113,400,o),
(158,381,o),
(221,347,cs),
(307,302,o),
(373,266,o),
(373,158,cs),
(373,47,o),
(309,-10,o),
(183,-10,cs),
(103,-10,o),
(54,10,o),
(26,52,cs),
(22,59,o),
(21,65,o),
(23,73,cs),
(26,85,o),
(38,95,o),
(51,95,cs),
(59,95,o),
(62,93,o),
(75,83,cs),
(104,61,o),
(140,49,o),
(184,49,cs),
(261,49,o),
(305,87,o),
(305,155,cs),
(305,234,o),
(237,259,o),
(177,291,cs)
);
}
);
width = 410;
}
);
note = S;
unicode = 83;
},
{
glyphname = T;
kernLeft = T;
kernRight = T;
layers = (
{
layerId = m01;
shapes = (
{
closed = 1;
nodes = (
(41,535,ls),
(18,535,o),
(4,547,o),
(4,566,cs),
(4,585,o),
(18,596,o),
(41,596,cs),
(395,596,ls),
(419,596,o),
(432,585,o),
(432,566,cs),
(432,547,o),
(419,535,o),
(395,535,cs),
(252,535,l),
(252,33,ls),
(252,7,o),
(240,-9,o),
(218,-9,cs),
(196,-9,o),
(184,7,o),
(184,33,cs),
(184,535,l)
);
}
);
width = 436;
}
);
note = T;
unicode = 84;
},
{
glyphname = U;
layers = (
{
layerId = m01;
shapes = (
{
closed = 1;
nodes = (
(453,116,o),
(446,79,o),
(426,50,cs),
(398,9,o),
(348,-10,o),
(265,-10,cs),
(175,-10,o),
(123,12,o),
(97,62,cs),
(83,89,o),
(78,125,o),
(78,192,cs),
(78,563,ls),
(78,589,o),
(91,605,o),
(112,605,cs),
(134,605,o),
(147,589,o),
(147,563,cs),
(147,197,ls),
(147,140,o),
(152,108,o),
(164,90,cs),
(182,62,o),
(215,49,o),
(265,49,cs),
(320,49,o),
(355,65,o),
(371,98,cs),
(380,115,o),
(384,148,o),
(384,197,cs),
(384,563,ls),
(384,589,o),
(396,605,o),
(418,605,cs),
(440,605,o),
(453,589,o),
(453,563,cs),
(453,192,ls)
);
}
);
width = 531;
}
);
note = U;
unicode = 85;
},
{
glyphname = V;
kernLeft = V;
kernRight = V;
layers = (
{
layerId = m01;
shapes = (
{
closed = 1;
nodes = (
(375,574,ls),
(382,595,o),
(392,605,o),
(409,605,cs),
(427,605,o),
(442,590,o),
(442,574,cs),
(442,568,o),
(441,561,o),
(439,554,cs),
(270,25,ls),
(262,2,o),
(251,-9,o),
(232,-9,cs),
(213,-9,o),
(201,2,o),
(193,25,cs),
(26,552,l),
(23,559,o),
(22,567,o),
(22,573,cs),
(22,590,o),
(38,605,o),
(56,605,cs),
(74,605,o),
(85,594,o),
(92,572,cs),
(233,122,l)
);
}
);
width = 463;
}
);
note = V;
unicode = 86;
},
{
glyphname = W;
kernLeft = V;
kernRight = V;
layers = (
{
layerId = m01;
shapes = (
{
closed = 1;
nodes = (
(316,575,ls),
(322,595,o),
(332,605,o),
(348,605,cs),
(365,605,o),
(375,595,o),
(381,575,cs),
(500,140,l),
(596,571,ls),
(601,593,o),
(613,605,o),
(631,605,cs),
(649,605,o),
(664,591,o),
(664,573,cs),
(664,568,o),
(663,562,o),
(662,557,cs),
(538,24,ls),
(533,2,o),
(522,-9,o),
(504,-9,cs),
(487,-9,o),
(477,1,o),
(471,23,cs),
(348,467,l),
(225,24,ls),
(219,1,o),
(208,-9,o),
(190,-9,cs),
(172,-9,o),
(161,2,o),
(155,26,cs),
(33,556,ls),
(32,561,o),
(31,567,o),
(31,573,cs),
(31,590,o),
(46,605,o),
(65,605,cs),
(83,605,o),
(95,593,o),
(100,570,cs),
(197,142,l)
);
}
);
width = 696;
}
);
note = W;
unicode = 87;
},
{
glyphname = X;
kernLeft = X;
kernRight = X;
layers = (
{
layerId = m01;
shapes = (
{
closed = 1;
nodes = (
(63,547,ls),
(57,556,o),
(53,566,o),
(53,572,cs),
(53,589,o),
(69,604,o),
(87,604,cs),
(99,604,o),
(108,598,o),
(118,582,cs),
(244,368,l),
(368,582,ls),
(377,597,o),
(386,604,o),
(399,604,cs),
(416,604,o),
(431,589,o),
(431,574,cs),
(431,567,o),
(428,558,o),
(423,549,cs),
(282,308,l),
(434,49,ls),
(440,40,o),
(443,30,o),
(443,24,cs),
(443,7,o),
(428,-8,o),
(410,-8,cs),
(397,-8,o),
(389,-2,o),
(379,14,cs),
(233,261,l),
(81,14,ls),
(72,-2,o),
(63,-8,o),
(50,-8,cs),
(33,-8,o),
(18,7,o),
(18,23,cs),
(18,30,o),
(22,40,o),
(27,48,cs),
(195,322,l)
);
}
);
width = 472;
}
);
note = X;
unicode = 88;
},
{
glyphname = Y;
kernLeft = Y;
kernRight = Y;
layers = (
{
layerId = m01;
shapes = (
{
closed = 1;
nodes = (
(37,548,ls),
(32,557,o),
(30,565,o),
(30,572,cs),
(30,589,o),
(46,604,o),
(64,604,cs),
(80,604,o),
(90,596,o),
(99,577,cs),
(226,307,l),
(353,578,ls),
(361,596,o),
(371,604,o),
(386,604,cs),
(403,604,o),
(419,589,o),
(419,574,cs),
(419,567,o),
(417,558,o),
(412,550,c),
(258,233,l),
(258,33,ls),
(258,7,o),
(246,-9,o),
(224,-9,cs),
(202,-9,o),
(190,7,o),
(190,33,cs),
(190,233,l)
);
}
);
width = 447;
}
);
note = Y;
unicode = 89;
},
{
glyphname = Z;
kernLeft = Z;
kernRight = Z;
layers = (
{
layerId = m01;
shapes = (
{
closed = 1;
nodes = (
(80,535,ls),
(56,535,o),
(43,547,o),
(43,566,cs),
(43,585,o),
(56,596,o),
(80,596,cs),
(351,596,ls),
(377,596,o),
(393,585,o),
(392,564,cs),
(391,553,o),
(386,542,o),
(378,529,cs),
(103,61,l),
(377,61,ls),
(401,61,o),
(414,49,o),
(414,30,cs),
(414,11,o),
(401,0,o),
(377,0,cs),
(59,0,ls),
(36,0,o),
(19,6,o),
(19,31,cs),
(19,39,o),
(21,48,o),
(29,63,cs),
(305,535,l)
);
}
);
width = 430;
}
);
note = Z;
unicode = 90;
},
{
glyphname = bracketleft;
layers = (
{
layerId = m01;
shapes = (
{
closed = 1;
nodes = (
(189,-97,l),
(250,-97,ls),
(269,-97,o),
(281,-108,o),
(281,-125,cs),
(281,-145,o),
(266,-153,o),
(247,-153,cs),
(152,-153,ls),
(129,-153,o),
(120,-144,o),
(120,-121,cs),
(120,616,ls),
(120,639,o),
(129,648,o),
(152,648,cs),
(247,648,ls),
(266,648,o),
(281,640,o),
(281,620,cs),
(281,603,o),
(269,592,o),
(250,592,cs),
(189,592,l)
);
}
);
width = 311;
}
);
note = bracketleft;
unicode = 91;
},
{
glyphname = backslash;
layers = (
{
layerId = m01;
shapes = (
{
closed = 1;
nodes = (
(9,555,ls),
(7,562,o),
(6,568,o),
(6,574,cs),
(6,591,o),
(21,605,o),
(39,605,cs),
(56,605,o),
(66,595,o),
(73,574,cs),
(232,41,ls),
(234,35,o),
(235,28,o),
(235,22,cs),
(235,5,o),
(219,-9,o),
(202,-9,cs),
(185,-9,o),
(174,1,o),
(168,22,cs)
);
}
);
width = 241;
}
);
note = backslash;
unicode = 92;
},
{
glyphname = bracketright;
layers = (
{
layerId = m01;
shapes = (
{
closed = 1;
nodes = (
(123,592,l),
(62,592,ls),
(43,592,o),
(30,603,o),
(30,620,cs),
(30,640,o),
(45,648,o),
(64,648,cs),
(160,648,ls),
(182,648,o),
(191,639,o),
(191,616,cs),
(191,-121,ls),
(191,-144,o),
(182,-153,o),
(160,-153,cs),
(64,-153,ls),
(45,-153,o),
(30,-145,o),
(30,-125,cs),
(30,-108,o),
(43,-97,o),
(62,-97,cs),
(123,-97,l)
);
}
);
width = 311;
}
);
note = bracketright;
unicode = 93;
},
{
glyphname = asciicircum;
layers = (
{
layerId = m01;
shapes = (
{
closed = 1;
nodes = (
(126,309,ls),
(117,292,o),
(108,285,o),
(94,285,cs),
(77,285,o),
(61,300,o),
(61,316,cs),
(61,323,o),
(64,332,o),
(69,341,cs),
(205,591,ls),
(214,608,o),
(223,614,o),
(237,614,cs),
(252,614,o),
(261,608,o),
(270,591,cs),
(406,341,ls),
(411,332,o),
(414,323,o),
(414,316,cs),
(414,300,o),
(398,285,o),
(381,285,cs),
(367,285,o),
(358,292,o),
(349,309,cs),
(238,517,l)
);
}
);
width = 474;
}
);
note = asciicircum;
unicode = 94;
},
{
glyphname = underscore;
layers = (
{
layerId = m01;
shapes = (
{
closed = 1;
nodes = (
(403,-71,ls),
(422,-71,o),
(433,-80,o),
(433,-96,cs),
(433,-111,o),
(422,-121,o),
(403,-121,cs),
(10,-121,ls),
(-9,-121,o),
(-20,-111,o),
(-20,-96,cs),
(-20,-80,o),
(-9,-71,o),
(10,-71,cs)
);
}
);
width = 414;
}
);
note = underscore;
unicode = 95;
},
{
glyphname = grave;
layers = (
{
layerId = m01;
shapes = (
{
closed = 1;
nodes = (
(92,546,o),
(89,553,o),
(89,558,cs),
(89,571,o),
(100,581,o),
(114,581,cs),
(151,581,o),
(160,575,o),
(170,556,cs),
(210,485,ls),
(213,480,o),
(215,475,o),
(215,471,cs),
(215,461,o),
(206,453,o),
(195,453,cs),
(175,453,o),
(169,456,o),
(156,471,cs),
(98,539,ls)
);
}
);
width = 333;
}
);
note = grave;
unicode = 96;
},
{
glyphname = a;
kernLeft = a;
kernRight = a;
layers = (
{
layerId = m01;
shapes = (
{
closed = 1;
nodes = (
(286,252,ls),
(286,317,o),
(265,339,o),
(205,339,cs),
(169,339,o),
(134,328,o),
(109,309,cs),
(104,305,o),
(100,303,o),
(95,303,cs),
(80,303,o),
(68,316,o),
(68,331,cs),
(68,339,o),
(71,347,o),
(77,352,cs),
(108,379,o),
(155,393,o),
(209,393,cs),
(272,393,o),
(315,376,o),
(337,342,cs),
(350,321,o),
(354,295,o),
(354,226,cs),
(354,23,ls),
(354,3,o),
(342,-9,o),
(322,-9,cs),
(306,-9,o),
(296,0,o),
(292,40,c),
(263,5,o),
(223,-10,o),
(164,-10,cs),
(81,-10,o),
(38,29,o),
(38,105,cs),
(38,154,o),
(54,189,o),
(88,211,cs),
(117,230,o),
(165,239,o),
(237,239,cs),
(249,239,o),
(256,239,o),
(286,238,c)
);
},
{
closed = 1;
nodes = (
(271,193,o),
(269,194,o),
(242,194,cs),
(152,193,o),
(115,174,o),
(109,118,cs),
(105,79,o),
(122,59,o),
(164,51,cs),
(191,46,o),
(217,49,o),
(244,61,cs),
(273,73,o),
(288,91,o),
(288,120,cs),
(288,193,l)
);
}
);
width = 419;
}
);
note = a;
unicode = 97;
},
{
glyphname = b;
kernRight = b;
layers = (
{
layerId = m01;
shapes = (
{
closed = 1;
nodes = (
(154,374,o),
(197,393,o),
(247,393,cs),
(343,393,o),
(392,333,o),
(392,215,cs),
(392,175,ls),
(392,53,o),
(340,-10,o),
(241,-10,cs),
(188,-10,o),
(155,5,o),
(126,41,c),
(121,-6,o),
(111,-9,o),
(95,-9,cs),
(75,-9,o),
(67,6,o),
(67,25,cs),
(67,589,ls),
(67,615,o),
(79,630,o),
(100,630,cs),
(121,630,o),
(133,615,o),
(133,589,cs),
(133,343,l)
);
},
{
closed = 1;
nodes = (
(137,79,o),
(160,48,o),
(228,48,cs),
(295,48,o),
(325,86,o),
(325,172,cs),
(325,209,ls),
(325,297,o),
(298,335,o),
(236,335,cs),
(166,335,o),
(133,294,o),
(133,209,cs),
(134,174,ls)
);
}
);
width = 436;
}
);
note = b;
unicode = 98;
},
{
glyphname = c;
kernLeft = c;
kernRight = c;
layers = (
{
layerId = m01;
shapes = (
{
closed = 1;
nodes = (
(48,331,o),
(105,393,o),
(212,393,cs),
(259,393,o),
(291,382,o),
(318,356,cs),
(326,349,o),
(329,342,o),
(329,333,cs),
(329,318,o),
(317,302,o),
(302,302,cs),
(296,302,o),
(293,304,o),
(285,311,cs),
(266,327,o),
(245,335,o),
(217,335,cs),
(146,335,o),
(114,295,o),
(114,209,cs),
(114,173,ls),
(114,87,o),
(146,48,o),
(216,48,cs),
(247,48,o),
(271,56,o),
(295,73,cs),
(303,78,o),
(307,80,o),
(312,80,cs),
(328,80,o),
(340,65,o),
(340,50,cs),
(340,39,o),
(336,32,o),
(324,23,cs),
(295,1,o),
(257,-10,o),
(209,-10,cs),
(104,-10,o),
(48,51,o),
(48,168,cs),
(48,215,ls)
);
}
);
width = 363;
}
);
note = c;
unicode = 99;
},
{
glyphname = d;
kernLeft = c;
layers = (
{
layerId = m01;
shapes = (
{
closed = 1;
nodes = (
(303,589,ls),
(303,615,o),
(315,630,o),
(336,630,cs),
(357,630,o),
(369,615,o),
(369,589,cs),
(369,21,ls),
(369,0,o),
(355,-9,o),
(337,-9,cs),
(321,-9,o),
(314,-2,o),
(310,41,c),
(278,5,o),
(244,-10,o),
(190,-10,cs),
(91,-10,o),
(44,49,o),
(44,175,cs),
(44,209,ls),
(44,330,o),
(96,393,o),
(196,393,cs),
(245,393,o),
(282,376,o),
(303,345,c)
);
},
{
closed = 1;
nodes = (
(301,257,o),
(296,279,o),
(283,299,cs),
(268,322,o),
(242,335,o),
(206,335,cs),
(140,335,o),
(111,294,o),
(111,203,cs),
(111,172,ls),
(111,85,o),
(139,48,o),
(205,48,cs),
(272,48,o),
(303,87,o),
(303,173,cs),
(302,209,ls)
);
}
);
width = 436;
}
);
note = d;
unicode = 100;
},
{
glyphname = e;
kernLeft = c;
kernRight = e;
layers = (
{
layerId = m01;
shapes = (
{
closed = 1;
nodes = (
(110,161,ls),
(110,81,o),
(144,45,o),
(219,45,cs),
(259,45,o),
(296,54,o),
(325,73,cs),
(329,75,o),
(334,77,o),
(338,77,cs),
(353,77,o),
(365,64,o),
(365,49,cs),
(365,40,o),
(360,32,o),
(350,24,cs),
(319,2,o),
(270,-10,o),
(215,-10,cs),
(102,-10,o),
(44,48,o),
(44,165,cs),
(44,212,ls),
(44,331,o),
(101,393,o),
(212,393,cs),
(267,393,o),
(308,377,o),
(334,346,cs),
(357,318,o),
(371,272,o),
(371,218,cs),
(371,191,o),
(351,180,o),
(325,180,cs),
(110,180,l)
);
},
{
closed = 1;
nodes = (
(304,310,o),
(277,341,o),
(212,341,cs),
(144,341,o),
(114,307,o),
(110,228,c),
(308,228,l)
);
}
);
width = 412;
}
);
note = e;
unicode = 101;
},
{
glyphname = f;
kernLeft = f;
kernRight = f;
layers = (
{
layerId = m01;
shapes = (
{
closed = 1;
nodes = (
(89,444,ls),
(89,544,o),
(105,629,o),
(219,629,cs),
(276,629,o),
(325,607,o),
(325,579,cs),
(325,565,o),
(318,549,o),
(301,549,cs),
(286,550,o),
(263,573,o),
(224,573,cs),
(170,572,o),
(155,530,o),
(155,440,cs),
(155,382,l),
(248,382,ls),
(270,382,o),
(283,372,o),
(283,353,cs),
(283,335,o),
(270,324,o),
(248,324,cs),
(155,324,l),
(155,32,ls),
(155,6,o),
(143,-9,o),
(122,-9,cs),
(101,-9,o),
(89,6,o),
(89,32,cs),
(89,324,l),
(35,324,ls),
(16,324,o),
(3,336,o),
(3,353,cs),
(3,371,o),
(16,382,o),
(35,382,cs),
(89,382,l)
);
}
);
width = 283;
}
);
note = f;
unicode = 102;
},
{
glyphname = g;
kernLeft = c;
layers = (
{
layerId = m01;
shapes = (
{
closed = 1;
nodes = (
(279,5,o),
(243,-10,o),
(192,-10,cs),
(91,-10,o),
(44,47,o),
(44,172,cs),
(44,206,ls),
(44,329,o),
(96,393,o),
(196,393,cs),
(247,393,o),
(284,376,o),
(309,341,c),
(312,384,o),
(320,391,o),
(340,391,cs),
(361,391,o),
(369,376,o),
(369,356,cs),
(369,38,ls),
(369,-68,o),
(362,-108,o),
(339,-142,cs),
(308,-186,o),
(258,-208,o),
(188,-208,cs),
(118,-208,o),
(74,-191,o),
(52,-157,cs),
(49,-152,o),
(48,-147,o),
(49,-141,cs),
(52,-128,o),
(63,-119,o),
(76,-119,cs),
(81,-119,o),
(85,-120,o),
(92,-126,cs),
(116,-143,o),
(147,-153,o),
(183,-153,cs),
(289,-153,o),
(303,-77,o),
(304,8,cs),
(304,37,l)
);
},
{
closed = 1;
nodes = (
(300,281,o),
(285,335,o),
(206,335,cs),
(140,335,o),
(111,294,o),
(111,203,cs),
(111,172,ls),
(111,85,o),
(139,48,o),
(205,48,cs),
(273,48,o),
(303,86,o),
(303,173,cs),
(302,209,ls)
);
}
);
width = 436;
}
);
note = g;
unicode = 103;
},
{
glyphname = h;
kernLeft = h;
layers = (
{
layerId = m01;
shapes = (
{
closed = 1;
nodes = (
(159,379,o),
(195,393,o),
(245,393,cs),
(319,393,o),
(362,364,o),
(378,305,cs),
(384,286,o),
(386,253,o),
(386,207,cs),
(386,32,ls),
(386,6,o),
(374,-9,o),
(353,-9,cs),
(332,-9,o),
(320,6,o),
(320,32,cs),
(320,201,ls),
(320,245,o),
(316,276,o),
(309,293,cs),
(296,321,o),
(271,335,o),
(236,335,cs),
(200,335,o),
(169,323,o),
(153,302,cs),
(139,283,o),
(133,253,o),
(133,195,cs),
(133,32,ls),
(133,6,o),
(121,-9,o),
(100,-9,cs),
(79,-9,o),
(67,6,o),
(67,32,cs),
(67,589,ls),
(67,615,o),
(79,630,o),
(100,630,cs),
(121,630,o),
(133,615,o),
(133,589,cs),
(133,351,l)
);
}
);
width = 450;
}
);
note = h;
unicode = 104;
},
{
glyphname = i;
layers = (
{
layerId = m01;
shapes = (
{
closed = 1;
nodes = (
(131,561,o),
(146,543,o),
(146,513,cs),
(146,483,o),
(131,465,o),
(106,465,cs),
(82,465,o),
(67,483,o),
(67,513,cs),
(67,543,o),
(82,561,o),
(106,561,cs)
);
},
{
closed = 1;
nodes = (
(73,351,ls),
(73,376,o),
(85,391,o),
(106,391,cs),
(127,391,o),
(139,376,o),
(139,351,cs),
(139,32,ls),
(139,6,o),
(127,-9,o),
(106,-9,cs),
(85,-9,o),
(73,6,o),
(73,32,cs)
);
}
);
width = 213;
}
);
note = i;
unicode = 105;
},
{
glyphname = j;
layers = (
{
layerId = m01;
shapes = (
{
closed = 1;
nodes = (
(141,-96,o),
(129,-142,o),
(92,-172,cs),
(74,-187,o),
(46,-199,o),
(27,-199,cs),
(13,-199,o),
(2,-188,o),
(2,-173,cs),
(2,-157,o),
(10,-151,o),
(28,-145,cs),
(63,-132,o),
(75,-96,o),
(75,4,cs),
(75,351,ls),
(75,376,o),
(87,391,o),
(108,391,cs),
(129,391,o),
(141,376,o),
(141,351,cs),
(141,17,ls)
);
},
{
closed = 1;
nodes = (
(132,561,o),
(147,543,o),
(147,513,cs),
(147,483,o),
(132,465,o),
(108,465,cs),
(83,465,o),
(68,483,o),
(68,513,cs),
(68,543,o),
(83,561,o),
(108,561,cs)
);
}
);
width = 213;
}
);
note = j;
unicode = 106;
},
{
glyphname = k;
kernRight = k;
layers = (
{
layerId = m01;
shapes = (
{
closed = 1;
nodes = (
(297,378,ls),
(305,385,o),
(312,388,o),
(319,388,cs),
(333,388,o),
(346,376,o),
(346,361,cs),
(346,353,o),
(341,346,o),
(332,338,cs),
(194,222,l),
(354,47,ls),
(361,39,o),
(365,30,o),
(365,23,cs),
(365,7,o),
(350,-7,o),
(334,-7,cs),
(322,-7,o),
(314,-1,o),
(303,11,cs),
(133,202,l),
(133,32,ls),
(133,6,o),
(121,-9,o),
(100,-9,cs),
(79,-9,o),
(67,6,o),
(67,32,cs),
(67,589,ls),
(67,615,o),
(79,630,o),
(100,630,cs),
(121,630,o),
(133,615,o),
(133,589,cs),
(133,238,l)
);
}
);
width = 388;
}
);
note = k;
unicode = 107;
},
{
glyphname = l;
layers = (
{
layerId = m01;
shapes = (
{
closed = 1;
nodes = (
(142,-9,o),
(113,6,o),
(97,30,cs),
(78,59,o),
(71,102,o),
(71,186,cs),
(71,589,ls),
(71,615,o),
(83,630,o),
(104,630,cs),
(125,630,o),
(137,615,o),
(137,589,cs),
(137,180,ls),
(137,84,o),
(147,59,o),
(184,49,cs),
(198,45,o),
(206,35,o),
(205,18,cs),
(205,2,o),
(192,-9,o),
(175,-9,cs)
);
}
);
width = 217;
}
);
note = l;
unicode = 108;
},
{
glyphname = m;
kernLeft = m;
layers = (
{
layerId = m01;
shapes = (
{
closed = 1;
nodes = (
(157,379,o),
(190,393,o),
(240,393,cs),
(298,393,o),
(335,372,o),
(354,331,c),
(381,373,o),
(423,393,o),
(482,393,cs),
(552,393,o),
(592,364,o),
(608,305,cs),
(614,284,o),
(616,255,o),
(616,207,cs),
(616,32,ls),
(616,6,o),
(604,-9,o),
(583,-9,cs),
(562,-9,o),
(550,6,o),
(550,32,cs),
(550,201,ls),
(550,243,o),
(547,272,o),
(541,289,cs),
(529,320,o),
(506,335,o),
(472,335,cs),
(437,335,o),
(407,322,o),
(393,299,cs),
(380,280,o),
(375,250,o),
(375,198,cs),
(375,32,ls),
(375,6,o),
(363,-9,o),
(342,-9,cs),
(321,-9,o),
(309,6,o),
(309,32,cs),
(309,201,ls),
(309,244,o),
(305,274,o),
(299,290,cs),
(287,320,o),
(264,335,o),
(231,335,cs),
(195,335,o),
(166,322,o),
(151,299,cs),
(138,279,o),
(133,250,o),
(133,195,cs),
(133,32,ls),
(133,6,o),
(121,-9,o),
(100,-9,cs),
(79,-9,o),
(67,6,o),
(67,32,cs),
(67,360,ls),
(67,384,o),
(80,391,o),
(99,391,cs),
(112,391,o),
(124,385,o),
(127,348,c)
);
}
);
width = 680;
}
);
note = m;
unicode = 109;
},
{
glyphname = n;
kernLeft = m;
layers = (
{
layerId = m01;
shapes = (
{
closed = 1;
nodes = (
(156,379,o),
(193,393,o),
(247,393,cs),
(319,393,o),
(362,364,o),
(378,305,cs),
(384,286,o),
(386,253,o),
(386,207,cs),
(386,32,ls),
(386,6,o),
(374,-9,o),
(353,-9,cs),
(332,-9,o),
(320,6,o),
(320,32,cs),
(320,201,ls),
(320,244,o),
(317,275,o),
(309,291,cs),
(297,320,o),
(272,335,o),
(236,335,cs),
(199,335,o),
(168,322,o),
(153,300,cs),
(138,280,o),
(133,251,o),
(133,195,cs),
(133,32,ls),
(133,6,o),
(121,-9,o),
(100,-9,cs),
(79,-9,o),
(67,6,o),
(67,32,cs),
(67,360,ls),
(67,384,o),
(80,391,o),
(99,391,cs),
(112,391,o),
(124,384,o),
(127,347,c)
);
}
);
width = 450;
}
);
note = n;
unicode = 110;
},
{
glyphname = o;
kernLeft = c;
kernRight = b;
layers = (
{
layerId = m01;
shapes = (
{
closed = 1;
nodes = (
(44,334,o),
(99,393,o),
(211,393,cs),
(324,393,o),
(379,334,o),
(379,215,cs),
(379,168,ls),
(379,48,o),
(324,-10,o),
(211,-10,cs),
(99,-10,o),
(44,48,o),
(44,168,cs),
(44,215,ls)
);
},
{
closed = 1;
nodes = (
(312,296,o),
(281,335,o),
(211,335,cs),
(141,335,o),
(111,296,o),
(111,209,cs),
(112,174,ls),
(114,80,o),
(140,48,o),
(211,48,cs),
(281,48,o),
(312,86,o),
(312,173,cs),
(312,209,ls)
);
}
);
width = 423;
}
);
note = o;
unicode = 111;
},
{
glyphname = p;
kernRight = b;
layers = (
{
layerId = m01;
shapes = (
{
closed = 1;
nodes = (
(153,374,o),
(193,393,o),
(248,393,cs),
(344,393,o),
(392,333,o),
(392,215,cs),
(392,175,ls),
(392,52,o),
(341,-10,o),
(241,-10,cs),
(190,-10,o),
(151,7,o),
(133,37,c),
(133,-168,ls),
(133,-194,o),
(121,-209,o),
(100,-209,cs),
(79,-209,o),
(67,-194,o),
(67,-168,cs),
(67,360,ls),
(67,380,o),
(77,391,o),
(98,391,cs),
(113,391,o),
(123,383,o),
(127,338,c)
);
},
{
closed = 1;
nodes = (
(137,79,o),
(160,48,o),
(228,48,cs),
(295,48,o),
(325,86,o),
(325,172,cs),
(325,209,ls),
(325,297,o),
(298,335,o),
(236,335,cs),
(166,335,o),
(133,294,o),
(133,209,cs),
(134,174,ls)
);
}
);
width = 436;
}
);
note = p;
unicode = 112;
},
{
glyphname = q;
kernLeft = c;
layers = (
{
layerId = m01;
shapes = (
{
closed = 1;
nodes = (
(277,4,o),
(242,-10,o),
(190,-10,cs),
(91,-10,o),
(44,49,o),
(44,175,cs),
(44,209,ls),
(44,330,o),
(96,393,o),
(195,393,cs),
(248,393,o),
(285,375,o),
(309,339,c),
(313,383,o),
(321,391,o),
(340,391,cs),
(361,391,o),
(369,376,o),
(369,356,cs),
(369,-168,ls),
(369,-194,o),
(357,-209,o),
(336,-209,cs),
(315,-209,o),
(303,-194,o),
(303,-168,cs),
(303,35,l)
);
},
{
closed = 1;
nodes = (
(111,85,o),
(139,48,o),
(205,48,cs),
(273,48,o),
(303,86,o),
(303,173,cs),
(302,209,ls),
(301,255,o),
(296,278,o),
(284,298,cs),
(269,322,o),
(242,335,o),
(206,335,cs),
(140,335,o),
(111,294,o),
(111,203,cs),
(111,172,ls)
);
}
);
width = 436;
}
);
note = q;
unicode = 113;
},
{
glyphname = r;
kernLeft = m;
kernRight = r;
layers = (
{
layerId = m01;
shapes = (
{
closed = 1;
nodes = (
(160,367,o),
(206,386,o),
(262,386,cs),
(279,386,o),
(291,374,o),
(291,357,cs),
(291,334,o),
(278,329,o),
(254,327,cs),
(165,319,o),
(133,282,o),
(133,182,cs),
(133,32,ls),
(133,6,o),
(121,-9,o),
(100,-9,cs),
(79,-9,o),
(67,6,o),
(67,32,cs),
(67,360,ls),
(67,379,o),
(79,391,o),
(97,391,cs),
(114,391,o),
(124,382,o),
(128,331,c)
);
}
);
width = 298;
}
);
note = r;
unicode = 114;
},
{
glyphname = s;
kernLeft = s;
kernRight = s;
layers = (
{
layerId = m01;
shapes = (
{
closed = 1;
nodes = (
(113,-10,o),
(70,5,o),
(41,39,cs),
(30,53,o),
(24,64,o),
(24,75,cs),
(24,90,o),
(37,104,o),
(53,104,cs),
(59,104,o),
(65,101,o),
(71,94,cs),
(99,62,o),
(135,45,o),
(178,45,cs),
(232,45,o),
(259,65,o),
(259,105,cs),
(259,143,o),
(245,155,o),
(167,180,cs),
(87,205,o),
(49,222,o),
(49,284,cs),
(49,354,o),
(97,393,o),
(183,393,cs),
(235,393,o),
(271,378,o),
(293,351,cs),
(298,344,o),
(301,337,o),
(301,329,cs),
(301,314,o),
(288,299,o),
(273,299,cs),
(267,299,o),
(265,301,o),
(255,309,cs),
(230,331,o),
(216,337,o),
(183,337,cs),
(139,337,o),
(115,319,o),
(115,288,cs),
(115,259,o),
(123,253,o),
(209,225,cs),
(296,197,o),
(324,168,o),
(324,106,cs),
(324,29,o),
(274,-10,o),
(176,-10,cs)
);
}
);
width = 361;
}
);
note = s;
unicode = 115;
},
{
glyphname = t;
kernLeft = t;
kernRight = t;
layers = (
{
layerId = m01;
shapes = (
{
closed = 1;
nodes = (
(35,324,ls),
(16,324,o),
(3,336,o),
(3,353,cs),
(3,370,o),
(16,382,o),
(35,382,cs),
(88,382,l),
(92,478,ls),
(93,501,o),
(104,513,o),
(123,513,cs),
(143,513,o),
(154,500,o),
(154,476,cs),
(154,382,l),
(279,382,ls),
(301,382,o),
(314,372,o),
(314,353,cs),
(314,335,o),
(301,324,o),
(279,324,cs),
(154,324,l),
(154,136,ls),
(154,71,o),
(167,50,o),
(208,50,cs),
(227,50,o),
(245,56,o),
(270,68,cs),
(272,69,o),
(275,69,o),
(278,69,cs),
(294,69,o),
(305,56,o),
(305,40,cs),
(305,13,o),
(251,-10,o),
(189,-10,cs),
(149,-10,o),
(122,1,o),
(106,26,cs),
(93,47,o),
(88,82,o),
(88,132,cs),
(88,324,l)
);
}
);
width = 316;
}
);
note = t;
unicode = 116;
},
{
glyphname = u;
kernLeft = u;
layers = (
{
layerId = m01;
shapes = (
{
closed = 1;
nodes = (
(285,2,o),
(250,-10,o),
(200,-10,cs),
(129,-10,o),
(88,15,o),
(72,67,cs),
(66,86,o),
(64,112,o),
(64,154,cs),
(64,351,ls),
(64,376,o),
(76,391,o),
(97,391,cs),
(118,391,o),
(130,376,o),
(130,351,cs),
(130,160,ls),
(130,124,o),
(134,98,o),
(141,84,cs),
(153,59,o),
(176,48,o),
(211,48,cs),
(246,48,o),
(273,58,o),
(288,77,cs),
(301,94,o),
(306,119,o),
(306,166,cs),
(306,351,ls),
(306,376,o),
(318,391,o),
(339,391,cs),
(360,391,o),
(373,376,o),
(373,351,cs),
(373,22,ls),
(373,-2,o),
(359,-9,o),
(339,-9,cs),
(326,-9,o),
(315,-2,o),
(313,30,c)
);
}
);
width = 439;
}
);
note = u;
unicode = 117;
},
{
glyphname = v;
kernLeft = v;
kernRight = v;
layers = (
{
layerId = m01;
shapes = (
{
closed = 1;
nodes = (
(285,363,ls),
(292,382,o),
(302,390,o),
(318,390,cs),
(334,390,o),
(349,377,o),
(349,361,cs),
(349,355,o),
(347,349,o),
(344,341,cs),
(222,24,ls),
(213,1,o),
(202,-8,o),
(184,-8,cs),
(165,-8,o),
(154,2,o),
(145,24,cs),
(25,338,l),
(23,346,o),
(21,353,o),
(21,359,cs),
(21,376,o),
(36,390,o),
(54,390,cs),
(71,390,o),
(81,381,o),
(89,361,cs),
(187,94,l)
);
}
);
width = 371;
}
);
note = v;
unicode = 118;
},
{
glyphname = w;
kernLeft = v;
kernRight = v;
layers = (
{
layerId = m01;
shapes = (
{
closed = 1;
nodes = (
(258,362,ls),
(265,382,o),
(275,391,o),
(292,391,cs),
(308,391,o),
(318,382,o),
(325,361,cs),
(411,100,l),
(493,362,ls),
(499,382,o),
(510,391,o),
(526,391,cs),
(542,391,o),
(557,377,o),
(557,362,cs),
(557,356,o),
(556,349,o),
(553,342,cs),
(447,23,ls),
(440,1,o),
(429,-9,o),
(411,-9,cs),
(393,-9,o),
(382,1,o),
(375,24,cs),
(289,282,l),
(203,24,ls),
(196,1,o),
(185,-9,o),
(167,-9,cs),
(149,-9,o),
(137,1,o),
(130,24,cs),
(27,340,ls),
(24,347,o),
(23,355,o),
(23,360,cs),
(23,377,o),
(38,391,o),
(56,391,cs),
(73,391,o),
(84,381,o),
(90,360,cs),
(171,100,l)
);
}
);
width = 581;
}
);
note = w;
unicode = 119;
},
{
glyphname = x;
kernLeft = x;
kernRight = x;
layers = (
{
layerId = m01;
shapes = (
{
closed = 1;
nodes = (
(58,332,ls),
(51,342,o),
(47,351,o),
(47,358,cs),
(47,375,o),
(61,389,o),
(79,389,cs),
(89,389,o),
(98,384,o),
(107,372,cs),
(205,242,l),
(298,372,ls),
(307,385,o),
(315,390,o),
(326,390,cs),
(341,390,o),
(355,376,o),
(355,361,cs),
(355,354,o),
(351,346,o),
(345,337,cs),
(241,197,l),
(351,50,ls),
(358,41,o),
(362,32,o),
(362,25,cs),
(362,8,o),
(348,-7,o),
(330,-7,cs),
(320,-7,o),
(311,-2,o),
(302,11,cs),
(192,156,l),
(83,10,ls),
(74,-2,o),
(67,-7,o),
(57,-7,cs),
(41,-7,o),
(27,6,o),
(27,22,cs),
(27,28,o),
(31,37,o),
(37,46,cs),
(155,202,l)
);
}
);
width = 395;
}
);
note = x;
unicode = 120;
},
{
glyphname = y;
kernLeft = v;
kernRight = v;
layers = (
{
layerId = m01;
shapes = (
{
closed = 1;
nodes = (
(25,340,ls),
(23,347,o),
(21,354,o),
(21,360,cs),
(21,376,o),
(36,390,o),
(54,390,cs),
(70,390,o),
(81,381,o),
(88,361,cs),
(188,80,l),
(283,362,ls),
(290,382,o),
(300,391,o),
(316,391,cs),
(333,391,o),
(348,377,o),
(348,361,cs),
(348,355,o),
(346,348,o),
(343,341,cs),
(190,-74,ls),
(170,-127,o),
(157,-150,o),
(135,-170,cs),
(118,-187,o),
(89,-200,o),
(71,-200,cs),
(56,-200,o),
(47,-189,o),
(47,-173,cs),
(47,-158,o),
(52,-151,o),
(69,-144,cs),
(96,-132,o),
(114,-107,o),
(132,-55,cs),
(152,1,l)
);
}
);
width = 369;
}
);
note = y;
unicode = 121;
},
{
glyphname = z;
kernLeft = z;
kernRight = z;
layers = (
{
layerId = m01;
shapes = (
{
closed = 1;
nodes = (
(294,58,ls),
(316,58,o),
(329,48,o),
(329,29,cs),
(329,11,o),
(316,0,o),
(294,0,cs),
(48,0,ls),
(28,0,o),
(13,9,o),
(13,29,cs),
(13,37,o),
(16,43,o),
(24,54,cs),
(221,324,l),
(72,324,ls),
(50,324,o),
(36,335,o),
(36,353,cs),
(36,371,o),
(50,382,o),
(72,382,cs),
(273,382,ls),
(293,382,o),
(308,374,o),
(308,353,cs),
(308,345,o),
(305,339,o),
(297,328,cs),
(101,58,l)
);
}
);
width = 345;
}
);
note = z;
unicode = 122;
},
{
glyphname = braceleft;
layers = (
{
layerId = m01;
shapes = (
{
closed = 1;
nodes = (
(180,265,o),
(187,242,o),
(187,153,cs),
(187,17,ls),
(187,-80,o),
(200,-104,o),
(253,-105,cs),
(276,-106,o),
(286,-115,o),
(286,-129,cs),
(286,-144,o),
(275,-153,o),
(257,-153,cs),
(242,-153,ls),
(132,-153,o),
(121,-109,o),
(121,24,cs),
(121,164,ls),
(121,243,o),
(109,263,o),
(63,265,cs),
(52,266,o),
(44,274,o),
(44,285,cs),
(44,296,o),
(51,303,o),
(65,303,cs),
(109,305,o),
(121,327,o),
(121,405,cs),
(121,471,ls),
(121,604,o),
(132,648,o),
(257,648,cs),
(275,648,o),
(286,639,o),
(286,624,cs),
(286,610,o),
(276,601,o),
(260,601,cs),
(200,599,o),
(187,575,o),
(187,478,cs),
(187,416,ls),
(187,326,o),
(180,304,o),
(143,284,c)
);
}
);
width = 311;
}
);
note = braceleft;
unicode = 123;
},
{
glyphname = bar;
layers = (
{
layerId = m01;
shapes = (
{
closed = 1;
nodes = (
(107,563,ls),
(107,590,o),
(120,605,o),
(141,605,cs),
(163,605,o),
(175,590,o),
(175,563,cs),
(175,-136,ls),
(175,-163,o),
(163,-178,o),
(141,-178,cs),
(120,-178,o),
(107,-163,o),
(107,-136,cs)
);
}
);
width = 283;
}
);
note = bar;
unicode = 124;
},
{
glyphname = braceright;
layers = (
{
layerId = m01;
shapes = (
{
closed = 1;
nodes = (
(150,265,o),
(143,242,o),
(143,153,cs),
(143,17,ls),
(143,-80,o),
(129,-104,o),
(77,-105,cs),
(54,-106,o),
(44,-115,o),
(44,-129,cs),
(44,-144,o),
(55,-153,o),
(73,-153,cs),
(88,-153,ls),
(197,-153,o),
(209,-109,o),
(209,24,cs),
(209,164,ls),
(209,243,o),
(220,263,o),
(267,265,cs),
(278,266,o),
(286,274,o),
(286,285,cs),
(286,296,o),
(278,303,o),
(265,303,cs),
(221,305,o),
(209,327,o),
(209,405,cs),
(209,471,ls),
(209,604,o),
(197,648,o),
(73,648,cs),
(55,648,o),
(44,639,o),
(44,624,cs),
(44,610,o),
(54,601,o),
(70,601,cs),
(129,599,o),
(143,575,o),
(143,478,cs),
(143,416,ls),
(143,326,o),
(150,304,o),
(186,284,c)
);
}
);
width = 311;
}
);
note = braceright;
unicode = 125;
},
{
glyphname = asciitilde;
layers = (
{
layerId = m01;
shapes = (
{
closed = 1;
nodes = (
(415,336,o),
(411,321,o),
(403,302,cs),
(383,254,o),
(356,235,o),
(310,235,cs),
(276,235,o),
(257,244,o),
(219,277,cs),
(195,299,o),
(184,305,o),
(168,305,cs),
(145,305,o),
(131,289,o),
(117,249,cs),
(113,238,o),
(104,232,o),
(93,232,cs),
(78,232,o),
(64,243,o),
(64,258,cs),
(64,266,o),
(69,281,o),
(77,300,cs),
(97,348,o),
(122,366,o),
(169,366,cs),
(203,366,o),
(223,357,o),
(260,324,cs),
(282,304,o),
(295,297,o),
(313,297,cs),
(334,297,o),
(349,313,o),
(363,352,cs),
(367,363,o),
(376,370,o),
(387,370,cs),
(401,370,o),
(415,358,o),
(415,343,cs)
);
}
);
width = 480;
}
);
note = asciitilde;
unicode = 126;
},
{
glyphname = exclamdown;
layers = (
{
layerId = m01;
shapes = (
{
closed = 1;
nodes = (
(125,236,o),
(136,249,o),
(154,249,cs),
(173,249,o),
(184,236,o),
(184,213,cs),
(191,-164,ls),
(191,-189,o),
(179,-208,o),
(154,-208,cs),
(131,-208,o),
(117,-191,o),
(118,-164,cs),
(124,213,ls)
);
},
{
closed = 1;
nodes = (
(128,316,o),
(111,335,o),
(111,367,cs),
(111,399,o),
(128,419,o),
(154,419,cs),
(181,419,o),
(198,399,o),
(198,367,cs),
(198,335,o),
(181,316,o),
(154,316,cs)
);
}
);
width = 308;
}
);
note = exclamdown;
unicode = 161;
},
{
glyphname = cent;
layers = (
{
layerId = m01;
shapes = (
{
closed = 1;
nodes = (
(283,658,ls),
(285,674,o),
(293,682,o),
(305,682,cs),
(318,682,o),
(326,673,o),
(326,659,cs),
(326,657,o),
(326,654,o),
(326,652,cs),
(239,15,ls),
(237,-1,o),
(229,-9,o),
(217,-9,cs),
(204,-9,o),
(195,0,o),
(195,14,cs),
(195,16,o),
(195,18,o),
(196,21,c)
);
},
{
closed = 1;
nodes = (
(127,150,o),
(86,235,o),
(86,360,cs),
(86,503,o),
(143,570,o),
(263,570,cs),
(307,570,o),
(342,560,o),
(370,541,cs),
(382,532,o),
(388,524,o),
(388,512,cs),
(388,497,o),
(375,483,o),
(359,483,cs),
(353,483,o),
(350,485,o),
(343,490,cs),
(321,506,o),
(298,514,o),
(270,514,cs),
(177,514,o),
(153,442,o),
(153,362,cs),
(153,278,o),
(177,208,o),
(273,208,cs),
(305,208,o),
(327,215,o),
(358,234,cs),
(362,236,o),
(366,237,o),
(371,237,cs),
(386,237,o),
(400,223,o),
(400,208,cs),
(400,170,o),
(319,150,o),
(266,150,cs)
);
}
);
width = 480;
}
);
note = cent;
unicode = 162;
},
{
glyphname = sterling;
layers = (
{
layerId = m01;
shapes = (
{
closed = 1;
nodes = (
(135,291,l),
(87,291,ls),
(68,291,o),
(55,303,o),
(55,320,cs),
(55,337,o),
(68,349,o),
(87,349,cs),
(135,349,l),
(135,418,ls),
(135,498,o),
(142,535,o),
(165,562,cs),
(190,591,o),
(231,606,o),
(286,606,cs),
(341,606,o),
(382,593,o),
(414,566,cs),
(423,557,o),
(427,550,o),
(427,540,cs),
(427,524,o),
(413,509,o),
(398,509,cs),
(393,509,o),
(386,512,o),
(374,520,cs),
(348,538,o),
(324,547,o),
(293,547,cs),
(225,547,o),
(203,516,o),
(203,418,cs),
(203,349,l),
(293,349,ls),
(315,349,o),
(328,338,o),
(328,320,cs),
(328,302,o),
(315,291,o),
(293,291,cs),
(203,291,l),
(203,58,l),
(401,58,ls),
(424,58,o),
(437,48,o),
(437,29,cs),
(437,11,o),
(424,0,o),
(401,0,cs),
(91,0,ls),
(68,0,o),
(55,11,o),
(55,29,cs),
(55,47,o),
(68,58,o),
(88,58,cs),
(135,58,l)
);
}
);
width = 480;
}
);
note = sterling;
unicode = 163;
},
{
glyphname = currency;
layers = (
{
layerId = m01;
shapes = (
{
closed = 1;
nodes = (
(355,472,o),
(410,409,o),
(410,286,cs),
(410,164,o),
(355,101,o),
(240,101,cs),
(125,101,o),
(69,164,o),
(69,286,cs),
(69,408,o),
(125,472,o),
(240,472,cs)
);
},
{
closed = 1;
nodes = (
(167,415,o),
(132,374,o),
(132,286,cs),
(132,199,o),
(167,158,o),
(240,158,cs),
(313,158,o),
(347,199,o),
(347,287,cs),
(347,374,o),
(313,415,o),
(240,415,cs)
);
},
{
closed = 1;
nodes = (
(120,382,l),
(42,444,ls),
(33,451,o),
(29,459,o),
(29,467,cs),
(29,482,o),
(42,495,o),
(57,495,cs),
(64,495,o),
(72,491,o),
(81,484,cs),
(156,423,l)
);
},
{
closed = 1;
nodes = (
(324,423,l),
(401,486,ls),
(408,492,o),
(416,495,o),
(423,495,cs),
(438,495,o),
(451,482,o),
(451,467,cs),
(451,458,o),
(446,451,o),
(436,443,cs),
(360,382,l)
);
},
{
closed = 1;
nodes = (
(156,151,l),
(78,88,ls),
(71,82,o),
(64,79,o),
(57,79,cs),
(42,79,o),
(29,92,o),
(29,107,cs),
(29,116,o),
(33,123,o),
(43,131,cs),
(120,192,l)
);
},
{
closed = 1;
nodes = (
(360,192,l),
(438,130,ls),
(447,123,o),
(451,115,o),
(451,107,cs),
(451,92,o),
(438,79,o),
(423,79,cs),
(416,79,o),
(408,83,o),
(399,90,cs),
(324,151,l)
);
}
);
width = 480;
}
);
note = currency;
unicode = 164;
},
{
glyphname = yen;
layers = (
{
layerId = m01;
shapes = (
{
closed = 1;
nodes = (
(392,172,ls),
(410,172,o),
(420,163,o),
(420,149,cs),
(420,135,o),
(410,126,o),
(392,126,cs),
(89,126,ls),
(72,126,o),
(62,135,o),
(62,149,cs),
(62,163,o),
(72,172,o),
(89,172,cs)
);
},
{
closed = 1;
nodes = (
(392,279,ls),
(410,279,o),
(420,271,o),
(420,256,cs),
(420,242,o),
(410,234,o),
(392,234,cs),
(89,234,ls),
(72,234,o),
(62,242,o),
(62,256,cs),
(62,271,o),
(72,279,o),
(89,279,cs)
);
},
{
closed = 1;
nodes = (
(56,548,ls),
(51,557,o),
(49,566,o),
(49,573,cs),
(49,589,o),
(65,604,o),
(83,604,cs),
(99,604,o),
(109,596,o),
(118,577,cs),
(242,311,l),
(367,578,ls),
(375,596,o),
(385,604,o),
(400,604,cs),
(417,604,o),
(433,589,o),
(433,574,cs),
(433,567,o),
(431,559,o),
(427,550,cs),
(275,233,l),
(275,33,ls),
(275,7,o),
(262,-9,o),
(240,-9,cs),
(219,-9,o),
(206,7,o),
(206,33,cs),
(206,233,l)
);
}
);
width = 480;
}
);
note = yen;
unicode = 165;
},
{
glyphname = brokenbar;
layers = (
{
layerId = m01;
shapes = (
{
closed = 1;
nodes = (
(107,219,o),
(120,235,o),
(141,235,cs),
(163,235,o),
(175,219,o),
(175,193,cs),
(175,33,ls),
(175,6,o),
(163,-9,o),
(141,-9,cs),
(120,-9,o),
(107,6,o),
(107,33,cs),
(107,193,ls)
);
},
{
closed = 1;
nodes = (
(107,590,o),
(120,605,o),
(141,605,cs),
(163,605,o),
(175,590,o),
(175,563,cs),
(175,408,ls),
(175,382,o),
(163,366,o),
(141,366,cs),
(120,366,o),
(107,382,o),
(107,408,cs),
(107,563,ls)
);
}
);
width = 283;
}
);
note = brokenbar;
unicode = 166;
},
{
glyphname = section;
layers = (
{
layerId = m01;
shapes = (
{
closed = 1;
nodes = (
(272,153,l),
(327,188,o),
(342,207,o),
(342,248,cs),
(342,297,o),
(308,310,o),
(238,336,cs),
(133,374,o),
(107,401,o),
(107,473,cs),
(107,565,o),
(158,614,o),
(255,614,cs),
(290,614,o),
(336,606,o),
(360,590,cs),
(369,583,o),
(375,575,o),
(376,565,cs),
(376,549,o),
(365,533,o),
(348,533,cs),
(342,533,o),
(341,533,o),
(328,540,cs),
(306,551,o),
(281,557,o),
(255,557,cs),
(204,557,o),
(174,528,o),
(174,478,cs),
(174,435,o),
(189,420,o),
(264,394,cs),
(349,365,o),
(404,344,o),
(404,263,cs),
(404,200,o),
(384,172,o),
(309,126,c)
);
},
{
closed = 1;
nodes = (
(210,364,l),
(153,330,o),
(138,310,o),
(138,269,cs),
(138,220,o),
(174,207,o),
(248,182,cs),
(360,143,o),
(387,117,o),
(387,44,cs),
(387,-48,o),
(333,-96,o),
(228,-96,cs),
(186,-96,o),
(143,-88,o),
(117,-76,cs),
(102,-69,o),
(93,-57,o),
(93,-43,cs),
(94,-28,o),
(106,-15,o),
(122,-15,cs),
(127,-15,o),
(130,-16,o),
(145,-23,cs),
(169,-33,o),
(199,-40,o),
(228,-40,cs),
(286,-40,o),
(320,-11,o),
(320,39,cs),
(320,93,o),
(282,105,o),
(225,124,cs),
(137,152,o),
(75,172,o),
(75,255,cs),
(75,316,o),
(96,345,o),
(172,390,c)
);
}
);
width = 474;
}
);
note = section;
unicode = 167;
},
{
glyphname = dieresis;
layers = (
{
layerId = m01;
shapes = (
{
closed = 1;
nodes = (
(119,560,o),
(133,542,o),
(133,513,cs),
(133,484,o),
(119,466,o),
(95,466,cs),
(70,466,o),
(56,484,o),
(56,513,cs),
(56,542,o),
(71,560,o),
(95,560,cs)
);
},
{
closed = 1;
nodes = (
(263,560,o),
(278,542,o),
(278,513,cs),
(278,484,o),
(263,466,o),
(239,466,cs),
(215,466,o),
(201,484,o),
(201,513,cs),
(201,542,o),
(215,560,o),
(239,560,cs)
);
}
);
width = 333;
}
);
note = dieresis;
unicode = 168;
},
{
glyphname = copyright;
layers = (
{
layerId = m01;
shapes = (
{
closed = 1;
nodes = (
(260,406,o),
(304,451,o),
(389,451,cs),
(426,451,o),
(453,441,o),
(473,422,cs),
(478,417,o),
(481,411,o),
(481,405,cs),
(481,393,o),
(471,380,o),
(458,380,cs),
(454,380,o),
(452,381,o),
(445,386,cs),
(422,402,o),
(415,404,o),
(393,404,cs),
(341,404,o),
(317,377,o),
(317,317,cs),
(317,287,ls),
(317,228,o),
(341,200,o),
(392,200,cs),
(417,200,o),
(423,202,o),
(455,221,cs),
(459,223,o),
(463,224,o),
(466,224,cs),
(479,224,o),
(489,212,o),
(489,199,cs),
(489,191,o),
(484,184,o),
(476,178,cs),
(449,161,o),
(423,154,o),
(386,154,cs),
(304,154,o),
(260,198,o),
(260,283,cs),
(260,321,ls)
);
},
{
closed = 1;
nodes = (
(573,613,o),
(694,494,o),
(694,299,cs),
(694,104,o),
(573,-15,o),
(374,-15,cs),
(175,-15,o),
(54,104,o),
(54,299,cs),
(54,494,o),
(177,613,o),
(374,613,cs)
);
},
{
closed = 1;
nodes = (
(205,571,o),
(103,467,o),
(103,299,cs),
(103,131,o),
(205,26,o),
(374,26,cs),
(543,26,o),
(645,131,o),
(645,299,cs),
(645,466,o),
(543,571,o),
(374,571,cs)
);
}
);
width = 748;
}
);
note = copyright;
unicode = 169;
},
{
glyphname = ordfeminine;
layers = (
{
layerId = m01;
shapes = (
{
closed = 1;
nodes = (
(219,506,ls),
(219,551,o),
(205,566,o),
(165,566,cs),
(137,566,o),
(112,558,o),
(91,544,cs),
(86,540,o),
(83,539,o),
(79,539,cs),
(68,539,o),
(59,548,o),
(59,559,cs),
(59,567,o),
(64,573,o),
(76,581,cs),
(100,596,o),
(134,605,o),
(168,605,cs),
(209,605,o),
(238,595,o),
(255,576,cs),
(268,561,o),
(272,542,o),
(272,487,cs),
(272,352,ls),
(272,332,o),
(264,324,o),
(245,324,cs),
(233,324,o),
(227,329,o),
(225,355,c),
(204,335,o),
(175,326,o),
(133,326,cs),
(71,326,o),
(40,352,o),
(40,406,cs),
(40,472,o),
(81,498,o),
(185,498,cs),
(193,498,o),
(201,498,o),
(219,497,c)
);
},
{
closed = 1;
nodes = (
(201,465,o),
(200,465,o),
(186,465,cs),
(116,465,o),
(90,448,o),
(90,405,cs),
(90,376,o),
(107,362,o),
(143,362,cs),
(187,362,o),
(219,383,o),
(219,411,cs),
(219,464,l)
);
}
);
width = 331;
}
);
note = ordfeminine;
unicode = 170;
},
{
glyphname = guillemotleft;
layers = (
{
layerId = m01;
shapes = (
{
closed = 1;
nodes = (
(317,116,ls),
(320,110,o),
(322,104,o),
(322,99,cs),
(322,88,o),
(311,77,o),
(299,77,cs),
(291,77,o),
(285,81,o),
(278,90,cs),
(193,201,ls),
(183,214,o),
(181,219,o),
(181,229,cs),
(181,239,o),
(183,244,o),
(193,257,cs),
(278,366,ls),
(285,376,o),
(291,380,o),
(299,380,cs),
(311,380,o),
(322,369,o),
(322,358,cs),
(322,353,o),
(320,347,o),
(317,340,c),
(255,228,l)
);
},
{
closed = 1;
nodes = (
(178,116,ls),
(182,110,o),
(183,104,o),
(183,99,cs),
(183,88,o),
(172,77,o),
(160,77,cs),
(152,77,o),
(147,81,o),
(139,90,cs),
(54,201,ls),
(44,214,o),
(42,219,o),
(42,229,cs),
(42,239,o),
(44,244,o),
(54,257,cs),
(139,366,ls),
(147,376,o),
(152,380,o),
(160,380,cs),
(172,380,o),
(183,369,o),
(183,358,cs),
(183,353,o),
(182,347,o),
(178,340,cs),
(116,228,l)
);
}
);
width = 356;
}
);
note = guillemotleft;
unicode = 171;
},
{
glyphname = logicalnot;
layers = (
{
layerId = m01;
shapes = (
{
closed = 1;
nodes = (
(88,270,ls),
(66,270,o),
(53,281,o),
(53,299,cs),
(53,317,o),
(66,328,o),
(88,328,cs),
(354,328,ls),
(385,328,o),
(395,309,o),
(395,281,cs),
(395,122,ls),
(395,97,o),
(383,82,o),
(362,82,cs),
(341,82,o),
(329,97,o),
(329,122,cs),
(329,270,l)
);
}
);
width = 480;
}
);
note = logicalnot;
unicode = 172;
},
{
glyphname = uni00AD;
layers = (
{
layerId = m01;
shapes = (
{
closed = 1;
nodes = (
(223,305,ls),
(247,305,o),
(262,293,o),
(262,273,cs),
(262,253,o),
(247,241,o),
(223,241,cs),
(64,241,ls),
(39,241,o),
(25,253,o),
(25,273,cs),
(25,293,o),
(39,305,o),
(64,305,cs)
);
}
);
width = 287;
}
);
note = uni00AD;
unicode = 173;
},
{
glyphname = registered;
layers = (
{
layerId = m01;
shapes = (
{
closed = 1;
nodes = (
(329,451,o),
(330,448,o),
(340,426,cs),
(363,374,l),
(366,369,o),
(367,364,o),
(367,360,cs),
(367,351,o),
(358,343,o),
(347,343,cs),
(339,343,o),
(333,347,o),
(329,358,cs),
(302,424,ls),
(293,447,o),
(285,454,o),
(266,454,cs),
(242,454,l),
(242,366,ls),
(242,351,o),
(234,342,o),
(221,342,cs),
(209,342,o),
(201,351,o),
(201,366,cs),
(201,561,ls),
(201,590,o),
(212,596,o),
(239,596,cs),
(284,596,ls),
(343,596,o),
(365,575,o),
(365,525,cs),
(365,486,o),
(353,469,o),
(320,460,c)
);
},
{
closed = 1;
nodes = (
(278,482,ls),
(312,482,o),
(323,491,o),
(323,524,cs),
(323,556,o),
(313,566,o),
(278,566,cs),
(242,566,l),
(242,482,l)
);
},
{
closed = 1;
nodes = (
(419,716,o),
(512,622,o),
(512,474,cs),
(512,326,o),
(419,231,o),
(274,231,cs),
(130,231,o),
(37,326,o),
(37,474,cs),
(37,622,o),
(130,716,o),
(274,716,cs)
);
},
{
closed = 1;
nodes = (
(155,679,o),
(80,600,o),
(80,474,cs),
(80,348,o),
(155,269,o),
(274,269,cs),
(394,269,o),
(468,348,o),
(468,474,cs),
(468,600,o),
(394,679,o),
(274,679,cs)
);
}
);
width = 549;
}
);
note = registered;
unicode = 174;
},
{
glyphname = macron;
layers = (
{
layerId = m01;
shapes = (
{
closed = 1;
nodes = (
(256,542,ls),
(278,542,o),
(290,532,o),
(290,514,cs),
(290,496,o),
(278,486,o),
(256,486,cs),
(77,486,ls),
(56,486,o),
(43,496,o),
(43,514,cs),
(43,532,o),
(56,542,o),
(77,542,cs)
);
}
);
width = 333;
}
);
note = macron;
unicode = 175;
},
{
glyphname = degree;
layers = (
{
layerId = m01;
shapes = (
{
closed = 1;
nodes = (
(200,635,o),
(244,592,o),
(244,523,cs),
(244,455,o),
(200,412,o),
(129,412,cs),
(59,412,o),
(14,455,o),
(14,523,cs),
(14,592,o),
(59,635,o),
(130,635,cs)
);
},
{
closed = 1;
nodes = (
(92,588,o),
(68,562,o),
(68,524,cs),
(68,484,o),
(92,459,o),
(129,459,cs),
(166,459,o),
(190,485,o),
(190,523,cs),
(190,562,o),
(166,588,o),
(129,588,cs)
);
}
);
width = 258;
}
);
note = degree;
unicode = 176;
},
{
glyphname = plusminus;
layers = (
{
layerId = m01;
shapes = (
{
closed = 1;
nodes = (
(392,57,ls),
(414,57,o),
(427,47,o),
(427,29,cs),
(427,11,o),
(414,0,o),
(392,0,cs),
(89,0,ls),
(67,0,o),
(54,11,o),
(54,29,cs),
(54,47,o),
(67,57,o),
(89,57,cs)
);
},
{
closed = 1;
nodes = (
(207,441,ls),
(207,465,o),
(219,479,o),
(239,479,cs),
(259,479,o),
(271,465,o),
(271,441,cs),
(271,332,l),
(396,332,ls),
(419,332,o),
(431,322,o),
(431,304,cs),
(431,285,o),
(419,275,o),
(396,275,cs),
(271,275,l),
(271,169,ls),
(271,144,o),
(259,130,o),
(239,130,cs),
(219,130,o),
(207,144,o),
(207,169,cs),
(207,275,l),
(83,275,ls),
(61,275,o),
(48,285,o),
(48,304,cs),
(48,322,o),
(61,332,o),
(83,332,cs),
(207,332,l)
);
}
);
width = 480;
}
);
note = plusminus;
unicode = 177;
},
{
glyphname = twosuperior;
layers = (
{
layerId = m01;
shapes = (
{
closed = 1;
nodes = (
(244,379,ls),
(260,379,o),
(269,372,o),
(269,359,cs),
(269,346,o),
(260,338,o),
(244,338,cs),
(55,338,ls),
(39,338,o),
(30,346,o),
(30,359,cs),
(30,368,o),
(32,371,o),
(78,422,cs),
(172,527,o),
(201,569,o),
(201,611,cs),
(201,644,o),
(181,662,o),
(146,662,cs),
(121,662,o),
(102,655,o),
(74,636,c),
(68,633,o),
(64,631,o),
(60,631,cs),
(48,631,o),
(37,641,o),
(37,654,cs),
(37,662,o),
(41,668,o),
(50,674,cs),
(82,694,o),
(111,702,o),
(151,702,cs),
(219,702,o),
(253,674,o),
(253,617,cs),
(253,552,o),
(215,506,o),
(104,379,c)
);
}
);
width = 302;
}
);
note = twosuperior;
unicode = 178;
},
{
glyphname = threesuperior;
layers = (
{
layerId = m01;
shapes = (
{
closed = 1;
nodes = (
(243,521,o),
(260,494,o),
(260,442,cs),
(260,366,o),
(221,332,o),
(130,332,cs),
(95,332,o),
(60,339,o),
(42,349,cs),
(32,355,o),
(26,363,o),
(26,372,cs),
(26,385,o),
(36,395,o),
(48,395,cs),
(53,395,o),
(55,394,o),
(63,390,cs),
(83,378,o),
(103,372,o),
(130,372,cs),
(181,372,o),
(208,396,o),
(208,443,cs),
(208,487,o),
(182,508,o),
(128,508,cs),
(106,508,ls),
(91,508,o),
(82,515,o),
(82,528,cs),
(82,540,o),
(91,548,o),
(105,548,cs),
(122,548,ls),
(167,548,o),
(194,570,o),
(194,607,cs),
(194,642,o),
(174,662,o),
(136,662,cs),
(115,662,o),
(94,656,o),
(75,645,cs),
(63,638,o),
(62,637,o),
(56,637,cs),
(45,637,o),
(34,647,o),
(34,659,cs),
(34,666,o),
(38,672,o),
(45,677,cs),
(73,696,o),
(100,703,o),
(141,703,cs),
(213,703,o),
(246,674,o),
(246,612,cs),
(246,573,o),
(233,551,o),
(202,534,c)
);
}
);
width = 301;
}
);
note = threesuperior;
unicode = 179;
},
{
glyphname = acute;
layers = (
{
layerId = m01;
shapes = (
{
closed = 1;
nodes = (
(248,553,o),
(245,546,o),
(239,539,cs),
(181,471,ls),
(168,456,o),
(162,453,o),
(147,453,cs),
(131,453,o),
(122,461,o),
(122,471,cs),
(122,475,o),
(124,480,o),
(127,485,cs),
(166,556,ls),
(177,575,o),
(186,581,o),
(205,581,cs),
(238,581,o),
(248,571,o),
(248,558,cs)
);
}
);
width = 333;
}
);
note = acute;
unicode = 180;
},
{
glyphname = paragraph;
layers = (
{
layerId = m01;
shapes = (
{
closed = 1;
nodes = (
(191,289,ls),
(127,289,o),
(91,297,o),
(66,317,cs),
(35,341,o),
(17,386,o),
(17,440,cs),
(17,496,o),
(35,542,o),
(66,566,cs),
(95,589,o),
(132,596,o),
(214,596,cs),
(369,596,ls),
(400,596,o),
(410,577,o),
(410,550,cs),
(410,-133,ls),
(410,-157,o),
(399,-171,o),
(380,-171,cs),
(360,-171,o),
(349,-157,o),
(349,-133,cs),
(349,536,l),
(263,536,l),
(263,-133,ls),
(263,-157,o),
(252,-171,o),
(233,-171,cs),
(213,-171,o),
(202,-157,o),
(202,-133,cs),
(202,289,l)
);
}
);
width = 494;
}
);
note = paragraph;
unicode = 182;
},
{
glyphname = periodcentered;
layers = (
{
layerId = m01;
shapes = (
{
closed = 1;
nodes = (
(121,325,o),
(138,305,o),
(138,273,cs),
(138,241,o),
(121,222,o),
(94,222,cs),
(68,222,o),
(51,241,o),
(51,273,cs),
(51,305,o),
(68,325,o),
(94,325,cs)
);
}
);
width = 188;
}
);
note = periodcentered;
unicode = 183;
},
{
glyphname = cedilla;
layers = (
{
layerId = m01;
shapes = (
{
closed = 1;
nodes = (
(207,13,l),
(177,-37,l),
(239,-53,o),
(260,-73,o),
(260,-119,cs),
(260,-171,o),
(228,-197,o),
(164,-197,cs),
(136,-197,o),
(106,-192,o),
(93,-185,cs),
(86,-182,o),
(82,-175,o),
(82,-168,cs),
(82,-156,o),
(89,-145,o),
(101,-145,cs),
(105,-145,o),
(106,-145,o),
(111,-147,cs),
(123,-150,o),
(139,-153,o),
(152,-153,cs),
(184,-153,o),
(202,-139,o),
(202,-116,cs),
(202,-89,o),
(185,-79,o),
(124,-70,cs),
(117,-69,o),
(113,-65,o),
(113,-59,c),
(114,-57,o),
(114,-56,o),
(116,-52,cs),
(154,13,l)
);
}
);
width = 333;
}
);
note = cedilla;
unicode = 184;
},
{
glyphname = onesuperior;
layers = (
{
layerId = m01;
shapes = (
{
closed = 1;
nodes = (
(47,630,ls),
(41,628,o),
(36,627,o),
(32,627,cs),
(22,627,o),
(13,636,o),
(13,648,cs),
(13,658,o),
(18,664,o),
(31,669,cs),
(94,692,ls),
(102,695,o),
(113,698,o),
(121,698,cs),
(144,699,o),
(150,687,o),
(150,652,cs),
(150,361,ls),
(150,341,o),
(140,329,o),
(124,329,cs),
(107,329,o),
(98,341,o),
(98,361,cs),
(98,648,l)
);
}
);
width = 223;
}
);
note = onesuperior;
unicode = 185;
},
{
glyphname = ordmasculine;
layers = (
{
layerId = m01;
shapes = (
{
closed = 1;
nodes = (
(44,565,o),
(84,605,o),
(168,605,cs),
(250,605,o),
(290,565,o),
(290,483,cs),
(290,447,ls),
(290,365,o),
(250,326,o),
(167,326,cs),
(84,326,o),
(44,365,o),
(44,447,cs),
(44,483,ls)
);
},
{
closed = 1;
nodes = (
(98,391,o),
(117,369,o),
(167,369,cs),
(216,369,o),
(238,394,o),
(238,451,cs),
(238,479,ls),
(238,536,o),
(216,562,o),
(167,562,cs),
(118,562,o),
(96,536,o),
(96,479,cs),
(97,451,ls)
);
}
);
width = 331;
}
);
note = ordmasculine;
unicode = 186;
},
{
glyphname = guillemotright;
layers = (
{
layerId = m01;
shapes = (
{
closed = 1;
nodes = (
(40,340,ls),
(36,347,o),
(34,353,o),
(34,358,cs),
(34,369,o),
(45,380,o),
(57,380,cs),
(65,380,o),
(71,376,o),
(78,366,cs),
(163,255,ls),
(173,243,o),
(175,238,o),
(175,228,cs),
(175,218,o),
(173,213,o),
(163,200,cs),
(78,90,ls),
(71,81,o),
(65,77,o),
(57,77,cs),
(45,77,o),
(34,88,o),
(34,99,cs),
(34,104,o),
(36,110,o),
(40,116,cs),
(101,228,l)
);
},
{
closed = 1;
nodes = (
(178,340,l),
(175,347,o),
(173,353,o),
(173,358,cs),
(173,369,o),
(184,380,o),
(196,380,cs),
(204,380,o),
(210,376,o),
(217,366,cs),
(302,255,ls),
(312,243,o),
(314,238,o),
(314,228,cs),
(314,218,o),
(312,213,o),
(302,200,cs),
(217,90,ls),
(210,81,o),
(204,77,o),
(196,77,cs),
(184,77,o),
(173,88,o),
(173,99,cs),
(173,104,o),
(175,110,o),
(178,116,cs),
(240,228,l)
);
}
);
width = 356;
}
);
note = guillemotright;
unicode = 187;
},
{
glyphname = onequarter;
layers = (
{
layerId = m01;
shapes = (
{
closed = 1;
nodes = (
(88,530,ls),
(82,528,o),
(77,527,o),
(73,527,cs),
(63,527,o),
(54,536,o),
(54,548,cs),
(54,558,o),
(59,564,o),
(72,569,cs),
(135,592,ls),
(143,595,o),
(154,598,o),
(162,598,cs),
(185,599,o),
(191,587,o),
(191,552,cs),
(191,261,ls),
(191,241,o),
(181,229,o),
(165,229,cs),
(148,229,o),
(139,241,o),
(139,261,cs),
(139,548,l)
);
},
{
closed = 1;
nodes = (
(446,584,ls),
(453,598,o),
(460,604,o),
(472,604,cs),
(486,604,o),
(498,592,o),
(498,580,cs),
(498,575,o),
(497,568,o),
(493,562,c),
(241,12,ls),
(234,-2,o),
(227,-8,o),
(215,-8,cs),
(201,-8,o),
(189,4,o),
(189,16,cs),
(189,21,o),
(190,28,o),
(194,35,cs)
);
},
{
closed = 1;
nodes = (
(629,20,ls),
(629,2,o),
(620,-9,o),
(605,-9,cs),
(589,-9,o),
(580,2,o),
(580,20,cs),
(580,85,l),
(438,85,ls),
(421,85,o),
(412,92,o),
(412,107,cs),
(412,111,o),
(413,115,o),
(418,122,cs),
(565,347,ls),
(575,362,o),
(583,368,o),
(596,368,cs),
(619,368,o),
(629,351,o),
(629,328,cs),
(629,126,l),
(672,126,ls),
(688,126,o),
(697,118,o),
(697,105,cs),
(697,92,o),
(688,85,o),
(672,85,cs),
(629,85,l)
);
},
{
closed = 1;
nodes = (
(580,300,l),
(465,125,l),
(580,125,l)
);
}
);
width = 723;
}
);
note = onequarter;
unicode = 188;
},
{
glyphname = onehalf;
layers = (
{
layerId = m01;
shapes = (
{
closed = 1;
nodes = (
(85,530,ls),
(79,528,o),
(74,527,o),
(70,527,cs),
(60,527,o),
(51,536,o),
(51,548,cs),
(51,558,o),
(56,564,o),
(69,569,cs),
(132,592,ls),
(140,595,o),
(151,598,o),
(159,598,cs),
(182,599,o),
(188,587,o),
(188,552,cs),
(188,261,ls),
(188,241,o),
(178,229,o),
(162,229,cs),
(145,229,o),
(136,241,o),
(136,261,cs),
(136,548,l)
);
},
{
closed = 1;
nodes = (
(439,584,ls),
(445,598,o),
(453,604,o),
(465,604,cs),
(479,604,o),
(491,592,o),
(491,580,cs),
(491,575,o),
(489,568,o),
(486,562,cs),
(233,12,ls),
(227,-2,o),
(219,-8,o),
(208,-8,cs),
(194,-8,o),
(181,4,o),
(181,16,cs),
(181,21,o),
(183,28,o),
(186,35,cs)
);
},
{
closed = 1;
nodes = (
(659,41,ls),
(674,41,o),
(683,34,o),
(683,21,cs),
(683,8,o),
(674,0,o),
(659,0,cs),
(470,0,ls),
(454,0,o),
(445,8,o),
(445,21,cs),
(445,30,o),
(447,33,o),
(493,84,cs),
(587,189,o),
(615,231,o),
(615,273,cs),
(615,306,o),
(596,324,o),
(560,324,cs),
(535,324,o),
(517,317,o),
(488,298,cs),
(483,295,o),
(479,293,o),
(474,293,cs),
(462,293,o),
(451,303,o),
(451,316,cs),
(451,324,o),
(455,330,o),
(465,336,cs),
(496,356,o),
(526,364,o),
(565,364,cs),
(634,364,o),
(668,336,o),
(668,279,cs),
(668,214,o),
(630,168,o),
(518,41,c)
);
}
);
width = 723;
}
);
note = onehalf;
unicode = 189;
},
{
glyphname = threequarters;
layers = (
{
layerId = m01;
shapes = (
{
closed = 1;
nodes = (
(245,421,o),
(262,394,o),
(262,342,cs),
(262,266,o),
(223,232,o),
(132,232,cs),
(97,232,o),
(62,239,o),
(44,249,cs),
(34,255,o),
(28,263,o),
(28,272,cs),
(28,285,o),
(38,295,o),
(50,295,cs),
(55,295,o),
(57,294,o),
(65,290,cs),
(85,278,o),
(105,272,o),
(132,272,cs),
(183,272,o),
(210,296,o),
(210,343,cs),
(210,387,o),
(184,408,o),
(130,408,cs),
(108,408,ls),
(93,408,o),
(84,415,o),
(84,428,cs),
(84,440,o),
(93,448,o),
(107,448,cs),
(124,448,ls),
(169,448,o),
(196,470,o),
(196,507,cs),
(196,542,o),
(176,562,o),
(138,562,cs),
(117,562,o),
(96,556,o),
(77,545,cs),
(65,538,o),
(64,537,o),
(58,537,cs),
(47,537,o),
(36,547,o),
(36,559,cs),
(36,566,o),
(40,572,o),
(47,577,cs),
(75,596,o),
(102,603,o),
(143,603,cs),
(215,603,o),
(248,574,o),
(248,512,cs),
(248,473,o),
(235,451,o),
(204,434,c)
);
},
{
closed = 1;
nodes = (
(465,584,ls),
(472,598,o),
(479,604,o),
(491,604,cs),
(505,604,o),
(517,592,o),
(517,580,cs),
(517,575,o),
(515,568,o),
(512,562,cs),
(260,12,ls),
(253,-2,o),
(245,-8,o),
(234,-8,cs),
(220,-8,o),
(208,4,o),
(208,16,cs),
(208,21,o),
(209,28,o),
(212,35,cs)
);
},
{
closed = 1;
nodes = (
(631,20,ls),
(631,2,o),
(621,-9,o),
(606,-9,cs),
(590,-9,o),
(581,2,o),
(581,20,cs),
(581,85,l),
(439,85,ls),
(422,85,o),
(413,92,o),
(413,107,cs),
(413,111,o),
(415,115,o),
(419,122,cs),
(566,347,ls),
(576,362,o),
(585,368,o),
(598,368,cs),
(620,368,o),
(631,351,o),
(631,328,cs),
(631,126,l),
(674,126,ls),
(689,126,o),
(698,118,o),
(698,105,cs),
(698,92,o),
(689,85,o),
(674,85,cs),
(631,85,l)
);
},
{
closed = 1;
nodes = (
(582,300,l),
(467,125,l),
(582,125,l)
);
}
);
width = 723;
}
);
note = threequarters;
unicode = 190;
},
{
glyphname = questiondown;
layers = (
{
layerId = m01;
shapes = (
{
closed = 1;
nodes = (
(236,118,o),
(229,106,o),
(159,37,cs),
(119,-2,o),
(106,-27,o),
(106,-66,cs),
(106,-124,o),
(135,-153,o),
(191,-153,cs),
(227,-153,o),
(262,-142,o),
(294,-121,cs),
(301,-117,o),
(307,-115,o),
(313,-115,cs),
(328,-115,o),
(340,-128,o),
(340,-144,cs),
(340,-153,o),
(336,-162,o),
(326,-169,cs),
(291,-196,o),
(242,-210,o),
(185,-210,cs),
(87,-210,o),
(37,-165,o),
(37,-77,cs),
(37,-16,o),
(55,19,o),
(115,75,cs),
(168,125,o),
(173,136,o),
(173,191,cs),
(173,224,ls),
(173,241,o),
(182,249,o),
(202,249,cs),
(225,249,o),
(236,239,o),
(236,218,cs),
(236,175,ls)
);
},
{
closed = 1;
nodes = (
(179,316,o),
(162,335,o),
(162,367,cs),
(162,399,o),
(179,419,o),
(205,419,cs),
(232,419,o),
(249,399,o),
(249,367,cs),
(249,335,o),
(232,316,o),
(205,316,cs)
);
}
);
width = 370;
}
);
note = questiondown;
unicode = 191;
},
{
glyphname = Agrave;
kernLeft = A;
kernRight = A;
layers = (
{
layerId = m01;
shapes = (
{
closed = 1;
nodes = (
(123,141,l),
(79,21,ls),
(72,1,o),
(61,-9,o),
(45,-9,cs),
(27,-9,o),
(12,6,o),
(12,23,cs),
(12,29,o),
(13,36,o),
(16,44,cs),
(209,567,ls),
(219,593,o),
(232,605,o),
(253,605,cs),
(274,605,o),
(287,593,o),
(296,568,cs),
(490,45,ls),
(493,37,o),
(494,30,o),
(494,23,cs),
(494,6,o),
(479,-9,o),
(460,-9,cs),
(444,-9,o),
(433,1,o),
(425,22,cs),
(382,141,l)
);
},
{
closed = 1;
nodes = (
(253,505,l),
(141,199,l),
(364,199,l)
);
},
{
closed = 1;
nodes = (
(175,745,o),
(172,751,o),
(172,757,cs),
(172,770,o),
(182,780,o),
(197,780,cs),
(234,780,o),
(242,774,o),
(253,755,cs),
(293,683,ls),
(296,678,o),
(298,673,o),
(298,670,cs),
(298,660,o),
(288,652,o),
(278,652,cs),
(258,652,o),
(251,655,o),
(239,670,cs),
(181,738,ls)
);
}
);
width = 506;
}
);
note = Agrave;
unicode = 192;
},
{
glyphname = Aacute;
kernLeft = A;
kernRight = A;
layers = (
{
layerId = m01;
shapes = (
{
closed = 1;
nodes = (
(123,141,l),
(79,21,ls),
(72,1,o),
(61,-9,o),
(45,-9,cs),
(27,-9,o),
(12,6,o),
(12,23,cs),
(12,29,o),
(13,36,o),
(16,44,cs),
(209,567,ls),
(219,593,o),
(232,605,o),
(253,605,cs),
(274,605,o),
(287,593,o),
(296,568,cs),
(490,45,ls),
(493,37,o),
(494,30,o),
(494,23,cs),
(494,6,o),
(479,-9,o),
(460,-9,cs),
(444,-9,o),
(433,1,o),
(425,22,cs),
(382,141,l)
);
},
{
closed = 1;
nodes = (
(253,505,l),
(141,199,l),
(364,199,l)
);
},
{
closed = 1;
nodes = (
(334,751,o),
(331,745,o),
(325,738,cs),
(267,670,ls),
(255,655,o),
(248,652,o),
(233,652,cs),
(218,652,o),
(208,660,o),
(208,670,cs),
(208,673,o),
(210,678,o),
(213,684,cs),
(253,755,ls),
(263,774,o),
(272,780,o),
(291,780,cs),
(324,780,o),
(334,770,o),
(334,757,cs)
);
}
);
width = 506;
}
);
note = Aacute;
unicode = 193;
},
{
glyphname = Acircumflex;
kernLeft = A;
kernRight = A;
layers = (
{
layerId = m01;
shapes = (
{
closed = 1;
nodes = (
(123,141,l),
(79,21,ls),
(72,1,o),
(61,-9,o),
(45,-9,cs),
(27,-9,o),
(12,6,o),
(12,23,cs),
(12,29,o),
(13,36,o),
(16,44,cs),
(209,567,ls),
(219,593,o),
(232,605,o),
(253,605,cs),
(274,605,o),
(287,593,o),
(296,568,cs),
(490,45,ls),
(493,37,o),
(494,30,o),
(494,23,cs),
(494,6,o),
(479,-9,o),
(460,-9,cs),
(444,-9,o),
(433,1,o),
(425,22,cs),
(382,141,l)
);
},
{
closed = 1;
nodes = (
(253,505,l),
(141,199,l),
(364,199,l)
);
},
{
closed = 1;
nodes = (
(192,662,ls),
(184,654,o),
(177,650,o),
(169,650,cs),
(155,650,o),
(144,661,o),
(144,674,cs),
(144,679,o),
(146,685,o),
(151,691,cs),
(198,749,ls),
(217,773,o),
(231,782,o),
(253,782,cs),
(274,782,o),
(288,774,o),
(307,750,cs),
(355,691,ls),
(360,686,o),
(362,679,o),
(362,674,cs),
(362,661,o),
(351,650,o),
(338,650,cs),
(329,650,o),
(322,654,o),
(314,662,cs),
(253,724,l)
);
}
);
width = 506;
}
);
note = Acircumflex;
unicode = 194;
},
{
glyphname = Atilde;
kernLeft = A;
kernRight = A;
layers = (
{
layerId = m01;
shapes = (
{
closed = 1;
nodes = (
(123,141,l),
(79,21,ls),
(72,1,o),
(61,-9,o),
(45,-9,cs),
(27,-9,o),
(12,6,o),
(12,23,cs),
(12,29,o),
(13,36,o),
(16,44,cs),
(209,567,ls),
(219,593,o),
(232,605,o),
(253,605,cs),
(274,605,o),
(287,593,o),
(296,568,cs),
(490,45,ls),
(493,37,o),
(494,30,o),
(494,23,cs),
(494,6,o),
(479,-9,o),
(460,-9,cs),
(444,-9,o),
(433,1,o),
(425,22,cs),
(382,141,l)
);
},
{
closed = 1;
nodes = (
(253,505,l),
(141,199,l),
(364,199,l)
);
},
{
closed = 1;
nodes = (
(380,750,o),
(375,729,o),
(370,714,cs),
(359,677,o),
(334,658,o),
(301,658,cs),
(275,658,o),
(263,665,o),
(234,697,cs),
(219,713,o),
(213,717,o),
(204,717,cs),
(191,717,o),
(178,701,o),
(170,673,cs),
(166,662,o),
(158,656,o),
(146,656,cs),
(136,656,o),
(128,664,o),
(128,674,cs),
(128,680,o),
(132,696,o),
(137,711,cs),
(151,752,o),
(173,770,o),
(206,770,cs),
(230,770,o),
(245,762,o),
(270,734,cs),
(289,713,o),
(292,711,o),
(303,711,cs),
(319,711,o),
(329,725,o),
(337,754,cs),
(341,767,o),
(348,773,o),
(360,773,cs),
(362,773,ls),
(372,773,o),
(380,765,o),
(380,756,cs)
);
}
);
width = 506;
}
);
note = Atilde;
unicode = 195;
},
{
glyphname = Adieresis;
kernLeft = A;
kernRight = A;
layers = (
{
layerId = m01;
shapes = (
{
closed = 1;
nodes = (
(123,141,l),
(79,21,ls),
(72,1,o),
(61,-9,o),
(45,-9,cs),
(27,-9,o),
(12,6,o),
(12,23,cs),
(12,29,o),
(13,36,o),
(16,44,cs),
(209,567,ls),
(219,593,o),
(232,605,o),
(253,605,cs),
(274,605,o),
(287,593,o),
(296,568,cs),
(490,45,ls),
(493,37,o),
(494,30,o),
(494,23,cs),
(494,6,o),
(479,-9,o),
(460,-9,cs),
(444,-9,o),
(433,1,o),
(425,22,cs),
(382,141,l)
);
},
{
closed = 1;
nodes = (
(253,505,l),
(141,199,l),
(364,199,l)
);
},
{
closed = 1;
nodes = (
(205,758,o),
(219,741,o),
(219,712,cs),
(219,683,o),
(205,665,o),
(181,665,cs),
(157,665,o),
(142,682,o),
(142,712,cs),
(142,741,o),
(157,758,o),
(181,758,cs)
);
},
{
closed = 1;
nodes = (
(350,758,o),
(364,741,o),
(364,712,cs),
(364,683,o),
(350,665,o),
(326,665,cs),
(302,665,o),
(287,682,o),
(287,712,cs),
(287,741,o),
(302,758,o),
(326,758,cs)
);
}
);
width = 506;
}
);
note = Adieresis;
unicode = 196;
},
{
glyphname = Aring;
kernLeft = A;
kernRight = A;
layers = (
{
layerId = m01;
shapes = (
{
closed = 1;
nodes = (
(123,141,l),
(79,21,ls),
(72,1,o),
(61,-9,o),
(45,-9,cs),
(27,-9,o),
(12,6,o),
(12,23,cs),
(12,29,o),
(13,36,o),
(16,44,cs),
(209,567,ls),
(219,593,o),
(232,605,o),
(253,605,cs),
(274,605,o),
(287,593,o),
(296,568,cs),
(490,45,ls),
(493,37,o),
(494,30,o),
(494,23,cs),
(494,6,o),
(479,-9,o),
(460,-9,cs),
(444,-9,o),
(433,1,o),
(425,22,cs),
(382,141,l)
);
},
{
closed = 1;
nodes = (
(253,505,l),
(141,199,l),
(364,199,l)
);
},
{
closed = 1;
nodes = (
(314,805,o),
(347,776,o),
(347,723,cs),
(347,671,o),
(314,642,o),
(253,642,cs),
(193,642,o),
(159,671,o),
(159,723,cs),
(159,776,o),
(193,805,o),
(253,805,cs)
);
},
{
closed = 1;
nodes = (
(224,769,o),
(208,753,o),
(208,723,cs),
(208,694,o),
(224,678,o),
(253,678,cs),
(283,678,o),
(299,694,o),
(299,723,cs),
(299,753,o),
(283,769,o),
(253,769,cs)
);
}
);
width = 506;
}
);
note = Aring;
unicode = 197;
},
{
glyphname = AE;
layers = (
{
layerId = m01;
shapes = (
{
closed = 1;
nodes = (
(123,139,l),
(65,18,ls),
(56,0,o),
(46,-8,o),
(31,-8,cs),
(13,-8,o),
(-3,7,o),
(-3,23,cs),
(-3,30,o),
(-1,39,o),
(4,48,cs),
(252,560,ls),
(266,590,o),
(277,596,o),
(309,596,cs),
(624,596,ls),
(647,596,o),
(661,585,o),
(661,566,cs),
(661,547,o),
(647,535,o),
(624,535,cs),
(391,535,l),
(391,341,l),
(589,341,ls),
(612,341,o),
(625,330,o),
(625,311,cs),
(625,292,o),
(612,281,o),
(589,281,cs),
(391,281,l),
(391,61,l),
(633,61,ls),
(657,61,o),
(671,49,o),
(671,30,cs),
(671,11,o),
(657,0,o),
(634,0,cs),
(362,0,ls),
(336,0,o),
(322,16,o),
(322,43,cs),
(322,139,l)
);
},
{
closed = 1;
nodes = (
(322,535,l),
(311,535,l),
(148,197,l),
(322,197,l)
);
}
);
width = 696;
}
);
note = AE;
unicode = 198;
},
{
glyphname = Ccedilla;
kernLeft = C;
layers = (
{
layerId = m01;
shapes = (
{
closed = 1;
nodes = (
(122,258,ls),
(122,147,o),
(146,49,o),
(265,49,cs),
(308,49,o),
(338,59,o),
(375,85,cs),
(386,92,o),
(391,94,o),
(397,94,cs),
(414,94,o),
(427,78,o),
(427,61,cs),
(427,53,o),
(424,45,o),
(417,39,cs),
(385,8,o),
(329,-10,o),
(263,-10,cs),
(95,-10,o),
(53,108,o),
(53,259,cs),
(53,337,ls),
(53,490,o),
(97,606,o),
(264,606,cs),
(326,606,o),
(378,590,o),
(410,560,cs),
(416,554,o),
(419,546,o),
(419,538,cs),
(419,520,o),
(405,506,o),
(388,506,cs),
(381,506,o),
(376,508,o),
(365,516,cs),
(336,537,o),
(305,547,o),
(266,547,cs),
(145,547,o),
(122,448,o),
(122,335,cs)
);
},
{
closed = 1;
nodes = (
(281,13,l),
(251,-37,l),
(313,-53,o),
(334,-73,o),
(334,-119,cs),
(334,-171,o),
(302,-197,o),
(238,-197,cs),
(210,-197,o),
(180,-192,o),
(167,-185,cs),
(160,-182,o),
(156,-175,o),
(156,-168,cs),
(156,-156,o),
(163,-145,o),
(175,-145,cs),
(179,-145,o),
(180,-145,o),
(185,-147,cs),
(197,-150,o),
(213,-153,o),
(226,-153,cs),
(259,-153,o),
(277,-139,o),
(277,-116,cs),
(277,-89,o),
(259,-79,o),
(198,-70,cs),
(191,-69,o),
(187,-65,o),
(188,-59,cs),
(188,-57,o),
(188,-56,o),
(190,-52,cs),
(228,13,l)
);
}
);
width = 431;
}
);
note = Ccedilla;
unicode = 199;
},
{
glyphname = Egrave;
layers = (
{
layerId = m01;
shapes = (
{
closed = 1;
nodes = (
(150,341,l),
(348,341,ls),
(371,341,o),
(385,330,o),
(385,311,cs),
(385,292,o),
(371,281,o),
(348,281,cs),
(150,281,l),
(150,61,l),
(393,61,ls),
(416,61,o),
(430,49,o),
(430,30,cs),
(430,11,o),
(416,0,o),
(393,0,cs),
(122,0,ls),
(92,0,o),
(81,19,o),
(81,46,cs),
(81,550,ls),
(81,583,o),
(94,596,o),
(127,596,cs),
(382,596,ls),
(406,596,o),
(419,585,o),
(419,566,cs),
(419,547,o),
(406,535,o),
(382,535,cs),
(150,535,l)
);
},
{
closed = 1;
nodes = (
(176,745,o),
(173,751,o),
(173,757,cs),
(173,770,o),
(183,780,o),
(198,780,cs),
(235,780,o),
(244,774,o),
(254,755,cs),
(294,683,ls),
(297,678,o),
(299,673,o),
(299,670,cs),
(299,660,o),
(290,652,o),
(279,652,cs),
(259,652,o),
(253,655,o),
(240,670,cs),
(182,738,ls)
);
}
);
width = 456;
}
);
note = Egrave;
unicode = 200;
},
{
glyphname = Eacute;
layers = (
{
layerId = m01;
shapes = (
{
closed = 1;
nodes = (
(150,341,l),
(348,341,ls),
(371,341,o),
(385,330,o),
(385,311,cs),
(385,292,o),
(371,281,o),
(348,281,cs),
(150,281,l),
(150,61,l),
(393,61,ls),
(416,61,o),
(430,49,o),
(430,30,cs),
(430,11,o),
(416,0,o),
(393,0,cs),
(122,0,ls),
(92,0,o),
(81,19,o),
(81,46,cs),
(81,550,ls),
(81,583,o),
(94,596,o),
(127,596,cs),
(382,596,ls),
(406,596,o),
(419,585,o),
(419,566,cs),
(419,547,o),
(406,535,o),
(382,535,cs),
(150,535,l)
);
},
{
closed = 1;
nodes = (
(338,751,o),
(334,745,o),
(329,738,cs),
(271,670,ls),
(258,655,o),
(252,652,o),
(237,652,cs),
(221,652,o),
(212,660,o),
(212,670,cs),
(212,673,o),
(213,678,o),
(216,684,cs),
(256,755,ls),
(267,774,o),
(275,780,o),
(295,780,cs),
(327,780,o),
(338,770,o),
(338,757,cs)
);
}
);
width = 456;
}
);
note = Eacute;
unicode = 201;
},
{
glyphname = Ecircumflex;
layers = (
{
layerId = m01;
shapes = (
{
closed = 1;
nodes = (
(150,341,l),
(348,341,ls),
(371,341,o),
(385,330,o),
(385,311,cs),
(385,292,o),
(371,281,o),
(348,281,cs),
(150,281,l),
(150,61,l),
(393,61,ls),
(416,61,o),
(430,49,o),
(430,30,cs),
(430,11,o),
(416,0,o),
(393,0,cs),
(122,0,ls),
(92,0,o),
(81,19,o),
(81,46,cs),
(81,550,ls),
(81,583,o),
(94,596,o),
(127,596,cs),
(382,596,ls),
(406,596,o),
(419,585,o),
(419,566,cs),
(419,547,o),
(406,535,o),
(382,535,cs),
(150,535,l)
);
},
{
closed = 1;
nodes = (
(188,662,ls),
(179,654,o),
(172,650,o),
(164,650,cs),
(151,650,o),
(139,661,o),
(139,674,cs),
(139,679,o),
(142,685,o),
(146,691,cs),
(193,749,ls),
(213,773,o),
(227,782,o),
(248,782,cs),
(270,782,o),
(284,774,o),
(303,750,cs),
(351,691,ls),
(355,686,o),
(358,679,o),
(358,674,cs),
(358,661,o),
(346,650,o),
(333,650,cs),
(325,650,o),
(318,654,o),
(310,662,cs),
(249,724,l)
);
}
);
width = 456;
}
);
note = Ecircumflex;
unicode = 202;
},
{
glyphname = Edieresis;
layers = (
{
layerId = m01;
shapes = (
{
closed = 1;
nodes = (
(150,341,l),
(348,341,ls),
(371,341,o),
(385,330,o),
(385,311,cs),
(385,292,o),
(371,281,o),
(348,281,cs),
(150,281,l),
(150,61,l),
(393,61,ls),
(416,61,o),
(430,49,o),
(430,30,cs),
(430,11,o),
(416,0,o),
(393,0,cs),
(122,0,ls),
(92,0,o),
(81,19,o),
(81,46,cs),
(81,550,ls),
(81,583,o),
(94,596,o),
(127,596,cs),
(382,596,ls),
(406,596,o),
(419,585,o),
(419,566,cs),
(419,547,o),
(406,535,o),
(382,535,cs),
(150,535,l)
);
},
{
closed = 1;
nodes = (
(203,758,o),
(217,741,o),
(217,712,cs),
(217,683,o),
(203,665,o),
(179,665,cs),
(154,665,o),
(140,682,o),
(140,712,cs),
(140,741,o),
(155,758,o),
(179,758,cs)
);
},
{
closed = 1;
nodes = (
(348,758,o),
(362,741,o),
(362,712,cs),
(362,683,o),
(348,665,o),
(324,665,cs),
(299,665,o),
(285,682,o),
(285,712,cs),
(285,741,o),
(300,758,o),
(324,758,cs)
);
}
);
width = 456;
}
);
note = Edieresis;
unicode = 203;
},
{
glyphname = Igrave;
layers = (
{
layerId = m01;
shapes = (
{
closed = 1;
nodes = (
(87,563,ls),
(87,589,o),
(100,605,o),
(122,605,cs),
(143,605,o),
(156,589,o),
(156,563,cs),
(156,33,ls),
(156,7,o),
(143,-9,o),
(122,-9,cs),
(100,-9,o),
(87,7,o),
(87,33,cs)
);
},
{
closed = 1;
nodes = (
(47,745,o),
(44,751,o),
(44,757,cs),
(44,770,o),
(55,780,o),
(69,780,cs),
(106,780,o),
(115,774,o),
(125,755,cs),
(165,683,ls),
(168,678,o),
(170,673,o),
(170,670,cs),
(170,660,o),
(161,652,o),
(150,652,cs),
(130,652,o),
(124,655,o),
(111,670,cs),
(53,738,ls)
);
}
);
width = 243;
}
);
note = Igrave;
unicode = 204;
},
{
glyphname = Iacute;
layers = (
{
layerId = m01;
shapes = (
{
closed = 1;
nodes = (
(88,563,ls),
(88,589,o),
(100,605,o),
(122,605,cs),
(144,605,o),
(156,589,o),
(156,563,cs),
(156,33,ls),
(156,7,o),
(144,-9,o),
(122,-9,cs),
(100,-9,o),
(88,7,o),
(88,33,cs)
);
},
{
closed = 1;
nodes = (
(203,751,o),
(200,745,o),
(194,738,cs),
(136,670,ls),
(123,655,o),
(117,652,o),
(102,652,cs),
(86,652,o),
(77,660,o),
(77,670,cs),
(77,673,o),
(79,678,o),
(82,684,cs),
(121,755,ls),
(132,774,o),
(141,780,o),
(160,780,cs),
(193,780,o),
(203,770,o),
(203,757,cs)
);
}
);
width = 243;
}
);
note = Iacute;
unicode = 205;
},
{
glyphname = Icircumflex;
layers = (
{
layerId = m01;
shapes = (
{
closed = 1;
nodes = (
(87,563,ls),
(87,589,o),
(100,605,o),
(122,605,cs),
(143,605,o),
(156,589,o),
(156,563,cs),
(156,33,ls),
(156,7,o),
(143,-9,o),
(122,-9,cs),
(100,-9,o),
(87,7,o),
(87,33,cs)
);
},
{
closed = 1;
nodes = (
(60,662,ls),
(52,654,o),
(45,650,o),
(37,650,cs),
(23,650,o),
(12,661,o),
(12,674,cs),
(12,679,o),
(14,685,o),
(19,691,cs),
(66,749,ls),
(86,773,o),
(99,782,o),
(121,782,cs),
(143,782,o),
(156,774,o),
(176,750,cs),
(223,691,l),
(228,686,o),
(230,679,o),
(230,674,cs),
(230,661,o),
(219,650,o),
(206,650,cs),
(197,650,o),
(191,654,o),
(182,662,cs),
(121,724,l)
);
}
);
width = 243;
}
);
note = Icircumflex;
unicode = 206;
},
{
glyphname = Idieresis;
layers = (
{
layerId = m01;
shapes = (
{
closed = 1;
nodes = (
(87,563,ls),
(87,589,o),
(99,605,o),
(121,605,cs),
(143,605,o),
(155,589,o),
(155,563,cs),
(155,33,ls),
(155,7,o),
(143,-9,o),
(121,-9,cs),
(99,-9,o),
(87,7,o),
(87,33,cs)
);
},
{
closed = 1;
nodes = (
(73,758,o),
(87,741,o),
(87,712,cs),
(87,683,o),
(73,665,o),
(49,665,cs),
(24,665,o),
(10,682,o),
(10,712,cs),
(10,741,o),
(25,758,o),
(49,758,cs)
);
},
{
closed = 1;
nodes = (
(217,758,o),
(232,741,o),
(232,712,cs),
(232,683,o),
(217,665,o),
(193,665,cs),
(169,665,o),
(155,682,o),
(155,712,cs),
(155,741,o),
(169,758,o),
(193,758,cs)
);
}
);
width = 243;
}
);
note = Idieresis;
unicode = 207;
},
{
glyphname = Eth;
layers = (
{
layerId = m01;
shapes = (
{
closed = 1;
nodes = (
(275,334,ls),
(292,334,o),
(305,324,o),
(305,305,cs),
(305,289,o),
(293,278,o),
(275,278,cs),
(35,278,ls),
(18,278,o),
(6,287,o),
(5,305,cs),
(4,322,o),
(16,334,o),
(35,334,cs)
);
},
{
closed = 1;
nodes = (
(83,550,ls),
(83,583,o),
(96,596,o),
(129,596,cs),
(249,596,ls),
(420,596,o),
(486,527,o),
(486,326,cs),
(486,270,ls),
(486,69,o),
(420,0,o),
(249,0,cs),
(124,0,ls),
(93,0,o),
(83,19,o),
(83,46,cs)
);
},
{
closed = 1;
nodes = (
(256,60,ls),
(395,60,o),
(416,146,o),
(416,268,cs),
(416,327,ls),
(416,450,o),
(395,536,o),
(256,536,cs),
(151,536,l),
(151,60,l)
);
}
);
width = 538;
}
);
note = Eth;
unicode = 208;
},
{
glyphname = Ntilde;
layers = (
{
layerId = m01;
shapes = (
{
closed = 1;
nodes = (
(431,565,ls),
(431,590,o),
(443,605,o),
(463,605,cs),
(484,605,o),
(496,590,o),
(496,565,cs),
(496,36,ls),
(496,11,o),
(485,-8,o),
(460,-8,cs),
(445,-8,o),
(435,-1,o),
(425,17,cs),
(148,483,l),
(148,31,ls),
(148,6,o),
(136,-9,o),
(116,-9,cs),
(95,-9,o),
(83,6,o),
(83,31,cs),
(83,554,ls),
(83,582,o),
(96,604,o),
(124,604,cs),
(141,604,o),
(152,596,o),
(164,576,cs),
(431,127,l)
);
},
{
closed = 1;
nodes = (
(429,750,o),
(424,729,o),
(419,714,cs),
(408,677,o),
(384,658,o),
(350,658,cs),
(325,658,o),
(312,665,o),
(283,697,cs),
(268,713,o),
(262,717,o),
(253,717,cs),
(240,717,o),
(227,701,o),
(219,673,cs),
(215,662,o),
(208,656,o),
(195,656,cs),
(185,656,o),
(177,664,o),
(177,674,cs),
(177,680,o),
(181,696,o),
(186,711,cs),
(201,752,o),
(222,770,o),
(255,770,cs),
(279,770,o),
(294,762,o),
(319,734,cs),
(338,713,o),
(341,711,o),
(353,711,cs),
(368,711,o),
(378,725,o),
(386,754,cs),
(390,767,o),
(397,773,o),
(409,773,cs),
(411,773,ls),
(421,773,o),
(429,765,o),
(429,756,cs)
);
}
);
width = 579;
}
);
note = Ntilde;
unicode = 209;
},
{
glyphname = Ograve;
kernLeft = C;
layers = (
{
layerId = m01;
shapes = (
{
closed = 1;
nodes = (
(486,260,ls),
(486,101,o),
(441,-10,o),
(270,-10,cs),
(97,-10,o),
(53,102,o),
(53,260,cs),
(53,337,ls),
(53,495,o),
(98,606,o),
(270,606,cs),
(442,606,o),
(486,494,o),
(486,337,cs)
);
},
{
closed = 1;
nodes = (
(127,140,o),
(141,49,o),
(270,49,cs),
(394,49,o),
(417,142,o),
(417,259,cs),
(417,338,ls),
(417,455,o),
(393,547,o),
(270,547,cs),
(145,547,o),
(122,454,o),
(122,338,cs),
(124,259,ls)
);
},
{
closed = 1;
nodes = (
(195,745,o),
(192,751,o),
(192,757,cs),
(192,770,o),
(203,780,o),
(217,780,cs),
(254,780,o),
(263,774,o),
(273,755,cs),
(313,683,ls),
(316,678,o),
(318,673,o),
(318,670,cs),
(318,660,o),
(309,652,o),
(298,652,cs),
(278,652,o),
(272,655,o),
(259,670,cs),
(201,738,ls)
);
}
);
width = 540;
}
);
note = Ograve;
unicode = 210;
},
{
glyphname = Oacute;
kernLeft = C;
layers = (
{
layerId = m01;
shapes = (
{
closed = 1;
nodes = (
(486,260,ls),
(486,101,o),
(441,-10,o),
(270,-10,cs),
(97,-10,o),
(53,102,o),
(53,260,cs),
(53,337,ls),
(53,495,o),
(98,606,o),
(270,606,cs),
(442,606,o),
(486,494,o),
(486,337,cs)
);
},
{
closed = 1;
nodes = (
(127,140,o),
(141,49,o),
(270,49,cs),
(394,49,o),
(417,142,o),
(417,259,cs),
(417,338,ls),
(417,455,o),
(393,547,o),
(270,547,cs),
(145,547,o),
(122,454,o),
(122,338,cs),
(124,259,ls)
);
},
{
closed = 1;
nodes = (
(351,751,o),
(347,745,o),
(342,738,c),
(283,670,ls),
(271,655,o),
(264,652,o),
(250,652,cs),
(234,652,o),
(225,660,o),
(225,670,cs),
(225,673,o),
(226,678,o),
(229,684,cs),
(269,755,ls),
(280,774,o),
(288,780,o),
(307,780,cs),
(340,780,o),
(351,770,o),
(351,757,cs)
);
}
);
width = 540;
}
);
note = Oacute;
unicode = 211;
},
{
glyphname = Ocircumflex;
kernLeft = C;
layers = (
{
layerId = m01;
shapes = (
{
closed = 1;
nodes = (
(486,260,ls),
(486,101,o),
(441,-10,o),
(270,-10,cs),
(97,-10,o),
(53,102,o),
(53,260,cs),
(53,337,ls),
(53,495,o),
(98,606,o),
(270,606,cs),
(442,606,o),
(486,494,o),
(486,337,cs)
);
},
{
closed = 1;
nodes = (
(127,140,o),
(141,49,o),
(270,49,cs),
(394,49,o),
(417,142,o),
(417,259,cs),
(417,338,ls),
(417,455,o),
(393,547,o),
(270,547,cs),
(145,547,o),
(122,454,o),
(122,338,cs),
(124,259,ls)
);
},
{
closed = 1;
nodes = (
(208,662,ls),
(200,654,o),
(193,650,o),
(185,650,cs),
(171,650,o),
(160,661,o),
(160,674,cs),
(160,679,o),
(162,685,o),
(167,691,cs),
(214,749,ls),
(234,773,o),
(247,782,o),
(269,782,cs),
(291,782,o),
(304,774,o),
(324,750,cs),
(371,691,l),
(376,686,o),
(378,679,o),
(378,674,cs),
(378,661,o),
(367,650,o),
(354,650,cs),
(345,650,o),
(339,654,o),
(330,662,cs),
(269,724,l)
);
}
);
width = 540;
}
);
note = Ocircumflex;
unicode = 212;
},
{
glyphname = Otilde;
kernLeft = C;
layers = (
{
layerId = m01;
shapes = (
{
closed = 1;
nodes = (
(486,260,ls),
(486,101,o),
(441,-10,o),
(270,-10,cs),
(97,-10,o),
(53,102,o),
(53,260,cs),
(53,337,ls),
(53,495,o),
(98,606,o),
(270,606,cs),
(442,606,o),
(486,494,o),
(486,337,cs)
);
},
{
closed = 1;
nodes = (
(127,140,o),
(141,49,o),
(270,49,cs),
(394,49,o),
(417,142,o),
(417,259,cs),
(417,338,ls),
(417,455,o),
(393,547,o),
(270,547,cs),
(145,547,o),
(122,454,o),
(122,338,cs),
(124,259,ls)
);
},
{
closed = 1;
nodes = (
(396,750,o),
(391,729,o),
(386,714,cs),
(375,677,o),
(351,658,o),
(317,658,cs),
(292,658,o),
(279,665,o),
(250,697,cs),
(235,713,o),
(230,717,o),
(221,717,cs),
(207,717,o),
(195,701,o),
(186,673,cs),
(183,662,o),
(175,656,o),
(163,656,cs),
(152,656,o),
(144,664,o),
(144,674,cs),
(144,680,o),
(148,696,o),
(153,711,cs),
(168,752,o),
(189,770,o),
(222,770,cs),
(246,770,o),
(261,762,o),
(286,734,cs),
(305,713,o),
(308,711,o),
(320,711,cs),
(335,711,o),
(345,725,o),
(353,754,cs),
(357,767,o),
(364,773,o),
(376,773,cs),
(378,773,ls),
(388,773,o),
(396,765,o),
(396,756,cs)
);
}
);
width = 540;
}
);
note = Otilde;
unicode = 213;
},
{
glyphname = Odieresis;
kernLeft = C;
layers = (
{
layerId = m01;
shapes = (
{
closed = 1;
nodes = (
(486,260,ls),
(486,101,o),
(441,-10,o),
(270,-10,cs),
(97,-10,o),
(53,102,o),
(53,260,cs),
(53,337,ls),
(53,495,o),
(98,606,o),
(270,606,cs),
(442,606,o),
(486,494,o),
(486,337,cs)
);
},
{
closed = 1;
nodes = (
(127,140,o),
(141,49,o),
(270,49,cs),
(394,49,o),
(417,142,o),
(417,259,cs),
(417,338,ls),
(417,455,o),
(393,547,o),
(270,547,cs),
(145,547,o),
(122,454,o),
(122,338,cs),
(124,259,ls)
);
},
{
closed = 1;
nodes = (
(221,758,o),
(236,741,o),
(236,712,cs),
(236,683,o),
(221,665,o),
(197,665,cs),
(173,665,o),
(159,682,o),
(159,712,cs),
(159,741,o),
(173,758,o),
(197,758,cs)
);
},
{
closed = 1;
nodes = (
(366,758,o),
(381,741,o),
(381,712,cs),
(381,683,o),
(366,665,o),
(342,665,cs),
(318,665,o),
(304,682,o),
(304,712,cs),
(304,741,o),
(318,758,o),
(342,758,cs)
);
}
);
width = 540;
}
);
note = Odieresis;
unicode = 214;
},
{
glyphname = multiply;
layers = (
{
layerId = m01;
shapes = (
{
closed = 1;
nodes = (
(375,211,ls),
(384,202,o),
(389,194,o),
(389,186,cs),
(389,170,o),
(375,156,o),
(359,156,cs),
(352,156,o),
(343,161,o),
(334,169,cs),
(240,257,l),
(144,168,ls),
(135,160,o),
(127,156,o),
(120,156,cs),
(103,156,o),
(90,169,o),
(90,185,cs),
(90,193,o),
(94,201,o),
(104,210,cs),
(198,297,l),
(105,383,ls),
(95,392,o),
(91,400,o),
(91,408,cs),
(91,425,o),
(104,438,o),
(120,438,cs),
(128,438,o),
(136,434,o),
(145,425,cs),
(240,337,l),
(335,426,ls),
(344,435,o),
(353,439,o),
(360,439,cs),
(376,439,o),
(390,425,o),
(390,409,cs),
(390,401,o),
(386,393,o),
(376,384,cs),
(282,297,l)
);
}
);
width = 480;
}
);
note = multiply;
unicode = 215;
},
{
glyphname = Oslash;
kernLeft = C;
layers = (
{
layerId = m01;
shapes = (
{
closed = 1;
nodes = (
(451,593,ls),
(458,603,o),
(465,608,o),
(474,608,cs),
(487,608,o),
(499,596,o),
(499,584,cs),
(499,578,o),
(495,570,o),
(491,564,cs),
(92,8,ls),
(85,-2,o),
(77,-7,o),
(68,-7,cs),
(55,-7,o),
(43,5,o),
(43,17,cs),
(43,24,o),
(46,31,o),
(51,38,cs)
);
},
{
closed = 1;
nodes = (
(487,259,ls),
(487,101,o),
(443,-10,o),
(271,-10,cs),
(98,-10,o),
(54,102,o),
(54,259,cs),
(54,337,ls),
(54,495,o),
(99,606,o),
(271,606,cs),
(444,606,o),
(487,494,o),
(487,337,cs)
);
},
{
closed = 1;
nodes = (
(127,150,o),
(136,49,o),
(271,49,cs),
(335,49,o),
(373,70,o),
(396,118,cs),
(409,145,o),
(419,204,o),
(419,258,cs),
(419,338,ls),
(419,403,o),
(407,462,o),
(389,491,cs),
(364,530,o),
(329,547,o),
(271,547,cs),
(207,547,o),
(169,526,o),
(146,478,cs),
(133,451,o),
(123,392,o),
(123,338,cs),
(125,258,ls)
);
}
);
width = 541;
}
);
note = Oslash;
unicode = 216;
},
{
glyphname = Ugrave;
layers = (
{
layerId = m01;
shapes = (
{
closed = 1;
nodes = (
(453,116,o),
(446,79,o),
(426,50,cs),
(398,9,o),
(348,-10,o),
(265,-10,cs),
(175,-10,o),
(123,12,o),
(97,62,cs),
(83,89,o),
(78,125,o),
(78,192,cs),
(78,563,ls),
(78,589,o),
(91,605,o),
(112,605,cs),
(134,605,o),
(147,589,o),
(147,563,cs),
(147,197,ls),
(147,140,o),
(152,108,o),
(164,90,cs),
(182,62,o),
(215,49,o),
(265,49,cs),
(320,49,o),
(355,65,o),
(371,98,cs),
(380,115,o),
(384,148,o),
(384,197,cs),
(384,563,ls),
(384,589,o),
(396,605,o),
(418,605,cs),
(440,605,o),
(453,589,o),
(453,563,cs),
(453,192,ls)
);
},
{
closed = 1;
nodes = (
(191,745,o),
(188,751,o),
(188,757,cs),
(188,770,o),
(198,780,o),
(213,780,cs),
(250,780,o),
(259,774,o),
(269,755,cs),
(309,683,ls),
(312,678,o),
(314,673,o),
(314,670,cs),
(314,660,o),
(304,652,o),
(294,652,cs),
(274,652,o),
(268,655,o),
(255,670,cs),
(197,738,ls)
);
}
);
width = 531;
}
);
note = Ugrave;
unicode = 217;
},
{
glyphname = Uacute;
layers = (
{
layerId = m01;
shapes = (
{
closed = 1;
nodes = (
(453,116,o),
(446,79,o),
(426,50,cs),
(398,9,o),
(348,-10,o),
(265,-10,cs),
(175,-10,o),
(123,12,o),
(97,62,cs),
(83,89,o),
(78,125,o),
(78,192,cs),
(78,563,ls),
(78,589,o),
(91,605,o),
(112,605,cs),
(134,605,o),
(147,589,o),
(147,563,cs),
(147,197,ls),
(147,140,o),
(152,108,o),
(164,90,cs),
(182,62,o),
(215,49,o),
(265,49,cs),
(320,49,o),
(355,65,o),
(371,98,cs),
(380,115,o),
(384,148,o),
(384,197,cs),
(384,563,ls),
(384,589,o),
(396,605,o),
(418,605,cs),
(440,605,o),
(453,589,o),
(453,563,cs),
(453,192,ls)
);
},
{
closed = 1;
nodes = (
(346,751,o),
(343,745,o),
(337,738,cs),
(279,670,ls),
(267,655,o),
(260,652,o),
(245,652,cs),
(230,652,o),
(220,660,o),
(220,670,cs),
(220,673,o),
(222,678,o),
(225,684,cs),
(265,755,ls),
(275,774,o),
(284,780,o),
(303,780,cs),
(336,780,o),
(346,770,o),
(346,757,cs)
);
}
);
width = 531;
}
);
note = Uacute;
unicode = 218;
},
{
glyphname = Ucircumflex;
layers = (
{
layerId = m01;
shapes = (
{
closed = 1;
nodes = (
(453,116,o),
(446,79,o),
(426,50,cs),
(398,9,o),
(348,-10,o),
(265,-10,cs),
(175,-10,o),
(123,12,o),
(97,62,cs),
(83,89,o),
(78,125,o),
(78,192,cs),
(78,563,ls),
(78,589,o),
(91,605,o),
(112,605,cs),
(134,605,o),
(147,589,o),
(147,563,cs),
(147,197,ls),
(147,140,o),
(152,108,o),
(164,90,cs),
(182,62,o),
(215,49,o),
(265,49,cs),
(320,49,o),
(355,65,o),
(371,98,cs),
(380,115,o),
(384,148,o),
(384,197,cs),
(384,563,ls),
(384,589,o),
(396,605,o),
(418,605,cs),
(440,605,o),
(453,589,o),
(453,563,cs),
(453,192,ls)
);
},
{
closed = 1;
nodes = (
(204,662,ls),
(196,654,o),
(189,650,o),
(181,650,cs),
(167,650,o),
(156,661,o),
(156,674,cs),
(156,679,o),
(158,685,o),
(163,691,cs),
(210,749,ls),
(229,773,o),
(243,782,o),
(265,782,cs),
(286,782,o),
(300,774,o),
(319,750,cs),
(367,691,ls),
(372,686,o),
(374,679,o),
(374,674,cs),
(374,661,o),
(363,650,o),
(350,650,cs),
(341,650,o),
(334,654,o),
(326,662,cs),
(265,724,l)
);
}
);
width = 531;
}
);
note = Ucircumflex;
unicode = 219;
},
{
glyphname = Udieresis;
layers = (
{
layerId = m01;
shapes = (
{
closed = 1;
nodes = (
(453,116,o),
(446,79,o),
(426,50,cs),
(398,9,o),
(348,-10,o),
(265,-10,cs),
(175,-10,o),
(123,12,o),
(97,62,cs),
(83,89,o),
(78,125,o),
(78,192,cs),
(78,563,ls),
(78,589,o),
(91,605,o),
(112,605,cs),
(134,605,o),
(147,589,o),
(147,563,cs),
(147,197,ls),
(147,140,o),
(152,108,o),
(164,90,cs),
(182,62,o),
(215,49,o),
(265,49,cs),
(320,49,o),
(355,65,o),
(371,98,cs),
(380,115,o),
(384,148,o),
(384,197,cs),
(384,563,ls),
(384,589,o),
(396,605,o),
(418,605,cs),
(440,605,o),
(453,589,o),
(453,563,cs),
(453,192,ls)
);
},
{
closed = 1;
nodes = (
(217,758,o),
(231,741,o),
(231,712,cs),
(231,683,o),
(217,665,o),
(193,665,cs),
(169,665,o),
(154,682,o),
(154,712,cs),
(154,741,o),
(169,758,o),
(193,758,cs)
);
},
{
closed = 1;
nodes = (
(362,758,o),
(376,741,o),
(376,712,cs),
(376,683,o),
(362,665,o),
(338,665,cs),
(314,665,o),
(299,682,o),
(299,712,cs),
(299,741,o),
(314,758,o),
(338,758,cs)
);
}
);
width = 531;
}
);
note = Udieresis;
unicode = 220;
},
{
glyphname = Yacute;
kernLeft = Y;
kernRight = Y;
layers = (
{
layerId = m01;
shapes = (
{
closed = 1;
nodes = (
(37,548,ls),
(32,557,o),
(30,565,o),
(30,572,cs),
(30,589,o),
(46,604,o),
(64,604,cs),
(80,604,o),
(90,596,o),
(99,577,cs),
(226,307,l),
(353,578,ls),
(361,596,o),
(371,604,o),
(386,604,cs),
(403,604,o),
(419,589,o),
(419,574,cs),
(419,567,o),
(417,558,o),
(412,550,c),
(258,233,l),
(258,33,ls),
(258,7,o),
(246,-9,o),
(224,-9,cs),
(202,-9,o),
(190,7,o),
(190,33,cs),
(190,233,l)
);
},
{
closed = 1;
nodes = (
(322,751,o),
(319,745,o),
(313,738,cs),
(255,670,ls),
(242,655,o),
(236,652,o),
(221,652,cs),
(206,652,o),
(196,660,o),
(196,670,cs),
(196,673,o),
(198,678,o),
(201,684,cs),
(241,755,ls),
(251,774,o),
(260,780,o),
(279,780,cs),
(312,780,o),
(322,770,o),
(322,757,cs)
);
}
);
width = 447;
}
);
note = Yacute;
unicode = 221;
},
{
glyphname = Thorn;
kernRight = P;
layers = (
{
layerId = m01;
shapes = (
{
closed = 1;
nodes = (
(243,484,ls),
(381,484,o),
(444,441,o),
(444,308,cs),
(444,172,o),
(377,129,o),
(227,129,cs),
(150,129,l),
(150,31,ls),
(150,7,o),
(137,-9,o),
(115,-9,cs),
(94,-9,o),
(81,7,o),
(81,33,cs),
(81,563,ls),
(81,589,o),
(94,605,o),
(115,605,cs),
(136,605,o),
(150,589,o),
(150,565,cs),
(150,484,l)
);
},
{
closed = 1;
nodes = (
(234,187,ls),
(341,187,o),
(376,217,o),
(376,308,cs),
(376,396,o),
(344,426,o),
(249,426,cs),
(149,426,l),
(149,187,l)
);
}
);
width = 489;
}
);
note = Thorn;
unicode = 222;
},
{
glyphname = germandbls;
layers = (
{
layerId = m01;
shapes = (
{
closed = 1;
nodes = (
(234,238,o),
(215,265,o),
(215,303,cs),
(215,337,o),
(227,358,o),
(270,397,cs),
(304,428,o),
(312,443,o),
(312,478,cs),
(312,542,o),
(284,571,o),
(224,571,cs),
(184,571,o),
(157,557,o),
(145,528,cs),
(137,510,o),
(133,480,o),
(133,437,cs),
(133,32,ls),
(133,6,o),
(121,-9,o),
(100,-9,cs),
(79,-9,o),
(67,6,o),
(67,32,cs),
(67,428,ls),
(67,501,o),
(74,541,o),
(90,568,cs),
(115,608,o),
(160,629,o),
(224,629,cs),
(327,629,o),
(374,584,o),
(374,485,cs),
(374,438,o),
(366,423,o),
(313,373,cs),
(293,354,o),
(283,337,o),
(283,312,cs),
(283,283,o),
(293,272,o),
(350,238,cs),
(411,202,o),
(427,178,o),
(427,126,cs),
(427,34,o),
(375,-10,o),
(290,-10,cs),
(261,-10,o),
(234,-5,o),
(211,6,cs),
(197,13,o),
(191,22,o),
(191,35,cs),
(191,51,o),
(203,65,o),
(219,65,cs),
(223,65,o),
(225,65,o),
(230,62,cs),
(247,54,o),
(268,49,o),
(287,49,cs),
(335,49,o),
(360,74,o),
(360,121,cs),
(360,162,o),
(349,175,o),
(277,214,cs)
);
}
);
width = 449;
}
);
note = germandbls;
unicode = 223;
},
{
glyphname = agrave;
kernLeft = a;
kernRight = a;
layers = (
{
layerId = m01;
shapes = (
{
closed = 1;
nodes = (
(286,252,ls),
(286,317,o),
(265,339,o),
(205,339,cs),
(169,339,o),
(134,328,o),
(109,309,cs),
(104,305,o),
(100,303,o),
(95,303,cs),
(80,303,o),
(68,316,o),
(68,331,cs),
(68,339,o),
(71,347,o),
(77,352,cs),
(108,379,o),
(155,393,o),
(209,393,cs),
(272,393,o),
(315,376,o),
(337,342,cs),
(350,321,o),
(354,295,o),
(354,226,cs),
(354,23,ls),
(354,3,o),
(342,-9,o),
(322,-9,cs),
(306,-9,o),
(296,0,o),
(292,40,c),
(263,5,o),
(223,-10,o),
(164,-10,cs),
(81,-10,o),
(38,29,o),
(38,105,cs),
(38,154,o),
(54,189,o),
(88,211,cs),
(117,230,o),
(165,239,o),
(237,239,cs),
(249,239,o),
(256,239,o),
(286,238,c)
);
},
{
closed = 1;
nodes = (
(271,193,o),
(269,194,o),
(242,194,cs),
(152,193,o),
(115,174,o),
(109,118,cs),
(105,79,o),
(122,59,o),
(164,51,cs),
(191,46,o),
(217,49,o),
(244,61,cs),
(273,73,o),
(288,91,o),
(288,120,cs),
(288,193,l)
);
},
{
closed = 1;
nodes = (
(139,546,o),
(136,553,o),
(136,558,cs),
(136,571,o),
(146,581,o),
(161,581,cs),
(198,581,o),
(207,575,o),
(217,556,cs),
(257,485,ls),
(260,480,o),
(262,475,o),
(262,471,cs),
(262,461,o),
(252,453,o),
(242,453,cs),
(222,453,o),
(216,456,o),
(203,471,cs),
(145,539,ls)
);
}
);
width = 419;
}
);
note = agrave;
unicode = 224;
},
{
glyphname = aacute;
kernLeft = a;
kernRight = a;
layers = (
{
layerId = m01;
shapes = (
{
closed = 1;
nodes = (
(286,252,ls),
(286,317,o),
(265,339,o),
(205,339,cs),
(169,339,o),
(134,328,o),
(109,309,cs),
(104,305,o),
(100,303,o),
(95,303,cs),
(80,303,o),
(68,316,o),
(68,331,cs),
(68,339,o),
(71,347,o),
(77,352,cs),
(108,379,o),
(155,393,o),
(209,393,cs),
(272,393,o),
(315,376,o),
(337,342,cs),
(350,321,o),
(354,295,o),
(354,226,cs),
(354,23,ls),
(354,3,o),
(342,-9,o),
(322,-9,cs),
(306,-9,o),
(296,0,o),
(292,40,c),
(263,5,o),
(223,-10,o),
(164,-10,cs),
(81,-10,o),
(38,29,o),
(38,105,cs),
(38,154,o),
(54,189,o),
(88,211,cs),
(117,230,o),
(165,239,o),
(237,239,cs),
(249,239,o),
(256,239,o),
(286,238,c)
);
},
{
closed = 1;
nodes = (
(271,193,o),
(269,194,o),
(242,194,cs),
(152,193,o),
(115,174,o),
(109,118,cs),
(105,79,o),
(122,59,o),
(164,51,cs),
(191,46,o),
(217,49,o),
(244,61,cs),
(273,73,o),
(288,91,o),
(288,120,cs),
(288,193,l)
);
},
{
closed = 1;
nodes = (
(296,553,o),
(293,546,o),
(287,539,cs),
(229,471,ls),
(216,456,o),
(210,453,o),
(195,453,cs),
(179,453,o),
(170,461,o),
(170,471,cs),
(170,475,o),
(171,480,o),
(174,485,cs),
(214,556,ls),
(225,575,o),
(233,581,o),
(253,581,cs),
(285,581,o),
(296,571,o),
(296,558,cs)
);
}
);
width = 419;
}
);
note = aacute;
unicode = 225;
},
{
glyphname = acircumflex;
kernLeft = a;
kernRight = a;
layers = (
{
layerId = m01;
shapes = (
{
closed = 1;
nodes = (
(286,252,ls),
(286,317,o),
(265,339,o),
(205,339,cs),
(169,339,o),
(134,328,o),
(109,309,cs),
(104,305,o),
(100,303,o),
(95,303,cs),
(80,303,o),
(68,316,o),
(68,331,cs),
(68,339,o),
(71,347,o),
(77,352,cs),
(108,379,o),
(155,393,o),
(209,393,cs),
(272,393,o),
(315,376,o),
(337,342,cs),
(350,321,o),
(354,295,o),
(354,226,cs),
(354,23,ls),
(354,3,o),
(342,-9,o),
(322,-9,cs),
(306,-9,o),
(296,0,o),
(292,40,c),
(263,5,o),
(223,-10,o),
(164,-10,cs),
(81,-10,o),
(38,29,o),
(38,105,cs),
(38,154,o),
(54,189,o),
(88,211,cs),
(117,230,o),
(165,239,o),
(237,239,cs),
(249,239,o),
(256,239,o),
(286,238,c)
);
},
{
closed = 1;
nodes = (
(271,193,o),
(269,194,o),
(242,194,cs),
(152,193,o),
(115,174,o),
(109,118,cs),
(105,79,o),
(122,59,o),
(164,51,cs),
(191,46,o),
(217,49,o),
(244,61,cs),
(273,73,o),
(288,91,o),
(288,120,cs),
(288,193,l)
);
},
{
closed = 1;
nodes = (
(150,463,ls),
(142,455,o),
(135,451,o),
(127,451,cs),
(113,451,o),
(102,462,o),
(102,475,cs),
(102,481,o),
(104,486,o),
(109,492,cs),
(156,550,ls),
(175,575,o),
(189,583,o),
(211,583,cs),
(232,583,o),
(246,575,o),
(265,551,cs),
(313,492,ls),
(318,487,o),
(320,481,o),
(320,475,cs),
(320,462,o),
(309,451,o),
(295,451,cs),
(287,451,o),
(280,455,o),
(272,463,cs),
(211,525,l)
);
}
);
width = 419;
}
);
note = acircumflex;
unicode = 226;
},
{
glyphname = atilde;
kernLeft = a;
kernRight = a;
layers = (
{
layerId = m01;
shapes = (
{
closed = 1;
nodes = (
(286,252,ls),
(286,317,o),
(265,339,o),
(205,339,cs),
(169,339,o),
(134,328,o),
(109,309,cs),
(104,305,o),
(100,303,o),
(95,303,cs),
(80,303,o),
(68,316,o),
(68,331,cs),
(68,339,o),
(71,347,o),
(77,352,cs),
(108,379,o),
(155,393,o),
(209,393,cs),
(272,393,o),
(315,376,o),
(337,342,cs),
(350,321,o),
(354,295,o),
(354,226,cs),
(354,23,ls),
(354,3,o),
(342,-9,o),
(322,-9,cs),
(306,-9,o),
(296,0,o),
(292,40,c),
(263,5,o),
(223,-10,o),
(164,-10,cs),
(81,-10,o),
(38,29,o),
(38,105,cs),
(38,154,o),
(54,189,o),
(88,211,cs),
(117,230,o),
(165,239,o),
(237,239,cs),
(249,239,o),
(256,239,o),
(286,238,c)
);
},
{
closed = 1;
nodes = (
(271,193,o),
(269,194,o),
(242,194,cs),
(152,193,o),
(115,174,o),
(109,118,cs),
(105,79,o),
(122,59,o),
(164,51,cs),
(191,46,o),
(217,49,o),
(244,61,cs),
(273,73,o),
(288,91,o),
(288,120,cs),
(288,193,l)
);
},
{
closed = 1;
nodes = (
(338,551,o),
(333,530,o),
(328,516,cs),
(317,478,o),
(292,459,o),
(259,459,cs),
(233,459,o),
(221,466,o),
(192,498,cs),
(177,514,o),
(171,518,o),
(162,518,cs),
(149,518,o),
(136,502,o),
(128,474,cs),
(124,463,o),
(116,457,o),
(104,457,cs),
(94,457,o),
(86,465,o),
(86,475,cs),
(86,481,o),
(90,497,o),
(95,512,cs),
(109,553,o),
(131,572,o),
(164,572,cs),
(188,572,o),
(203,563,o),
(227,536,cs),
(247,514,o),
(250,512,o),
(261,512,cs),
(277,512,o),
(287,526,o),
(295,556,cs),
(298,568,o),
(306,574,o),
(318,574,cs),
(320,574,ls),
(330,574,o),
(338,566,o),
(338,557,cs)
);
}
);
width = 419;
}
);
note = atilde;
unicode = 227;
},
{
glyphname = adieresis;
kernLeft = a;
kernRight = a;
layers = (
{
layerId = m01;
shapes = (
{
closed = 1;
nodes = (
(286,252,ls),
(286,317,o),
(265,339,o),
(205,339,cs),
(169,339,o),
(134,328,o),
(109,309,cs),
(104,305,o),
(100,303,o),
(95,303,cs),
(80,303,o),
(68,316,o),
(68,331,cs),
(68,339,o),
(71,347,o),
(77,352,cs),
(108,379,o),
(155,393,o),
(209,393,cs),
(272,393,o),
(315,376,o),
(337,342,cs),
(350,321,o),
(354,295,o),
(354,226,cs),
(354,23,ls),
(354,3,o),
(342,-9,o),
(322,-9,cs),
(306,-9,o),
(296,0,o),
(292,40,c),
(263,5,o),
(223,-10,o),
(164,-10,cs),
(81,-10,o),
(38,29,o),
(38,105,cs),
(38,154,o),
(54,189,o),
(88,211,cs),
(117,230,o),
(165,239,o),
(237,239,cs),
(249,239,o),
(256,239,o),
(286,238,c)
);
},
{
closed = 1;
nodes = (
(271,193,o),
(269,194,o),
(242,194,cs),
(152,193,o),
(115,174,o),
(109,118,cs),
(105,79,o),
(122,59,o),
(164,51,cs),
(191,46,o),
(217,49,o),
(244,61,cs),
(273,73,o),
(288,91,o),
(288,120,cs),
(288,193,l)
);
},
{
closed = 1;
nodes = (
(161,560,o),
(175,542,o),
(175,513,cs),
(175,484,o),
(161,466,o),
(137,466,cs),
(113,466,o),
(98,484,o),
(98,513,cs),
(98,542,o),
(113,560,o),
(137,560,cs)
);
},
{
closed = 1;
nodes = (
(306,560,o),
(320,542,o),
(320,513,cs),
(320,484,o),
(306,466,o),
(282,466,cs),
(258,466,o),
(243,484,o),
(243,513,cs),
(243,542,o),
(258,560,o),
(282,560,cs)
);
}
);
width = 419;
}
);
note = adieresis;
unicode = 228;
},
{
glyphname = aring;
kernLeft = a;
kernRight = a;
layers = (
{
layerId = m01;
shapes = (
{
closed = 1;
nodes = (
(286,252,ls),
(286,317,o),
(265,339,o),
(205,339,cs),
(169,339,o),
(134,328,o),
(109,309,cs),
(104,305,o),
(100,303,o),
(95,303,cs),
(80,303,o),
(68,316,o),
(68,331,cs),
(68,339,o),
(71,347,o),
(77,352,cs),
(108,379,o),
(155,393,o),
(209,393,cs),
(272,393,o),
(315,376,o),
(337,342,cs),
(350,321,o),
(354,295,o),
(354,226,cs),
(354,23,ls),
(354,3,o),
(342,-9,o),
(322,-9,cs),
(306,-9,o),
(296,0,o),
(292,40,c),
(263,5,o),
(223,-10,o),
(164,-10,cs),
(81,-10,o),
(38,29,o),
(38,105,cs),
(38,154,o),
(54,189,o),
(88,211,cs),
(117,230,o),
(165,239,o),
(237,239,cs),
(249,239,o),
(256,239,o),
(286,238,c)
);
},
{
closed = 1;
nodes = (
(271,193,o),
(269,194,o),
(242,194,cs),
(152,193,o),
(115,174,o),
(109,118,cs),
(105,79,o),
(122,59,o),
(164,51,cs),
(191,46,o),
(217,49,o),
(244,61,cs),
(273,73,o),
(288,91,o),
(288,120,cs),
(288,193,l)
);
},
{
closed = 1;
nodes = (
(274,606,o),
(308,577,o),
(308,525,cs),
(308,472,o),
(274,443,o),
(214,443,cs),
(154,443,o),
(120,472,o),
(120,525,cs),
(120,577,o),
(154,606,o),
(214,606,cs)
);
},
{
closed = 1;
nodes = (
(185,570,o),
(169,554,o),
(169,525,cs),
(169,495,o),
(185,479,o),
(214,479,cs),
(243,479,o),
(259,495,o),
(259,525,cs),
(259,554,o),
(243,570,o),
(214,570,cs)
);
}
);
width = 419;
}
);
note = aring;
unicode = 229;
},
{
glyphname = ae;
kernRight = e;
layers = (
{
layerId = m01;
shapes = (
{
closed = 1;
nodes = (
(286,252,ls),
(286,317,o),
(265,339,o),
(205,339,cs),
(169,339,o),
(134,328,o),
(109,309,cs),
(104,305,o),
(100,303,o),
(95,303,cs),
(80,303,o),
(68,316,o),
(68,331,cs),
(68,339,o),
(71,347,o),
(77,352,cs),
(108,379,o),
(155,393,o),
(209,393,cs),
(270,393,o),
(310,376,o),
(332,342,cs),
(345,322,o),
(349,295,o),
(349,226,cs),
(349,128,ls),
(349,102,o),
(341,79,o),
(327,60,cs),
(290,14,o),
(235,-10,o),
(165,-10,cs),
(82,-10,o),
(38,29,o),
(38,104,cs),
(38,151,o),
(55,184,o),
(89,206,cs),
(117,225,o),
(165,233,o),
(235,233,cs),
(247,233,o),
(255,233,o),
(286,232,c)
);
},
{
closed = 1;
nodes = (
(275,188,o),
(268,189,o),
(261,189,cs),
(153,189,o),
(115,173,o),
(109,118,cs),
(105,79,o),
(122,59,o),
(164,51,cs),
(191,46,o),
(217,49,o),
(244,61,cs),
(273,72,o),
(288,91,o),
(288,120,cs),
(288,188,l)
);
},
{
closed = 1;
nodes = (
(353,161,ls),
(353,81,o),
(388,45,o),
(463,45,cs),
(503,45,o),
(539,54,o),
(569,73,cs),
(573,75,o),
(578,77,o),
(582,77,cs),
(596,77,o),
(609,64,o),
(609,49,cs),
(609,39,o),
(604,32,o),
(594,24,cs),
(562,2,o),
(514,-10,o),
(460,-10,cs),
(348,-10,o),
(292,49,o),
(292,168,cs),
(292,215,ls),
(292,332,o),
(348,393,o),
(456,393,cs),
(511,393,o),
(552,377,o),
(578,345,cs),
(602,316,o),
(614,275,o),
(614,222,cs),
(614,193,o),
(597,180,o),
(568,180,cs),
(353,180,l)
);
},
{
closed = 1;
nodes = (
(548,310,o),
(521,341,o),
(455,341,cs),
(388,341,o),
(357,307,o),
(353,228,c),
(552,228,l)
);
}
);
width = 656;
}
);
note = ae;
unicode = 230;
},
{
glyphname = ccedilla;
kernLeft = c;
kernRight = c;
layers = (
{
layerId = m01;
shapes = (
{
closed = 1;
nodes = (
(48,331,o),
(105,393,o),
(212,393,cs),
(259,393,o),
(291,382,o),
(318,356,cs),
(326,349,o),
(329,342,o),
(329,333,cs),
(329,318,o),
(317,302,o),
(302,302,cs),
(296,302,o),
(293,304,o),
(285,311,cs),
(266,327,o),
(245,335,o),
(217,335,cs),
(146,335,o),
(114,295,o),
(114,209,cs),
(114,173,ls),
(114,87,o),
(146,48,o),
(216,48,cs),
(247,48,o),
(271,56,o),
(295,73,cs),
(303,78,o),
(307,80,o),
(312,80,cs),
(328,80,o),
(340,65,o),
(340,50,cs),
(340,39,o),
(336,32,o),
(324,23,cs),
(295,1,o),
(257,-10,o),
(209,-10,cs),
(104,-10,o),
(48,51,o),
(48,168,cs),
(48,215,ls)
);
},
{
closed = 1;
nodes = (
(227,13,l),
(197,-37,l),
(259,-53,o),
(280,-73,o),
(280,-119,cs),
(280,-171,o),
(249,-197,o),
(184,-197,cs),
(157,-197,o),
(126,-192,o),
(113,-185,cs),
(106,-182,o),
(102,-175,o),
(102,-168,cs),
(102,-156,o),
(109,-145,o),
(122,-145,cs),
(125,-145,o),
(126,-145,o),
(132,-147,cs),
(143,-150,o),
(159,-153,o),
(172,-153,cs),
(205,-153,o),
(223,-139,o),
(223,-116,cs),
(223,-89,o),
(205,-79,o),
(144,-70,cs),
(137,-69,o),
(134,-65,o),
(134,-59,cs),
(134,-57,o),
(134,-56,o),
(136,-52,cs),
(174,13,l)
);
}
);
width = 363;
}
);
note = ccedilla;
unicode = 231;
},
{
glyphname = egrave;
kernLeft = c;
kernRight = e;
layers = (
{
layerId = m01;
shapes = (
{
closed = 1;
nodes = (
(110,161,ls),
(110,81,o),
(144,45,o),
(219,45,cs),
(259,45,o),
(296,54,o),
(325,73,cs),
(329,75,o),
(334,77,o),
(338,77,cs),
(353,77,o),
(365,64,o),
(365,49,cs),
(365,40,o),
(360,32,o),
(350,24,cs),
(319,2,o),
(270,-10,o),
(215,-10,cs),
(102,-10,o),
(44,48,o),
(44,165,cs),
(44,212,ls),
(44,331,o),
(101,393,o),
(212,393,cs),
(267,393,o),
(308,377,o),
(334,346,cs),
(357,318,o),
(371,272,o),
(371,218,cs),
(371,191,o),
(351,180,o),
(325,180,cs),
(110,180,l)
);
},
{
closed = 1;
nodes = (
(304,310,o),
(277,341,o),
(212,341,cs),
(144,341,o),
(114,307,o),
(110,228,c),
(308,228,l)
);
},
{
closed = 1;
nodes = (
(139,546,o),
(136,553,o),
(136,558,cs),
(136,571,o),
(147,581,o),
(161,581,cs),
(198,581,o),
(207,575,o),
(217,556,cs),
(257,485,ls),
(260,480,o),
(262,475,o),
(262,471,cs),
(262,461,o),
(253,453,o),
(242,453,cs),
(222,453,o),
(216,456,o),
(203,471,cs),
(145,539,ls)
);
}
);
width = 412;
}
);
note = egrave;
unicode = 232;
},
{
glyphname = eacute;
kernLeft = c;
kernRight = e;
layers = (
{
layerId = m01;
shapes = (
{
closed = 1;
nodes = (
(110,161,ls),
(110,81,o),
(144,45,o),
(219,45,cs),
(259,45,o),
(296,54,o),
(325,73,cs),
(329,75,o),
(334,77,o),
(338,77,cs),
(353,77,o),
(365,64,o),
(365,49,cs),
(365,40,o),
(360,32,o),
(350,24,cs),
(319,2,o),
(270,-10,o),
(215,-10,cs),
(102,-10,o),
(44,48,o),
(44,165,cs),
(44,212,ls),
(44,331,o),
(101,393,o),
(212,393,cs),
(267,393,o),
(308,377,o),
(334,346,cs),
(357,318,o),
(371,272,o),
(371,218,cs),
(371,191,o),
(351,180,o),
(325,180,cs),
(110,180,l)
);
},
{
closed = 1;
nodes = (
(304,310,o),
(277,341,o),
(212,341,cs),
(144,341,o),
(114,307,o),
(110,228,c),
(308,228,l)
);
},
{
closed = 1;
nodes = (
(298,553,o),
(294,546,o),
(289,539,cs),
(231,471,ls),
(218,456,o),
(212,453,o),
(197,453,cs),
(181,453,o),
(172,461,o),
(172,471,cs),
(172,475,o),
(173,480,o),
(176,485,cs),
(216,556,ls),
(227,575,o),
(235,581,o),
(255,581,cs),
(287,581,o),
(298,571,o),
(298,558,cs)
);
}
);
width = 412;
}
);
note = eacute;
unicode = 233;
},
{
glyphname = ecircumflex;
kernLeft = c;
kernRight = e;
layers = (
{
layerId = m01;
shapes = (
{
closed = 1;
nodes = (
(110,161,ls),
(110,81,o),
(144,45,o),
(219,45,cs),
(259,45,o),
(296,54,o),
(325,73,cs),
(329,75,o),
(334,77,o),
(338,77,cs),
(353,77,o),
(365,64,o),
(365,49,cs),
(365,40,o),
(360,32,o),
(350,24,cs),
(319,2,o),
(270,-10,o),
(215,-10,cs),
(102,-10,o),
(44,48,o),
(44,165,cs),
(44,212,ls),
(44,331,o),
(101,393,o),
(212,393,cs),
(267,393,o),
(308,377,o),
(334,346,cs),
(357,318,o),
(371,272,o),
(371,218,cs),
(371,191,o),
(351,180,o),
(325,180,cs),
(110,180,l)
);
},
{
closed = 1;
nodes = (
(304,310,o),
(277,341,o),
(212,341,cs),
(144,341,o),
(114,307,o),
(110,228,c),
(308,228,l)
);
},
{
closed = 1;
nodes = (
(152,463,ls),
(144,455,o),
(137,451,o),
(129,451,cs),
(116,451,o),
(104,462,o),
(104,475,cs),
(104,481,o),
(107,486,o),
(111,492,cs),
(158,550,ls),
(178,575,o),
(192,583,o),
(213,583,cs),
(235,583,o),
(248,575,o),
(268,551,cs),
(315,492,l),
(320,487,o),
(323,481,o),
(323,475,cs),
(323,462,o),
(311,451,o),
(298,451,cs),
(290,451,o),
(283,455,o),
(274,463,cs),
(213,525,l)
);
}
);
width = 412;
}
);
note = ecircumflex;
unicode = 234;
},
{
glyphname = edieresis;
kernLeft = c;
kernRight = e;
layers = (
{
layerId = m01;
shapes = (
{
closed = 1;
nodes = (
(110,161,ls),
(110,81,o),
(144,45,o),
(219,45,cs),
(259,45,o),
(296,54,o),
(325,73,cs),
(329,75,o),
(334,77,o),
(338,77,cs),
(353,77,o),
(365,64,o),
(365,49,cs),
(365,40,o),
(360,32,o),
(350,24,cs),
(319,2,o),
(270,-10,o),
(215,-10,cs),
(102,-10,o),
(44,48,o),
(44,165,cs),
(44,212,ls),
(44,331,o),
(101,393,o),
(212,393,cs),
(267,393,o),
(308,377,o),
(334,346,cs),
(357,318,o),
(371,272,o),
(371,218,cs),
(371,191,o),
(351,180,o),
(325,180,cs),
(110,180,l)
);
},
{
closed = 1;
nodes = (
(304,310,o),
(277,341,o),
(212,341,cs),
(144,341,o),
(114,307,o),
(110,228,c),
(308,228,l)
);
},
{
closed = 1;
nodes = (
(164,560,o),
(179,542,o),
(179,513,cs),
(179,484,o),
(164,466,o),
(140,466,cs),
(116,466,o),
(101,484,o),
(101,513,cs),
(101,542,o),
(116,560,o),
(140,560,cs)
);
},
{
closed = 1;
nodes = (
(309,560,o),
(323,542,o),
(323,513,cs),
(323,484,o),
(309,466,o),
(285,466,cs),
(261,466,o),
(246,484,o),
(246,513,cs),
(246,542,o),
(261,560,o),
(285,560,cs)
);
}
);
width = 412;
}
);
note = edieresis;
unicode = 235;
},
{
glyphname = igrave;
layers = (
{
layerId = m01;
shapes = (
{
closed = 1;
nodes = (
(73,351,ls),
(73,376,o),
(85,391,o),
(106,391,cs),
(127,391,o),
(139,376,o),
(139,351,cs),
(139,32,ls),
(139,6,o),
(127,-9,o),
(106,-9,cs),
(85,-9,o),
(73,6,o),
(73,32,cs)
);
},
{
closed = 1;
nodes = (
(32,546,o),
(29,553,o),
(29,558,cs),
(29,571,o),
(40,581,o),
(54,581,cs),
(91,581,o),
(100,575,o),
(110,556,cs),
(150,485,ls),
(153,480,o),
(155,475,o),
(155,471,cs),
(155,461,o),
(146,453,o),
(135,453,cs),
(115,453,o),
(109,456,o),
(96,471,cs),
(38,539,ls)
);
}
);
width = 212;
}
);
note = igrave;
unicode = 236;
},
{
glyphname = iacute;
layers = (
{
layerId = m01;
shapes = (
{
closed = 1;
nodes = (
(72,351,ls),
(72,376,o),
(85,391,o),
(106,391,cs),
(127,391,o),
(139,376,o),
(139,351,cs),
(139,32,ls),
(139,6,o),
(127,-9,o),
(106,-9,cs),
(85,-9,o),
(72,6,o),
(72,32,cs)
);
},
{
closed = 1;
nodes = (
(187,553,o),
(184,546,o),
(178,539,cs),
(120,471,ls),
(107,456,o),
(101,453,o),
(86,453,cs),
(70,453,o),
(61,461,o),
(61,471,cs),
(61,475,o),
(63,480,o),
(66,485,cs),
(105,556,ls),
(116,575,o),
(125,581,o),
(144,581,cs),
(177,581,o),
(187,571,o),
(187,558,cs)
);
}
);
width = 212;
}
);
note = iacute;
unicode = 237;
},
{
glyphname = icircumflex;
layers = (
{
layerId = m01;
shapes = (
{
closed = 1;
nodes = (
(73,351,ls),
(73,376,o),
(85,391,o),
(106,391,cs),
(127,391,o),
(139,376,o),
(139,351,cs),
(139,32,ls),
(139,6,o),
(127,-9,o),
(106,-9,cs),
(85,-9,o),
(73,6,o),
(73,32,cs)
);
},
{
closed = 1;
nodes = (
(45,463,ls),
(37,455,o),
(30,451,o),
(22,451,cs),
(8,451,o),
(-3,462,o),
(-3,475,cs),
(-3,481,o),
(-1,486,o),
(4,492,cs),
(51,550,ls),
(71,575,o),
(84,583,o),
(106,583,cs),
(128,583,o),
(141,575,o),
(161,551,cs),
(208,492,l),
(213,487,o),
(215,481,o),
(215,475,cs),
(215,462,o),
(204,451,o),
(191,451,cs),
(182,451,o),
(176,455,o),
(167,463,cs),
(106,525,l)
);
}
);
width = 212;
}
);
note = icircumflex;
unicode = 238;
},
{
glyphname = idieresis;
layers = (
{
layerId = m01;
shapes = (
{
closed = 1;
nodes = (
(73,351,ls),
(73,376,o),
(85,391,o),
(106,391,cs),
(127,391,o),
(139,376,o),
(139,351,cs),
(139,32,ls),
(139,6,o),
(127,-9,o),
(106,-9,cs),
(85,-9,o),
(73,6,o),
(73,32,cs)
);
},
{
closed = 1;
nodes = (
(58,560,o),
(72,542,o),
(72,513,cs),
(72,484,o),
(58,466,o),
(34,466,cs),
(9,466,o),
(-5,484,o),
(-5,513,cs),
(-5,542,o),
(10,560,o),
(34,560,cs)
);
},
{
closed = 1;
nodes = (
(202,560,o),
(217,542,o),
(217,513,cs),
(217,484,o),
(202,466,o),
(178,466,cs),
(154,466,o),
(140,484,o),
(140,513,cs),
(140,542,o),
(154,560,o),
(178,560,cs)
);
}
);
width = 212;
}
);
note = idieresis;
unicode = 239;
},
{
glyphname = eth;
kernLeft = c;
layers = (
{
layerId = m01;
shapes = (
{
closed = 1;
nodes = (
(164,478,ls),
(158,474,o),
(151,472,o),
(146,472,cs),
(135,472,o),
(125,483,o),
(125,495,cs),
(125,504,o),
(129,510,o),
(140,516,cs),
(296,604,ls),
(303,608,o),
(309,610,o),
(314,610,cs),
(326,610,o),
(336,600,o),
(336,587,cs),
(336,578,o),
(331,572,o),
(321,566,cs)
);
},
{
closed = 1;
nodes = (
(278,429,o),
(251,485,o),
(220,518,cs),
(191,549,o),
(161,567,o),
(116,580,cs),
(99,585,o),
(93,593,o),
(93,606,cs),
(93,620,o),
(104,632,o),
(118,632,cs),
(133,632,o),
(171,621,o),
(196,610,cs),
(261,581,o),
(310,522,o),
(342,432,cs),
(366,367,o),
(379,288,o),
(379,215,cs),
(379,168,ls),
(379,48,o),
(323,-10,o),
(211,-10,cs),
(99,-10,o),
(44,48,o),
(44,168,cs),
(44,215,ls),
(44,333,o),
(98,393,o),
(207,393,cs),
(241,393,o),
(267,386,o),
(289,373,c)
);
},
{
closed = 1;
nodes = (
(312,296,o),
(281,335,o),
(211,335,cs),
(141,335,o),
(111,296,o),
(111,209,cs),
(112,174,ls),
(114,80,o),
(140,48,o),
(211,48,cs),
(281,48,o),
(312,86,o),
(312,173,cs),
(312,209,ls)
);
}
);
width = 423;
}
);
note = eth;
unicode = 240;
},
{
glyphname = ntilde;
kernLeft = m;
layers = (
{
layerId = m01;
shapes = (
{
closed = 1;
nodes = (
(156,379,o),
(193,393,o),
(247,393,cs),
(319,393,o),
(362,364,o),
(378,305,cs),
(384,286,o),
(386,253,o),
(386,207,cs),
(386,32,ls),
(386,6,o),
(374,-9,o),
(353,-9,cs),
(332,-9,o),
(320,6,o),
(320,32,cs),
(320,201,ls),
(320,244,o),
(317,275,o),
(309,291,cs),
(297,320,o),
(272,335,o),
(236,335,cs),
(199,335,o),
(168,322,o),
(153,300,cs),
(138,280,o),
(133,251,o),
(133,195,cs),
(133,32,ls),
(133,6,o),
(121,-9,o),
(100,-9,cs),
(79,-9,o),
(67,6,o),
(67,32,cs),
(67,360,ls),
(67,384,o),
(80,391,o),
(99,391,cs),
(112,391,o),
(124,384,o),
(127,347,c)
);
},
{
closed = 1;
nodes = (
(353,551,o),
(348,530,o),
(343,516,cs),
(332,478,o),
(308,459,o),
(274,459,cs),
(249,459,o),
(236,466,o),
(207,498,cs),
(192,514,o),
(186,518,o),
(177,518,cs),
(164,518,o),
(151,502,o),
(143,474,cs),
(139,463,o),
(132,457,o),
(119,457,cs),
(109,457,o),
(101,465,o),
(101,475,cs),
(101,481,o),
(105,497,o),
(110,512,cs),
(125,553,o),
(146,572,o),
(179,572,cs),
(203,572,o),
(218,563,o),
(243,536,cs),
(262,514,o),
(265,512,o),
(277,512,cs),
(292,512,o),
(302,526,o),
(310,556,cs),
(314,568,o),
(321,574,o),
(333,574,cs),
(335,574,ls),
(345,574,o),
(353,566,o),
(353,557,cs)
);
}
);
width = 450;
}
);
note = ntilde;
unicode = 241;
},
{
glyphname = ograve;
kernLeft = c;
kernRight = b;
layers = (
{
layerId = m01;
shapes = (
{
closed = 1;
nodes = (
(44,334,o),
(99,393,o),
(211,393,cs),
(324,393,o),
(379,334,o),
(379,215,cs),
(379,168,ls),
(379,48,o),
(324,-10,o),
(211,-10,cs),
(99,-10,o),
(44,48,o),
(44,168,cs),
(44,215,ls)
);
},
{
closed = 1;
nodes = (
(312,296,o),
(281,335,o),
(211,335,cs),
(141,335,o),
(111,296,o),
(111,209,cs),
(112,174,ls),
(114,80,o),
(140,48,o),
(211,48,cs),
(281,48,o),
(312,86,o),
(312,173,cs),
(312,209,ls)
);
},
{
closed = 1;
nodes = (
(137,546,o),
(134,553,o),
(134,558,cs),
(134,571,o),
(144,581,o),
(159,581,cs),
(196,581,o),
(205,575,o),
(215,556,cs),
(255,485,ls),
(258,480,o),
(260,475,o),
(260,471,cs),
(260,461,o),
(250,453,o),
(240,453,cs),
(220,453,o),
(214,456,o),
(201,471,cs),
(143,539,ls)
);
}
);
width = 423;
}
);
note = ograve;
unicode = 242;
},
{
glyphname = oacute;
kernLeft = c;
kernRight = b;
layers = (
{
layerId = m01;
shapes = (
{
closed = 1;
nodes = (
(44,334,o),
(99,393,o),
(211,393,cs),
(324,393,o),
(379,334,o),
(379,215,cs),
(379,168,ls),
(379,48,o),
(324,-10,o),
(211,-10,cs),
(99,-10,o),
(44,48,o),
(44,168,cs),
(44,215,ls)
);
},
{
closed = 1;
nodes = (
(312,296,o),
(281,335,o),
(211,335,cs),
(141,335,o),
(111,296,o),
(111,209,cs),
(112,174,ls),
(114,80,o),
(140,48,o),
(211,48,cs),
(281,48,o),
(312,86,o),
(312,173,cs),
(312,209,ls)
);
},
{
closed = 1;
nodes = (
(292,553,o),
(289,546,o),
(283,539,cs),
(225,471,ls),
(213,456,o),
(206,453,o),
(191,453,cs),
(176,453,o),
(166,461,o),
(166,471,cs),
(166,475,o),
(168,480,o),
(171,485,cs),
(211,556,ls),
(221,575,o),
(230,581,o),
(249,581,cs),
(282,581,o),
(292,571,o),
(292,558,cs)
);
}
);
width = 423;
}
);
note = oacute;
unicode = 243;
},
{
glyphname = ocircumflex;
kernLeft = c;
kernRight = b;
layers = (
{
layerId = m01;
shapes = (
{
closed = 1;
nodes = (
(44,334,o),
(99,393,o),
(211,393,cs),
(324,393,o),
(379,334,o),
(379,215,cs),
(379,168,ls),
(379,48,o),
(324,-10,o),
(211,-10,cs),
(99,-10,o),
(44,48,o),
(44,168,cs),
(44,215,ls)
);
},
{
closed = 1;
nodes = (
(312,296,o),
(281,335,o),
(211,335,cs),
(141,335,o),
(111,296,o),
(111,209,cs),
(112,174,ls),
(114,80,o),
(140,48,o),
(211,48,cs),
(281,48,o),
(312,86,o),
(312,173,cs),
(312,209,ls)
);
},
{
closed = 1;
nodes = (
(150,463,ls),
(142,455,o),
(135,451,o),
(127,451,cs),
(113,451,o),
(102,462,o),
(102,475,cs),
(102,481,o),
(104,486,o),
(109,492,cs),
(156,550,ls),
(175,575,o),
(189,583,o),
(211,583,cs),
(233,583,o),
(246,575,o),
(266,551,cs),
(313,492,l),
(318,487,o),
(320,481,o),
(320,475,cs),
(320,462,o),
(309,451,o),
(296,451,cs),
(287,451,o),
(280,455,o),
(272,463,cs),
(211,525,l)
);
}
);
width = 423;
}
);
note = ocircumflex;
unicode = 244;
},
{
glyphname = otilde;
kernLeft = c;
layers = (
{
layerId = m01;
shapes = (
{
closed = 1;
nodes = (
(44,334,o),
(99,393,o),
(211,393,cs),
(324,393,o),
(379,334,o),
(379,215,cs),
(379,168,ls),
(379,48,o),
(324,-10,o),
(211,-10,cs),
(99,-10,o),
(44,48,o),
(44,168,cs),
(44,215,ls)
);
},
{
closed = 1;
nodes = (
(312,296,o),
(281,335,o),
(211,335,cs),
(141,335,o),
(111,296,o),
(111,209,cs),
(112,174,ls),
(114,80,o),
(140,48,o),
(211,48,cs),
(281,48,o),
(312,86,o),
(312,173,cs),
(312,209,ls)
);
},
{
closed = 1;
nodes = (
(338,551,o),
(333,530,o),
(328,516,cs),
(317,478,o),
(293,459,o),
(259,459,cs),
(234,459,o),
(221,466,o),
(192,498,cs),
(177,514,o),
(171,518,o),
(162,518,cs),
(149,518,o),
(136,502,o),
(128,474,cs),
(124,463,o),
(117,457,o),
(104,457,cs),
(94,457,o),
(86,465,o),
(86,475,cs),
(86,481,o),
(90,497,o),
(95,512,cs),
(110,553,o),
(131,572,o),
(164,572,cs),
(188,572,o),
(203,563,o),
(228,536,cs),
(247,514,o),
(250,512,o),
(261,512,cs),
(277,512,o),
(287,526,o),
(295,556,cs),
(299,568,o),
(306,574,o),
(318,574,cs),
(320,574,ls),
(330,574,o),
(338,566,o),
(338,557,cs)
);
}
);
width = 423;
}
);
note = otilde;
unicode = 245;
},
{
glyphname = odieresis;
kernLeft = c;
kernRight = b;
layers = (
{
layerId = m01;
shapes = (
{
closed = 1;
nodes = (
(44,334,o),
(99,393,o),
(211,393,cs),
(324,393,o),
(379,334,o),
(379,215,cs),
(379,168,ls),
(379,48,o),
(324,-10,o),
(211,-10,cs),
(99,-10,o),
(44,48,o),
(44,168,cs),
(44,215,ls)
);
},
{
closed = 1;
nodes = (
(312,296,o),
(281,335,o),
(211,335,cs),
(141,335,o),
(111,296,o),
(111,209,cs),
(112,174,ls),
(114,80,o),
(140,48,o),
(211,48,cs),
(281,48,o),
(312,86,o),
(312,173,cs),
(312,209,ls)
);
},
{
closed = 1;
nodes = (
(163,560,o),
(177,542,o),
(177,513,cs),
(177,484,o),
(163,466,o),
(139,466,cs),
(115,466,o),
(100,484,o),
(100,513,cs),
(100,542,o),
(115,560,o),
(139,560,cs)
);
},
{
closed = 1;
nodes = (
(308,560,o),
(322,542,o),
(322,513,cs),
(322,484,o),
(308,466,o),
(284,466,cs),
(260,466,o),
(245,484,o),
(245,513,cs),
(245,542,o),
(260,560,o),
(284,560,cs)
);
}
);
width = 423;
}
);
note = odieresis;
unicode = 246;
},
{
glyphname = divide;
layers = (
{
layerId = m01;
shapes = (
{
closed = 1;
nodes = (
(264,466,o),
(277,452,o),
(277,423,cs),
(277,394,o),
(264,380,o),
(239,380,cs),
(213,380,o),
(200,394,o),
(200,423,cs),
(200,452,o),
(213,466,o),
(239,466,cs)
);
},
{
closed = 1;
nodes = (
(264,213,o),
(277,199,o),
(277,170,cs),
(277,141,o),
(264,126,o),
(239,126,cs),
(213,126,o),
(200,141,o),
(200,170,cs),
(200,199,o),
(213,213,o),
(239,213,cs)
);
},
{
closed = 1;
nodes = (
(396,325,ls),
(418,325,o),
(431,314,o),
(431,296,cs),
(431,278,o),
(418,268,o),
(396,268,cs),
(83,268,ls),
(61,268,o),
(48,278,o),
(48,296,cs),
(48,314,o),
(61,325,o),
(83,325,cs)
);
}
);
width = 480;
}
);
note = divide;
unicode = 247;
},
{
glyphname = oslash;
kernLeft = c;
kernRight = b;
layers = (
{
layerId = m01;
shapes = (
{
closed = 1;
nodes = (
(352,391,ls),
(358,398,o),
(365,402,o),
(372,402,cs),
(384,402,o),
(394,392,o),
(394,381,cs),
(394,375,o),
(391,369,o),
(385,362,cs),
(73,-11,ls),
(66,-19,o),
(60,-23,o),
(53,-23,cs),
(41,-23,o),
(30,-13,o),
(30,-1,cs),
(30,5,o),
(33,11,o),
(39,17,c)
);
},
{
closed = 1;
nodes = (
(45,334,o),
(100,393,o),
(212,393,cs),
(324,393,o),
(379,334,o),
(379,215,cs),
(379,168,ls),
(379,48,o),
(324,-10,o),
(212,-10,cs),
(100,-10,o),
(45,48,o),
(45,168,cs),
(45,215,ls)
);
},
{
closed = 1;
nodes = (
(108,77,o),
(136,42,o),
(212,42,cs),
(285,42,o),
(318,82,o),
(318,173,cs),
(318,209,ls),
(318,300,o),
(285,340,o),
(212,340,cs),
(138,340,o),
(104,300,o),
(104,209,cs),
(105,174,ls)
);
}
);
width = 423;
}
);
note = oslash;
unicode = 248;
},
{
glyphname = ugrave;
kernLeft = u;
layers = (
{
layerId = m01;
shapes = (
{
closed = 1;
nodes = (
(285,2,o),
(250,-10,o),
(200,-10,cs),
(129,-10,o),
(88,15,o),
(72,67,cs),
(66,86,o),
(64,112,o),
(64,154,cs),
(64,351,ls),
(64,376,o),
(76,391,o),
(97,391,cs),
(118,391,o),
(130,376,o),
(130,351,cs),
(130,160,ls),
(130,124,o),
(134,98,o),
(141,84,cs),
(153,59,o),
(176,48,o),
(211,48,cs),
(246,48,o),
(273,58,o),
(288,77,cs),
(301,94,o),
(306,119,o),
(306,166,cs),
(306,351,ls),
(306,376,o),
(318,391,o),
(339,391,cs),
(360,391,o),
(373,376,o),
(373,351,cs),
(373,22,ls),
(373,-2,o),
(359,-9,o),
(339,-9,cs),
(326,-9,o),
(315,-2,o),
(313,30,c)
);
},
{
closed = 1;
nodes = (
(145,546,o),
(142,553,o),
(142,558,cs),
(142,571,o),
(153,581,o),
(167,581,cs),
(205,581,o),
(213,575,o),
(224,556,cs),
(264,485,ls),
(267,480,o),
(268,475,o),
(268,471,cs),
(268,461,o),
(259,453,o),
(249,453,cs),
(229,453,o),
(222,456,o),
(209,471,cs),
(151,539,ls)
);
}
);
width = 439;
}
);
note = ugrave;
unicode = 249;
},
{
glyphname = uacute;
kernLeft = u;
layers = (
{
layerId = m01;
shapes = (
{
closed = 1;
nodes = (
(285,2,o),
(250,-10,o),
(200,-10,cs),
(129,-10,o),
(88,15,o),
(72,67,cs),
(66,86,o),
(64,112,o),
(64,154,cs),
(64,351,ls),
(64,376,o),
(76,391,o),
(97,391,cs),
(118,391,o),
(130,376,o),
(130,351,cs),
(130,160,ls),
(130,124,o),
(134,98,o),
(141,84,cs),
(153,59,o),
(176,48,o),
(211,48,cs),
(246,48,o),
(273,58,o),
(288,77,cs),
(301,94,o),
(306,119,o),
(306,166,cs),
(306,351,ls),
(306,376,o),
(318,391,o),
(339,391,cs),
(360,391,o),
(373,376,o),
(373,351,cs),
(373,22,ls),
(373,-2,o),
(359,-9,o),
(339,-9,cs),
(326,-9,o),
(315,-2,o),
(313,30,c)
);
},
{
closed = 1;
nodes = (
(305,553,o),
(302,546,o),
(296,539,cs),
(238,471,ls),
(225,456,o),
(219,453,o),
(204,453,cs),
(188,453,o),
(179,461,o),
(179,471,cs),
(179,475,o),
(180,480,o),
(183,485,cs),
(223,556,ls),
(234,575,o),
(242,581,o),
(262,581,cs),
(294,581,o),
(305,571,o),
(305,558,cs)
);
}
);
width = 439;
}
);
note = uacute;
unicode = 250;
},
{
glyphname = ucircumflex;
kernLeft = u;
layers = (
{
layerId = m01;
shapes = (
{
closed = 1;
nodes = (
(285,2,o),
(250,-10,o),
(200,-10,cs),
(129,-10,o),
(88,15,o),
(72,67,cs),
(66,86,o),
(64,112,o),
(64,154,cs),
(64,351,ls),
(64,376,o),
(76,391,o),
(97,391,cs),
(118,391,o),
(130,376,o),
(130,351,cs),
(130,160,ls),
(130,124,o),
(134,98,o),
(141,84,cs),
(153,59,o),
(176,48,o),
(211,48,cs),
(246,48,o),
(273,58,o),
(288,77,cs),
(301,94,o),
(306,119,o),
(306,166,cs),
(306,351,ls),
(306,376,o),
(318,391,o),
(339,391,cs),
(360,391,o),
(373,376,o),
(373,351,cs),
(373,22,ls),
(373,-2,o),
(359,-9,o),
(339,-9,cs),
(326,-9,o),
(315,-2,o),
(313,30,c)
);
},
{
closed = 1;
nodes = (
(158,463,ls),
(150,455,o),
(143,451,o),
(135,451,cs),
(122,451,o),
(110,462,o),
(110,475,cs),
(110,481,o),
(113,486,o),
(117,492,cs),
(164,550,ls),
(184,575,o),
(198,583,o),
(219,583,cs),
(241,583,o),
(254,575,o),
(274,551,cs),
(321,492,l),
(326,487,o),
(329,481,o),
(329,475,cs),
(329,462,o),
(317,451,o),
(304,451,cs),
(296,451,o),
(289,455,o),
(280,463,cs),
(219,525,l)
);
}
);
width = 439;
}
);
note = ucircumflex;
unicode = 251;
},
{
glyphname = udieresis;
kernLeft = u;
layers = (
{
layerId = m01;
shapes = (
{
closed = 1;
nodes = (
(285,2,o),
(250,-10,o),
(200,-10,cs),
(129,-10,o),
(88,15,o),
(72,67,cs),
(66,86,o),
(64,112,o),
(64,154,cs),
(64,351,ls),
(64,376,o),
(76,391,o),
(97,391,cs),
(118,391,o),
(130,376,o),
(130,351,cs),
(130,160,ls),
(130,124,o),
(134,98,o),
(141,84,cs),
(153,59,o),
(176,48,o),
(211,48,cs),
(246,48,o),
(273,58,o),
(288,77,cs),
(301,94,o),
(306,119,o),
(306,166,cs),
(306,351,ls),
(306,376,o),
(318,391,o),
(339,391,cs),
(360,391,o),
(373,376,o),
(373,351,cs),
(373,22,ls),
(373,-2,o),
(359,-9,o),
(339,-9,cs),
(326,-9,o),
(315,-2,o),
(313,30,c)
);
},
{
closed = 1;
nodes = (
(171,560,o),
(186,542,o),
(186,513,cs),
(186,484,o),
(171,466,o),
(147,466,cs),
(123,466,o),
(109,484,o),
(109,513,cs),
(109,542,o),
(123,560,o),
(147,560,cs)
);
},
{
closed = 1;
nodes = (
(316,560,o),
(331,542,o),
(331,513,cs),
(331,484,o),
(316,466,o),
(292,466,cs),
(268,466,o),
(254,484,o),
(254,513,cs),
(254,542,o),
(268,560,o),
(292,560,cs)
);
}
);
width = 439;
}
);
note = udieresis;
unicode = 252;
},
{
glyphname = yacute;
kernLeft = v;
kernRight = v;
layers = (
{
layerId = m01;
shapes = (
{
closed = 1;
nodes = (
(25,340,ls),
(23,347,o),
(21,354,o),
(21,360,cs),
(21,376,o),
(36,390,o),
(54,390,cs),
(70,390,o),
(81,381,o),
(88,361,cs),
(188,80,l),
(283,362,ls),
(290,382,o),
(300,391,o),
(316,391,cs),
(333,391,o),
(348,377,o),
(348,361,cs),
(348,355,o),
(346,348,o),
(343,341,cs),
(190,-74,ls),
(170,-127,o),
(157,-150,o),
(135,-170,cs),
(118,-187,o),
(89,-200,o),
(71,-200,cs),
(56,-200,o),
(47,-189,o),
(47,-173,cs),
(47,-158,o),
(52,-151,o),
(69,-144,cs),
(96,-132,o),
(114,-107,o),
(132,-55,cs),
(152,1,l)
);
},
{
closed = 1;
nodes = (
(286,553,o),
(282,546,o),
(277,539,cs),
(219,471,ls),
(206,456,o),
(200,453,o),
(185,453,cs),
(169,453,o),
(160,461,o),
(160,471,cs),
(160,475,o),
(161,480,o),
(164,485,cs),
(204,556,ls),
(215,575,o),
(223,581,o),
(243,581,cs),
(275,581,o),
(286,571,o),
(286,558,cs)
);
}
);
width = 369;
}
);
note = yacute;
unicode = 253;
},
{
glyphname = thorn;
kernRight = b;
layers = (
{
layerId = m01;
shapes = (
{
closed = 1;
nodes = (
(159,377,o),
(198,393,o),
(248,393,cs),
(344,393,o),
(392,333,o),
(392,215,cs),
(392,175,ls),
(392,52,o),
(341,-10,o),
(241,-10,cs),
(190,-10,o),
(151,7,o),
(133,37,c),
(133,-168,ls),
(133,-192,o),
(122,-209,o),
(100,-209,cs),
(79,-209,o),
(68,-192,o),
(68,-168,cs),
(67,590,ls),
(67,615,o),
(79,630,o),
(100,630,cs),
(120,630,o),
(132,615,o),
(132,590,cs),
(133,343,l)
);
},
{
closed = 1;
nodes = (
(137,79,o),
(160,48,o),
(228,48,cs),
(295,48,o),
(325,86,o),
(325,172,cs),
(325,209,ls),
(325,297,o),
(298,335,o),
(236,335,cs),
(166,335,o),
(133,294,o),
(133,209,cs),
(134,174,ls)
);
}
);
width = 436;
}
);
note = thorn;
unicode = 254;
},
{
glyphname = ydieresis;
kernLeft = v;
kernRight = v;
layers = (
{
layerId = m01;
shapes = (
{
closed = 1;
nodes = (
(25,340,ls),
(23,347,o),
(21,354,o),
(21,360,cs),
(21,376,o),
(36,390,o),
(54,390,cs),
(70,390,o),
(81,381,o),
(88,361,cs),
(188,80,l),
(283,362,ls),
(290,382,o),
(300,391,o),
(316,391,cs),
(333,391,o),
(348,377,o),
(348,361,cs),
(348,355,o),
(346,348,o),
(343,341,cs),
(190,-74,ls),
(170,-127,o),
(157,-150,o),
(135,-170,cs),
(118,-187,o),
(89,-200,o),
(71,-200,cs),
(56,-200,o),
(47,-189,o),
(47,-173,cs),
(47,-158,o),
(52,-151,o),
(69,-144,cs),
(96,-132,o),
(114,-107,o),
(132,-55,cs),
(152,1,l)
);
},
{
closed = 1;
nodes = (
(137,560,o),
(151,542,o),
(151,513,cs),
(151,484,o),
(137,466,o),
(113,466,cs),
(88,466,o),
(74,484,o),
(74,513,cs),
(74,542,o),
(89,560,o),
(113,560,cs)
);
},
{
closed = 1;
nodes = (
(282,560,o),
(296,542,o),
(296,513,cs),
(296,484,o),
(282,466,o),
(258,466,cs),
(233,466,o),
(219,484,o),
(219,513,cs),
(219,542,o),
(234,560,o),
(258,560,cs)
);
}
);
width = 369;
}
);
note = ydieresis;
unicode = 255;
},
{
glyphname = Amacron;
kernLeft = A;
kernRight = A;
layers = (
{
layerId = m01;
shapes = (
{
closed = 1;
nodes = (
(123,141,l),
(79,21,ls),
(72,1,o),
(61,-9,o),
(45,-9,cs),
(27,-9,o),
(12,6,o),
(12,23,cs),
(12,29,o),
(13,36,o),
(16,44,cs),
(209,567,ls),
(219,593,o),
(232,605,o),
(253,605,cs),
(274,605,o),
(287,593,o),
(296,568,cs),
(490,45,ls),
(493,37,o),
(494,30,o),
(494,23,cs),
(494,6,o),
(479,-9,o),
(460,-9,cs),
(444,-9,o),
(433,1,o),
(425,22,cs),
(382,141,l)
);
},
{
closed = 1;
nodes = (
(253,505,l),
(141,199,l),
(364,199,l)
);
},
{
closed = 1;
nodes = (
(342,741,ls),
(364,741,o),
(377,731,o),
(377,713,cs),
(377,695,o),
(364,685,o),
(342,685,cs),
(164,685,ls),
(142,685,o),
(130,695,o),
(130,713,cs),
(130,731,o),
(142,741,o),
(164,741,cs)
);
}
);
width = 506;
}
);
note = Amacron;
unicode = 256;
},
{
glyphname = amacron;
kernLeft = a;
kernRight = a;
layers = (
{
layerId = m01;
shapes = (
{
closed = 1;
nodes = (
(286,252,ls),
(286,317,o),
(265,339,o),
(205,339,cs),
(169,339,o),
(134,328,o),
(109,309,cs),
(104,305,o),
(100,303,o),
(95,303,cs),
(80,303,o),
(68,316,o),
(68,331,cs),
(68,339,o),
(71,347,o),
(77,352,cs),
(108,379,o),
(155,393,o),
(209,393,cs),
(272,393,o),
(315,376,o),
(337,342,cs),
(350,321,o),
(354,295,o),
(354,226,cs),
(354,23,ls),
(354,3,o),
(342,-9,o),
(322,-9,cs),
(306,-9,o),
(296,0,o),
(292,40,c),
(263,5,o),
(223,-10,o),
(164,-10,cs),
(81,-10,o),
(38,29,o),
(38,105,cs),
(38,154,o),
(54,189,o),
(88,211,cs),
(117,230,o),
(165,239,o),
(237,239,cs),
(249,239,o),
(256,239,o),
(286,238,c)
);
},
{
closed = 1;
nodes = (
(271,193,o),
(269,194,o),
(242,194,cs),
(152,193,o),
(115,174,o),
(109,118,cs),
(105,79,o),
(122,59,o),
(164,51,cs),
(191,46,o),
(217,49,o),
(244,61,cs),
(273,73,o),
(288,91,o),
(288,120,cs),
(288,193,l)
);
},
{
closed = 1;
nodes = (
(300,542,ls),
(322,542,o),
(335,532,o),
(335,514,cs),
(335,496,o),
(322,486,o),
(300,486,cs),
(122,486,ls),
(100,486,o),
(88,496,o),
(88,514,cs),
(88,532,o),
(100,542,o),
(122,542,cs)
);
}
);
width = 419;
}
);
note = amacron;
unicode = 257;
},
{
glyphname = Abreve;
kernLeft = A;
kernRight = A;
layers = (
{
layerId = m01;
shapes = (
{
closed = 1;
nodes = (
(123,141,l),
(79,21,ls),
(72,1,o),
(61,-9,o),
(45,-9,cs),
(27,-9,o),
(12,6,o),
(12,23,cs),
(12,29,o),
(13,36,o),
(16,44,cs),
(209,567,ls),
(219,593,o),
(232,605,o),
(253,605,cs),
(274,605,o),
(287,593,o),
(296,568,cs),
(490,45,ls),
(493,37,o),
(494,30,o),
(494,23,cs),
(494,6,o),
(479,-9,o),
(460,-9,cs),
(444,-9,o),
(433,1,o),
(425,22,cs),
(382,141,l)
);
},
{
closed = 1;
nodes = (
(253,505,l),
(141,199,l),
(364,199,l)
);
},
{
closed = 1;
nodes = (
(319,771,o),
(328,779,o),
(344,779,cs),
(357,779,o),
(367,768,o),
(367,755,cs),
(367,682,o),
(327,653,o),
(253,653,cs),
(179,653,o),
(138,682,o),
(138,755,cs),
(138,769,o),
(149,779,o),
(163,779,cs),
(179,779,o),
(186,771,o),
(190,750,cs),
(195,716,o),
(212,703,o),
(253,703,cs),
(294,703,o),
(311,716,o),
(316,752,cs)
);
}
);
width = 506;
}
);
note = Abreve;
unicode = 258;
},
{
glyphname = abreve;
kernLeft = a;
kernRight = a;
layers = (
{
layerId = m01;
shapes = (
{
closed = 1;
nodes = (
(286,252,ls),
(286,317,o),
(265,339,o),
(205,339,cs),
(169,339,o),
(134,328,o),
(109,309,cs),
(104,305,o),
(100,303,o),
(95,303,cs),
(80,303,o),
(68,316,o),
(68,331,cs),
(68,339,o),
(71,347,o),
(77,352,cs),
(108,379,o),
(155,393,o),
(209,393,cs),
(272,393,o),
(315,376,o),
(337,342,cs),
(350,321,o),
(354,295,o),
(354,226,cs),
(354,23,ls),
(354,3,o),
(342,-9,o),
(322,-9,cs),
(306,-9,o),
(296,0,o),
(292,40,c),
(263,5,o),
(223,-10,o),
(164,-10,cs),
(81,-10,o),
(38,29,o),
(38,105,cs),
(38,154,o),
(54,189,o),
(88,211,cs),
(117,230,o),
(165,239,o),
(237,239,cs),
(249,239,o),
(256,239,o),
(286,238,c)
);
},
{
closed = 1;
nodes = (
(271,193,o),
(269,194,o),
(242,194,cs),
(152,193,o),
(115,174,o),
(109,118,cs),
(105,79,o),
(122,59,o),
(164,51,cs),
(191,46,o),
(217,49,o),
(244,61,cs),
(273,73,o),
(288,91,o),
(288,120,cs),
(288,193,l)
);
},
{
closed = 1;
nodes = (
(277,572,o),
(286,580,o),
(302,580,cs),
(315,580,o),
(325,570,o),
(325,556,cs),
(325,483,o),
(285,454,o),
(211,454,cs),
(137,454,o),
(96,483,o),
(96,556,cs),
(96,570,o),
(107,580,o),
(121,580,cs),
(137,580,o),
(144,572,o),
(148,552,cs),
(153,517,o),
(170,505,o),
(211,505,cs),
(252,505,o),
(269,517,o),
(274,553,cs)
);
}
);
width = 419;
}
);
note = abreve;
unicode = 259;
},
{
glyphname = Aogonek;
kernLeft = A;
kernRight = A;
layers = (
{
layerId = m01;
shapes = (
{
closed = 1;
nodes = (
(123,141,l),
(79,21,ls),
(72,1,o),
(61,-9,o),
(45,-9,cs),
(27,-9,o),
(12,6,o),
(12,23,cs),
(12,29,o),
(13,36,o),
(16,44,cs),
(209,567,ls),
(219,593,o),
(232,605,o),
(253,605,cs),
(274,605,o),
(287,593,o),
(296,568,cs),
(490,45,ls),
(493,37,o),
(494,30,o),
(494,23,cs),
(494,6,o),
(479,-9,o),
(460,-9,cs),
(444,-9,o),
(433,1,o),
(425,22,cs),
(382,141,l)
);
},
{
closed = 1;
nodes = (
(253,505,l),
(141,199,l),
(364,199,l)
);
},
{
closed = 1;
nodes = (
(477,-4,l),
(425,-38,o),
(385,-55,o),
(385,-107,cs),
(385,-139,o),
(402,-153,o),
(440,-153,cs),
(451,-153,o),
(460,-152,o),
(477,-148,c),
(480,-148,o),
(481,-147,o),
(484,-147,cs),
(495,-147,o),
(504,-156,o),
(504,-168,cs),
(504,-187,o),
(478,-197,o),
(426,-197,cs),
(357,-197,o),
(326,-171,o),
(326,-116,cs),
(326,-61,o),
(358,-29,o),
(439,5,c)
);
}
);
width = 506;
}
);
note = Aogonek;
unicode = 260;
},
{
glyphname = aogonek;
kernLeft = a;
kernRight = a;
layers = (
{
layerId = m01;
shapes = (
{
closed = 1;
nodes = (
(286,252,ls),
(286,317,o),
(265,339,o),
(205,339,cs),
(169,339,o),
(134,328,o),
(109,309,cs),
(104,305,o),
(100,303,o),
(95,303,cs),
(80,303,o),
(68,316,o),
(68,331,cs),
(68,339,o),
(71,347,o),
(77,352,cs),
(108,379,o),
(155,393,o),
(209,393,cs),
(272,393,o),
(315,376,o),
(337,342,cs),
(350,321,o),
(354,295,o),
(354,226,cs),
(354,23,ls),
(354,3,o),
(342,-9,o),
(322,-9,cs),
(306,-9,o),
(296,0,o),
(292,40,c),
(263,5,o),
(223,-10,o),
(164,-10,cs),
(81,-10,o),
(38,29,o),
(38,105,cs),
(38,154,o),
(54,189,o),
(88,211,cs),
(117,230,o),
(165,239,o),
(237,239,cs),
(249,239,o),
(256,239,o),
(286,238,c)
);
},
{
closed = 1;
nodes = (
(271,193,o),
(269,194,o),
(242,194,cs),
(152,193,o),
(115,174,o),
(109,118,cs),
(105,79,o),
(122,59,o),
(164,51,cs),
(191,46,o),
(217,49,o),
(244,61,cs),
(273,73,o),
(288,91,o),
(288,120,cs),
(288,193,l)
);
},
{
closed = 1;
nodes = (
(287,-38,o),
(248,-55,o),
(248,-107,cs),
(248,-139,o),
(265,-153,o),
(303,-153,cs),
(314,-153,o),
(323,-152,o),
(340,-148,c),
(342,-148,o),
(344,-147,o),
(347,-147,cs),
(358,-147,o),
(367,-156,o),
(367,-168,cs),
(367,-187,o),
(341,-197,o),
(289,-197,cs),
(220,-197,o),
(189,-171,o),
(189,-116,cs),
(189,-61,o),
(222,-28,o),
(302,6,c),
(339,-5,l)
);
}
);
width = 419;
}
);
note = aogonek;
unicode = 261;
},
{
glyphname = Cacute;
kernLeft = C;
layers = (
{
layerId = m01;
shapes = (
{
closed = 1;
nodes = (
(122,258,ls),
(122,147,o),
(146,49,o),
(265,49,cs),
(308,49,o),
(338,59,o),
(375,85,cs),
(386,92,o),
(391,94,o),
(397,94,cs),
(414,94,o),
(427,78,o),
(427,61,cs),
(427,53,o),
(424,45,o),
(417,39,cs),
(385,8,o),
(329,-10,o),
(263,-10,cs),
(95,-10,o),
(53,108,o),
(53,259,cs),
(53,337,ls),
(53,490,o),
(97,606,o),
(264,606,cs),
(326,606,o),
(378,590,o),
(410,560,cs),
(416,554,o),
(419,546,o),
(419,538,cs),
(419,520,o),
(405,506,o),
(388,506,cs),
(381,506,o),
(376,508,o),
(365,516,cs),
(336,537,o),
(305,547,o),
(266,547,cs),
(145,547,o),
(122,448,o),
(122,335,cs)
);
},
{
closed = 1;
nodes = (
(341,751,o),
(338,745,o),
(332,738,cs),
(274,670,ls),
(261,655,o),
(255,652,o),
(240,652,cs),
(224,652,o),
(215,660,o),
(215,670,cs),
(215,673,o),
(217,678,o),
(219,684,c),
(259,755,ls),
(270,774,o),
(278,780,o),
(298,780,cs),
(330,780,o),
(341,770,o),
(341,757,cs)
);
}
);
width = 431;
}
);
note = Cacute;
unicode = 262;
},
{
glyphname = cacute;
kernLeft = c;
kernRight = c;
layers = (
{
layerId = m01;
shapes = (
{
closed = 1;
nodes = (
(48,331,o),
(105,393,o),
(212,393,cs),
(259,393,o),
(291,382,o),
(318,356,cs),
(326,349,o),
(329,342,o),
(329,333,cs),
(329,318,o),
(317,302,o),
(302,302,cs),
(296,302,o),
(293,304,o),
(285,311,cs),
(266,327,o),
(245,335,o),
(217,335,cs),
(146,335,o),
(114,295,o),
(114,209,cs),
(114,173,ls),
(114,87,o),
(146,48,o),
(216,48,cs),
(247,48,o),
(271,56,o),
(295,73,cs),
(303,78,o),
(307,80,o),
(312,80,cs),
(328,80,o),
(340,65,o),
(340,50,cs),
(340,39,o),
(336,32,o),
(324,23,cs),
(295,1,o),
(257,-10,o),
(209,-10,cs),
(104,-10,o),
(48,51,o),
(48,168,cs),
(48,215,ls)
);
},
{
closed = 1;
nodes = (
(286,553,o),
(283,546,o),
(277,539,cs),
(219,471,ls),
(206,456,o),
(200,453,o),
(185,453,cs),
(169,453,o),
(160,461,o),
(160,471,cs),
(160,475,o),
(162,480,o),
(164,485,c),
(204,556,ls),
(215,575,o),
(224,581,o),
(243,581,cs),
(276,581,o),
(286,571,o),
(286,558,cs)
);
}
);
width = 363;
}
);
note = cacute;
unicode = 263;
},
{
glyphname = Ccircumflex;
kernLeft = C;
layers = (
{
layerId = m01;
shapes = (
{
closed = 1;
nodes = (
(122,258,ls),
(122,147,o),
(146,49,o),
(265,49,cs),
(308,49,o),
(338,59,o),
(375,85,cs),
(386,92,o),
(391,94,o),
(397,94,cs),
(414,94,o),
(427,78,o),
(427,61,cs),
(427,53,o),
(424,45,o),
(417,39,cs),
(385,8,o),
(329,-10,o),
(263,-10,cs),
(95,-10,o),
(53,108,o),
(53,259,cs),
(53,337,ls),
(53,490,o),
(97,606,o),
(264,606,cs),
(326,606,o),
(378,590,o),
(410,560,cs),
(416,554,o),
(419,546,o),
(419,538,cs),
(419,520,o),
(405,506,o),
(388,506,cs),
(381,506,o),
(376,508,o),
(365,516,cs),
(336,537,o),
(305,547,o),
(266,547,cs),
(145,547,o),
(122,448,o),
(122,335,cs)
);
},
{
closed = 1;
nodes = (
(201,662,ls),
(192,654,o),
(185,650,o),
(177,650,cs),
(164,650,o),
(152,661,o),
(152,674,cs),
(152,679,o),
(155,685,o),
(159,691,cs),
(206,749,ls),
(226,773,o),
(240,782,o),
(261,782,cs),
(283,782,o),
(297,774,o),
(316,750,cs),
(364,691,ls),
(368,686,o),
(371,679,o),
(371,674,cs),
(371,661,o),
(359,650,o),
(346,650,cs),
(338,650,o),
(331,654,o),
(323,662,cs),
(261,724,l)
);
}
);
width = 431;
}
);
note = Ccircumflex;
unicode = 264;
},
{
glyphname = ccircumflex;
kernLeft = c;
kernRight = c;
layers = (
{
layerId = m01;
shapes = (
{
closed = 1;
nodes = (
(48,331,o),
(105,393,o),
(212,393,cs),
(259,393,o),
(291,382,o),
(318,356,cs),
(326,349,o),
(329,342,o),
(329,333,cs),
(329,318,o),
(317,302,o),
(302,302,cs),
(296,302,o),
(293,304,o),
(285,311,cs),
(266,327,o),
(245,335,o),
(217,335,cs),
(146,335,o),
(114,295,o),
(114,209,cs),
(114,173,ls),
(114,87,o),
(146,48,o),
(216,48,cs),
(247,48,o),
(271,56,o),
(295,73,cs),
(303,78,o),
(307,80,o),
(312,80,cs),
(328,80,o),
(340,65,o),
(340,50,cs),
(340,39,o),
(336,32,o),
(324,23,cs),
(295,1,o),
(257,-10,o),
(209,-10,cs),
(104,-10,o),
(48,51,o),
(48,168,cs),
(48,215,ls)
);
},
{
closed = 1;
nodes = (
(146,463,ls),
(137,455,o),
(131,451,o),
(123,451,cs),
(109,451,o),
(98,462,o),
(98,475,cs),
(98,481,o),
(100,486,o),
(104,492,c),
(152,550,ls),
(171,575,o),
(185,583,o),
(207,583,cs),
(228,583,o),
(242,575,o),
(261,551,cs),
(309,492,ls),
(313,487,o),
(316,481,o),
(316,475,cs),
(316,462,o),
(305,451,o),
(291,451,cs),
(283,451,o),
(276,455,o),
(268,463,cs),
(207,525,l)
);
}
);
width = 363;
}
);
note = ccircumflex;
unicode = 265;
},
{
glyphname = Cdotaccent;
kernLeft = C;
layers = (
{
layerId = m01;
shapes = (
{
closed = 1;
nodes = (
(122,258,ls),
(122,147,o),
(146,49,o),
(265,49,cs),
(308,49,o),
(338,59,o),
(375,85,cs),
(386,92,o),
(391,94,o),
(397,94,cs),
(414,94,o),
(427,78,o),
(427,61,cs),
(427,53,o),
(424,45,o),
(417,39,cs),
(385,8,o),
(329,-10,o),
(263,-10,cs),
(95,-10,o),
(53,108,o),
(53,259,cs),
(53,337,ls),
(53,490,o),
(97,606,o),
(264,606,cs),
(326,606,o),
(378,590,o),
(410,560,cs),
(416,554,o),
(419,546,o),
(419,538,cs),
(419,520,o),
(405,506,o),
(388,506,cs),
(381,506,o),
(376,508,o),
(365,516,cs),
(336,537,o),
(305,547,o),
(266,547,cs),
(145,547,o),
(122,448,o),
(122,335,cs)
);
},
{
closed = 1;
nodes = (
(293,759,o),
(308,742,o),
(308,712,cs),
(308,682,o),
(293,664,o),
(268,664,cs),
(244,664,o),
(229,682,o),
(229,712,cs),
(229,742,o),
(244,759,o),
(268,759,cs)
);
}
);
width = 431;
}
);
note = Cdotaccent;
unicode = 266;
},
{
glyphname = cdotaccent;
kernLeft = c;
kernRight = c;
layers = (
{
layerId = m01;
shapes = (
{
closed = 1;
nodes = (
(48,331,o),
(105,393,o),
(212,393,cs),
(259,393,o),
(291,382,o),
(318,356,cs),
(326,349,o),
(329,342,o),
(329,333,cs),
(329,318,o),
(317,302,o),
(302,302,cs),
(296,302,o),
(293,304,o),
(285,311,cs),
(266,327,o),
(245,335,o),
(217,335,cs),
(146,335,o),
(114,295,o),
(114,209,cs),
(114,173,ls),
(114,87,o),
(146,48,o),
(216,48,cs),
(247,48,o),
(271,56,o),
(295,73,cs),
(303,78,o),
(307,80,o),
(312,80,cs),
(328,80,o),
(340,65,o),
(340,50,cs),
(340,39,o),
(336,32,o),
(324,23,cs),
(295,1,o),
(257,-10,o),
(209,-10,cs),
(104,-10,o),
(48,51,o),
(48,168,cs),
(48,215,ls)
);
},
{
closed = 1;
nodes = (
(234,561,o),
(249,543,o),
(249,513,cs),
(249,483,o),
(234,465,o),
(209,465,cs),
(185,465,o),
(170,483,o),
(170,513,cs),
(170,543,o),
(185,561,o),
(209,561,cs)
);
}
);
width = 363;
}
);
note = cdotaccent;
unicode = 267;
},
{
glyphname = Ccaron;
kernLeft = C;
layers = (
{
layerId = m01;
shapes = (
{
closed = 1;
nodes = (
(122,258,ls),
(122,147,o),
(146,49,o),
(265,49,cs),
(308,49,o),
(338,59,o),
(375,85,cs),
(386,92,o),
(391,94,o),
(397,94,cs),
(414,94,o),
(427,78,o),
(427,61,cs),
(427,53,o),
(424,45,o),
(417,39,cs),
(385,8,o),
(329,-10,o),
(263,-10,cs),
(95,-10,o),
(53,108,o),
(53,259,cs),
(53,337,ls),
(53,490,o),
(97,606,o),
(264,606,cs),
(326,606,o),
(378,590,o),
(410,560,cs),
(416,554,o),
(419,546,o),
(419,538,cs),
(419,520,o),
(405,506,o),
(388,506,cs),
(381,506,o),
(376,508,o),
(365,516,cs),
(336,537,o),
(305,547,o),
(266,547,cs),
(145,547,o),
(122,448,o),
(122,335,cs)
);
},
{
closed = 1;
nodes = (
(322,768,ls),
(331,777,o),
(338,781,o),
(346,781,cs),
(359,781,o),
(371,770,o),
(371,757,cs),
(371,751,o),
(368,745,o),
(364,740,cs),
(317,682,ls),
(297,657,o),
(283,649,o),
(262,649,cs),
(240,649,o),
(226,657,o),
(207,681,cs),
(159,739,l),
(155,745,o),
(152,751,o),
(152,757,cs),
(152,770,o),
(164,781,o),
(177,781,cs),
(185,781,o),
(192,777,o),
(200,769,cs),
(261,707,l)
);
}
);
width = 431;
}
);
note = Ccaron;
unicode = 268;
},
{
glyphname = ccaron;
kernLeft = c;
kernRight = c;
layers = (
{
layerId = m01;
shapes = (
{
closed = 1;
nodes = (
(48,331,o),
(105,393,o),
(212,393,cs),
(259,393,o),
(291,382,o),
(318,356,cs),
(326,349,o),
(329,342,o),
(329,333,cs),
(329,318,o),
(317,302,o),
(302,302,cs),
(296,302,o),
(293,304,o),
(285,311,cs),
(266,327,o),
(245,335,o),
(217,335,cs),
(146,335,o),
(114,295,o),
(114,209,cs),
(114,173,ls),
(114,87,o),
(146,48,o),
(216,48,cs),
(247,48,o),
(271,56,o),
(295,73,cs),
(303,78,o),
(307,80,o),
(312,80,cs),
(328,80,o),
(340,65,o),
(340,50,cs),
(340,39,o),
(336,32,o),
(324,23,cs),
(295,1,o),
(257,-10,o),
(209,-10,cs),
(104,-10,o),
(48,51,o),
(48,168,cs),
(48,215,ls)
);
},
{
closed = 1;
nodes = (
(270,570,ls),
(278,578,o),
(285,582,o),
(293,582,cs),
(307,582,o),
(318,571,o),
(318,558,cs),
(318,552,o),
(316,546,o),
(311,541,c),
(264,483,ls),
(245,458,o),
(231,450,o),
(209,450,cs),
(188,450,o),
(174,458,o),
(154,482,cs),
(107,541,l),
(102,546,o),
(100,552,o),
(100,558,cs),
(100,571,o),
(111,582,o),
(124,582,cs),
(133,582,o),
(140,578,o),
(148,570,cs),
(209,508,l)
);
}
);
width = 363;
}
);
note = ccaron;
unicode = 269;
},
{
glyphname = Dcaron;
layers = (
{
layerId = m01;
shapes = (
{
closed = 1;
nodes = (
(81,550,ls),
(81,583,o),
(94,596,o),
(127,596,cs),
(248,596,ls),
(418,596,o),
(484,527,o),
(484,326,cs),
(484,270,ls),
(484,69,o),
(418,0,o),
(248,0,cs),
(122,0,ls),
(92,0,o),
(81,19,o),
(81,46,cs)
);
},
{
closed = 1;
nodes = (
(254,60,ls),
(393,60,o),
(415,146,o),
(415,268,cs),
(415,327,ls),
(415,449,o),
(393,536,o),
(254,536,cs),
(150,536,l),
(150,60,l)
);
},
{
closed = 1;
nodes = (
(314,768,ls),
(322,777,o),
(329,781,o),
(338,781,cs),
(351,781,o),
(362,770,o),
(362,757,cs),
(362,751,o),
(360,745,o),
(355,740,c),
(308,682,ls),
(289,657,o),
(275,649,o),
(253,649,cs),
(232,649,o),
(218,657,o),
(199,681,cs),
(151,739,l),
(147,745,o),
(144,751,o),
(144,757,cs),
(144,770,o),
(155,781,o),
(169,781,cs),
(177,781,o),
(184,777,o),
(192,769,cs),
(253,707,l)
);
}
);
width = 536;
}
);
note = Dcaron;
unicode = 270;
},
{
glyphname = dcaron;
kernLeft = c;
layers = (
{
layerId = m01;
shapes = (
{
closed = 1;
nodes = (
(303,589,ls),
(303,615,o),
(315,630,o),
(336,630,cs),
(357,630,o),
(369,615,o),
(369,589,cs),
(369,21,ls),
(369,0,o),
(355,-9,o),
(337,-9,cs),
(321,-9,o),
(314,-2,o),
(310,41,c),
(278,5,o),
(244,-10,o),
(190,-10,cs),
(91,-10,o),
(44,49,o),
(44,175,cs),
(44,209,ls),
(44,330,o),
(96,393,o),
(196,393,cs),
(245,393,o),
(282,376,o),
(303,345,c)
);
},
{
closed = 1;
nodes = (
(301,257,o),
(296,279,o),
(283,299,cs),
(268,322,o),
(242,335,o),
(206,335,cs),
(140,335,o),
(111,294,o),
(111,203,cs),
(111,172,ls),
(111,85,o),
(139,48,o),
(205,48,cs),
(272,48,o),
(303,87,o),
(303,173,cs),
(302,209,ls)
);
},
{
closed = 1;
nodes = (
(438,540,o),
(426,556,o),
(426,580,cs),
(426,611,o),
(444,631,o),
(471,631,cs),
(499,631,o),
(515,612,o),
(515,577,cs),
(515,541,o),
(503,506,o),
(471,439,cs),
(467,430,o),
(460,425,o),
(451,425,cs),
(440,425,o),
(429,435,o),
(429,446,cs),
(429,451,o),
(430,454,o),
(434,462,cs),
(442,481,o),
(451,508,o),
(458,535,c)
);
}
);
width = 499;
}
);
note = dcaron;
unicode = 271;
},
{
glyphname = Dcroat;
layers = (
{
layerId = m01;
shapes = (
{
closed = 1;
nodes = (
(275,334,ls),
(292,334,o),
(305,324,o),
(305,305,cs),
(305,289,o),
(293,278,o),
(275,278,cs),
(35,278,ls),
(18,278,o),
(6,287,o),
(5,305,cs),
(4,322,o),
(16,334,o),
(35,334,cs)
);
},
{
closed = 1;
nodes = (
(83,550,ls),
(83,583,o),
(96,596,o),
(129,596,cs),
(249,596,ls),
(420,596,o),
(486,527,o),
(486,326,cs),
(486,270,ls),
(486,69,o),
(420,0,o),
(249,0,cs),
(124,0,ls),
(93,0,o),
(83,19,o),
(83,46,cs)
);
},
{
closed = 1;
nodes = (
(256,60,ls),
(395,60,o),
(416,146,o),
(416,268,cs),
(416,327,ls),
(416,450,o),
(395,536,o),
(256,536,cs),
(151,536,l),
(151,60,l)
);
}
);
width = 538;
}
);
note = Dcroat;
unicode = 272;
},
{
glyphname = dcroat;
kernLeft = c;
layers = (
{
layerId = m01;
shapes = (
{
closed = 1;
nodes = (
(217,478,ls),
(197,478,o),
(186,488,o),
(186,504,cs),
(186,520,o),
(197,529,o),
(217,529,cs),
(398,529,ls),
(418,529,o),
(429,520,o),
(429,504,cs),
(429,488,o),
(418,478,o),
(398,478,cs)
);
},
{
closed = 1;
nodes = (
(303,589,ls),
(303,615,o),
(315,630,o),
(336,630,cs),
(357,630,o),
(369,615,o),
(369,589,cs),
(369,21,ls),
(369,0,o),
(355,-9,o),
(337,-9,cs),
(321,-9,o),
(314,-2,o),
(310,41,c),
(278,5,o),
(244,-10,o),
(190,-10,cs),
(91,-10,o),
(44,49,o),
(44,175,cs),
(44,209,ls),
(44,330,o),
(96,393,o),
(196,393,cs),
(245,393,o),
(282,376,o),
(303,345,c)
);
},
{
closed = 1;
nodes = (
(301,256,o),
(296,279,o),
(283,298,cs),
(268,322,o),
(242,335,o),
(206,335,cs),
(140,335,o),
(111,294,o),
(111,203,cs),
(111,172,ls),
(111,85,o),
(139,48,o),
(205,48,cs),
(272,48,o),
(303,87,o),
(303,173,cs),
(302,209,ls)
);
}
);
width = 435;
}
);
note = dcroat;
unicode = 273;
},
{
glyphname = Emacron;
layers = (
{
layerId = m01;
shapes = (
{
closed = 1;
nodes = (
(150,341,l),
(348,341,ls),
(371,341,o),
(385,330,o),
(385,311,cs),
(385,292,o),
(371,281,o),
(348,281,cs),
(150,281,l),
(150,61,l),
(393,61,ls),
(416,61,o),
(430,49,o),
(430,30,cs),
(430,11,o),
(416,0,o),
(393,0,cs),
(122,0,ls),
(92,0,o),
(81,19,o),
(81,46,cs),
(81,550,ls),
(81,583,o),
(94,596,o),
(127,596,cs),
(382,596,ls),
(406,596,o),
(419,585,o),
(419,566,cs),
(419,547,o),
(406,535,o),
(382,535,cs),
(150,535,l)
);
},
{
closed = 1;
nodes = (
(341,741,ls),
(363,741,o),
(376,731,o),
(376,713,cs),
(376,695,o),
(363,685,o),
(341,685,cs),
(163,685,ls),
(141,685,o),
(128,695,o),
(128,713,cs),
(128,731,o),
(141,741,o),
(163,741,cs)
);
}
);
width = 456;
}
);
note = Emacron;
unicode = 274;
},
{
glyphname = emacron;
kernLeft = c;
kernRight = e;
layers = (
{
layerId = m01;
shapes = (
{
closed = 1;
nodes = (
(110,161,ls),
(110,81,o),
(144,45,o),
(219,45,cs),
(259,45,o),
(296,54,o),
(325,73,cs),
(329,75,o),
(334,77,o),
(338,77,cs),
(353,77,o),
(365,64,o),
(365,49,cs),
(365,40,o),
(360,32,o),
(350,24,cs),
(319,2,o),
(270,-10,o),
(215,-10,cs),
(102,-10,o),
(44,48,o),
(44,165,cs),
(44,212,ls),
(44,331,o),
(101,393,o),
(212,393,cs),
(267,393,o),
(308,377,o),
(334,346,cs),
(357,318,o),
(371,272,o),
(371,218,cs),
(371,191,o),
(351,180,o),
(325,180,cs),
(110,180,l)
);
},
{
closed = 1;
nodes = (
(304,310,o),
(277,341,o),
(212,341,cs),
(144,341,o),
(114,307,o),
(110,228,c),
(308,228,l)
);
},
{
closed = 1;
nodes = (
(297,542,ls),
(319,542,o),
(332,532,o),
(332,514,cs),
(332,496,o),
(319,486,o),
(297,486,cs),
(119,486,ls),
(97,486,o),
(84,496,o),
(84,514,cs),
(84,532,o),
(97,542,o),
(119,542,cs)
);
}
);
width = 412;
}
);
note = emacron;
unicode = 275;
},
{
glyphname = Ebreve;
layers = (
{
layerId = m01;
shapes = (
{
closed = 1;
nodes = (
(150,341,l),
(348,341,ls),
(371,341,o),
(385,330,o),
(385,311,cs),
(385,292,o),
(371,281,o),
(348,281,cs),
(150,281,l),
(150,61,l),
(393,61,ls),
(416,61,o),
(430,49,o),
(430,30,cs),
(430,11,o),
(416,0,o),
(393,0,cs),
(122,0,ls),
(92,0,o),
(81,19,o),
(81,46,cs),
(81,550,ls),
(81,583,o),
(94,596,o),
(127,596,cs),
(382,596,ls),
(406,596,o),
(419,585,o),
(419,566,cs),
(419,547,o),
(406,535,o),
(382,535,cs),
(150,535,l)
);
},
{
closed = 1;
nodes = (
(314,771,o),
(323,779,o),
(339,779,cs),
(352,779,o),
(362,768,o),
(362,755,cs),
(362,682,o),
(322,653,o),
(248,653,cs),
(174,653,o),
(134,682,o),
(134,755,cs),
(134,769,o),
(144,779,o),
(158,779,cs),
(174,779,o),
(181,771,o),
(185,750,cs),
(190,716,o),
(208,703,o),
(248,703,cs),
(290,703,o),
(306,716,o),
(311,752,cs)
);
}
);
width = 456;
}
);
note = Ebreve;
unicode = 276;
},
{
glyphname = ebreve;
kernLeft = c;
kernRight = e;
layers = (
{
layerId = m01;
shapes = (
{
closed = 1;
nodes = (
(110,161,ls),
(110,81,o),
(144,45,o),
(219,45,cs),
(259,45,o),
(296,54,o),
(325,73,cs),
(329,75,o),
(334,77,o),
(338,77,cs),
(353,77,o),
(365,64,o),
(365,49,cs),
(365,40,o),
(360,32,o),
(350,24,cs),
(319,2,o),
(270,-10,o),
(215,-10,cs),
(102,-10,o),
(44,48,o),
(44,165,cs),
(44,212,ls),
(44,331,o),
(101,393,o),
(212,393,cs),
(267,393,o),
(308,377,o),
(334,346,cs),
(357,318,o),
(371,272,o),
(371,218,cs),
(371,191,o),
(351,180,o),
(325,180,cs),
(110,180,l)
);
},
{
closed = 1;
nodes = (
(304,310,o),
(277,341,o),
(212,341,cs),
(144,341,o),
(114,307,o),
(110,228,c),
(308,228,l)
);
},
{
closed = 1;
nodes = (
(278,572,o),
(287,580,o),
(303,580,cs),
(316,580,o),
(327,570,o),
(327,556,cs),
(327,483,o),
(286,454,o),
(212,454,cs),
(138,454,o),
(98,483,o),
(98,556,cs),
(98,570,o),
(108,580,o),
(122,580,cs),
(138,580,o),
(145,572,o),
(149,552,cs),
(154,517,o),
(172,505,o),
(212,505,cs),
(254,505,o),
(270,517,o),
(275,553,cs)
);
}
);
width = 412;
}
);
note = ebreve;
unicode = 277;
},
{
glyphname = Edotaccent;
layers = (
{
layerId = m01;
shapes = (
{
closed = 1;
nodes = (
(150,341,l),
(348,341,ls),
(371,341,o),
(385,330,o),
(385,311,cs),
(385,292,o),
(371,281,o),
(348,281,cs),
(150,281,l),
(150,61,l),
(393,61,ls),
(416,61,o),
(430,49,o),
(430,30,cs),
(430,11,o),
(416,0,o),
(393,0,cs),
(122,0,ls),
(92,0,o),
(81,19,o),
(81,46,cs),
(81,550,ls),
(81,583,o),
(94,596,o),
(127,596,cs),
(382,596,ls),
(406,596,o),
(419,585,o),
(419,566,cs),
(419,547,o),
(406,535,o),
(382,535,cs),
(150,535,l)
);
},
{
closed = 1;
nodes = (
(284,759,o),
(299,742,o),
(299,712,cs),
(299,682,o),
(284,664,o),
(259,664,cs),
(235,664,o),
(220,682,o),
(220,712,cs),
(220,742,o),
(235,759,o),
(259,759,cs)
);
}
);
width = 456;
}
);
note = Edotaccent;
unicode = 278;
},
{
glyphname = edotaccent;
kernLeft = c;
kernRight = e;
layers = (
{
layerId = m01;
shapes = (
{
closed = 1;
nodes = (
(110,161,ls),
(110,81,o),
(144,45,o),
(219,45,cs),
(259,45,o),
(296,54,o),
(325,73,cs),
(329,75,o),
(334,77,o),
(338,77,cs),
(353,77,o),
(365,64,o),
(365,49,cs),
(365,40,o),
(360,32,o),
(350,24,cs),
(319,2,o),
(270,-10,o),
(215,-10,cs),
(102,-10,o),
(44,48,o),
(44,165,cs),
(44,212,ls),
(44,331,o),
(101,393,o),
(212,393,cs),
(267,393,o),
(308,377,o),
(334,346,cs),
(357,318,o),
(371,272,o),
(371,218,cs),
(371,191,o),
(351,180,o),
(325,180,cs),
(110,180,l)
);
},
{
closed = 1;
nodes = (
(304,310,o),
(277,341,o),
(212,341,cs),
(144,341,o),
(114,307,o),
(110,228,c),
(308,228,l)
);
},
{
closed = 1;
nodes = (
(239,561,o),
(254,543,o),
(254,513,cs),
(254,483,o),
(239,465,o),
(214,465,cs),
(190,465,o),
(175,483,o),
(175,513,cs),
(175,543,o),
(190,561,o),
(214,561,cs)
);
}
);
width = 412;
}
);
note = edotaccent;
unicode = 279;
},
{
glyphname = Eogonek;
layers = (
{
layerId = m01;
shapes = (
{
closed = 1;
nodes = (
(150,341,l),
(348,341,ls),
(371,341,o),
(385,330,o),
(385,311,cs),
(385,292,o),
(371,281,o),
(348,281,cs),
(150,281,l),
(150,61,l),
(393,61,ls),
(416,61,o),
(430,49,o),
(430,30,cs),
(430,11,o),
(416,0,o),
(393,0,cs),
(122,0,ls),
(92,0,o),
(81,19,o),
(81,46,cs),
(81,550,ls),
(81,583,o),
(94,596,o),
(127,596,cs),
(382,596,ls),
(406,596,o),
(419,585,o),
(419,566,cs),
(419,547,o),
(406,535,o),
(382,535,cs),
(150,535,l)
);
},
{
closed = 1;
nodes = (
(348,-33,o),
(299,-54,o),
(299,-107,cs),
(299,-139,o),
(316,-153,o),
(354,-153,cs),
(365,-153,o),
(374,-152,o),
(391,-148,c),
(394,-148,o),
(395,-147,o),
(398,-147,cs),
(409,-147,o),
(418,-156,o),
(418,-168,cs),
(418,-187,o),
(392,-197,o),
(340,-197,cs),
(271,-197,o),
(240,-171,o),
(240,-116,cs),
(240,-63,o),
(265,-33,o),
(341,0,c),
(400,1,l)
);
}
);
width = 456;
}
);
note = Eogonek;
unicode = 280;
},
{
glyphname = eogonek;
kernLeft = c;
kernRight = e;
layers = (
{
layerId = m01;
shapes = (
{
closed = 1;
nodes = (
(110,161,ls),
(110,81,o),
(144,45,o),
(219,45,cs),
(259,45,o),
(296,54,o),
(325,73,cs),
(329,75,o),
(334,77,o),
(338,77,cs),
(353,77,o),
(365,64,o),
(365,49,cs),
(365,40,o),
(360,32,o),
(350,24,cs),
(319,2,o),
(270,-10,o),
(215,-10,cs),
(102,-10,o),
(44,48,o),
(44,165,cs),
(44,212,ls),
(44,331,o),
(101,393,o),
(212,393,cs),
(267,393,o),
(308,377,o),
(334,346,cs),
(357,318,o),
(371,272,o),
(371,218,cs),
(371,191,o),
(351,180,o),
(325,180,cs),
(110,180,l)
);
},
{
closed = 1;
nodes = (
(304,310,o),
(277,341,o),
(212,341,cs),
(144,341,o),
(114,307,o),
(110,228,c),
(308,228,l)
);
},
{
closed = 1;
nodes = (
(263,-29,o),
(213,-51,o),
(213,-107,cs),
(213,-139,o),
(230,-153,o),
(268,-153,cs),
(279,-153,o),
(288,-152,o),
(305,-148,c),
(307,-148,o),
(309,-147,o),
(312,-147,cs),
(323,-147,o),
(332,-156,o),
(332,-168,cs),
(332,-187,o),
(306,-197,o),
(254,-197,cs),
(185,-197,o),
(154,-171,o),
(154,-116,cs),
(154,-59,o),
(180,-28,o),
(257,7,c),
(316,7,l)
);
}
);
width = 412;
}
);
note = eogonek;
unicode = 281;
},
{
glyphname = Ecaron;
layers = (
{
layerId = m01;
shapes = (
{
closed = 1;
nodes = (
(150,341,l),
(348,341,ls),
(371,341,o),
(385,330,o),
(385,311,cs),
(385,292,o),
(371,281,o),
(348,281,cs),
(150,281,l),
(150,61,l),
(393,61,ls),
(416,61,o),
(430,49,o),
(430,30,cs),
(430,11,o),
(416,0,o),
(393,0,cs),
(122,0,ls),
(92,0,o),
(81,19,o),
(81,46,cs),
(81,550,ls),
(81,583,o),
(94,596,o),
(127,596,cs),
(382,596,ls),
(406,596,o),
(419,585,o),
(419,566,cs),
(419,547,o),
(406,535,o),
(382,535,cs),
(150,535,l)
);
},
{
closed = 1;
nodes = (
(312,768,ls),
(321,777,o),
(328,781,o),
(336,781,cs),
(349,781,o),
(361,770,o),
(361,757,cs),
(361,751,o),
(358,745,o),
(354,740,cs),
(307,682,ls),
(287,657,o),
(274,649,o),
(252,649,cs),
(230,649,o),
(217,657,o),
(197,681,cs),
(150,739,ls),
(145,745,o),
(142,751,o),
(142,757,cs),
(142,770,o),
(154,781,o),
(167,781,cs),
(175,781,o),
(182,777,o),
(191,769,cs),
(252,707,l)
);
}
);
width = 456;
}
);
note = Ecaron;
unicode = 282;
},
{
glyphname = ecaron;
kernLeft = c;
kernRight = e;
layers = (
{
layerId = m01;
shapes = (
{
closed = 1;
nodes = (
(110,161,ls),
(110,81,o),
(144,45,o),
(219,45,cs),
(259,45,o),
(296,54,o),
(325,73,cs),
(329,75,o),
(334,77,o),
(338,77,cs),
(353,77,o),
(365,64,o),
(365,49,cs),
(365,40,o),
(360,32,o),
(350,24,cs),
(319,2,o),
(270,-10,o),
(215,-10,cs),
(102,-10,o),
(44,48,o),
(44,165,cs),
(44,212,ls),
(44,331,o),
(101,393,o),
(212,393,cs),
(267,393,o),
(308,377,o),
(334,346,cs),
(357,318,o),
(371,272,o),
(371,218,cs),
(371,191,o),
(351,180,o),
(325,180,cs),
(110,180,l)
);
},
{
closed = 1;
nodes = (
(304,310,o),
(277,341,o),
(212,341,cs),
(144,341,o),
(114,307,o),
(110,228,c),
(308,228,l)
);
},
{
closed = 1;
nodes = (
(275,570,ls),
(284,578,o),
(290,582,o),
(299,582,cs),
(312,582,o),
(323,571,o),
(323,558,cs),
(323,552,o),
(321,546,o),
(317,541,cs),
(270,483,ls),
(250,458,o),
(236,450,o),
(215,450,cs),
(193,450,o),
(179,458,o),
(160,482,cs),
(112,541,ls),
(108,546,o),
(105,552,o),
(105,558,cs),
(105,571,o),
(116,582,o),
(130,582,cs),
(138,582,o),
(145,578,o),
(153,570,cs),
(214,508,l)
);
}
);
width = 412;
}
);
note = ecaron;
unicode = 283;
},
{
glyphname = Gcircumflex;
kernLeft = C;
layers = (
{
layerId = m01;
shapes = (
{
closed = 1;
nodes = (
(387,244,l),
(303,244,ls),
(283,244,o),
(272,254,o),
(272,270,cs),
(272,291,o),
(288,300,o),
(308,300,cs),
(400,300,ls),
(418,300,o),
(435,299,o),
(443,286,cs),
(449,276,o),
(450,260,o),
(450,243,cs),
(450,61,ls),
(450,36,o),
(446,26,o),
(431,17,cs),
(406,1,o),
(339,-10,o),
(275,-10,cs),
(186,-10,o),
(127,16,o),
(91,72,cs),
(67,110,o),
(53,179,o),
(53,259,cs),
(53,337,ls),
(53,425,o),
(69,496,o),
(99,535,cs),
(134,582,o),
(191,606,o),
(265,606,cs),
(330,606,o),
(380,590,o),
(414,558,cs),
(420,553,o),
(423,545,o),
(423,537,cs),
(423,520,o),
(408,505,o),
(392,505,cs),
(387,505,o),
(385,506,o),
(364,520,cs),
(335,538,o),
(306,547,o),
(266,547,cs),
(210,547,o),
(170,524,o),
(147,481,cs),
(133,453,o),
(123,392,o),
(123,335,cs),
(123,258,ls),
(123,226,o),
(127,190,o),
(133,160,cs),
(150,81,o),
(192,49,o),
(279,49,cs),
(322,49,o),
(351,53,o),
(387,64,c)
);
},
{
closed = 1;
nodes = (
(203,662,ls),
(195,654,o),
(188,650,o),
(180,650,cs),
(166,650,o),
(155,661,o),
(155,674,cs),
(155,679,o),
(158,685,o),
(162,691,cs),
(209,749,ls),
(229,773,o),
(242,782,o),
(264,782,cs),
(286,782,o),
(299,774,o),
(319,750,cs),
(366,691,l),
(371,686,o),
(374,679,o),
(374,674,cs),
(374,661,o),
(362,650,o),
(349,650,cs),
(340,650,o),
(334,654,o),
(325,662,cs),
(264,724,l)
);
}
);
width = 509;
}
);
note = Gcircumflex;
unicode = 284;
},
{
glyphname = gcircumflex;
kernLeft = c;
layers = (
{
layerId = m01;
shapes = (
{
closed = 1;
nodes = (
(279,5,o),
(243,-10,o),
(192,-10,cs),
(91,-10,o),
(44,47,o),
(44,172,cs),
(44,206,ls),
(44,329,o),
(96,393,o),
(196,393,cs),
(247,393,o),
(284,376,o),
(309,341,c),
(312,384,o),
(320,391,o),
(340,391,cs),
(361,391,o),
(369,376,o),
(369,356,cs),
(369,38,ls),
(369,-68,o),
(362,-108,o),
(339,-142,cs),
(308,-186,o),
(258,-208,o),
(188,-208,cs),
(118,-208,o),
(74,-191,o),
(52,-157,cs),
(49,-152,o),
(48,-147,o),
(49,-141,cs),
(52,-128,o),
(63,-119,o),
(76,-119,cs),
(81,-119,o),
(85,-120,o),
(92,-126,cs),
(116,-143,o),
(147,-153,o),
(183,-153,cs),
(289,-153,o),
(303,-77,o),
(304,8,cs),
(304,37,l)
);
},
{
closed = 1;
nodes = (
(300,281,o),
(285,335,o),
(206,335,cs),
(140,335,o),
(111,294,o),
(111,203,cs),
(111,172,ls),
(111,85,o),
(139,48,o),
(205,48,cs),
(273,48,o),
(303,86,o),
(303,173,cs),
(302,209,ls)
);
},
{
closed = 1;
nodes = (
(156,463,ls),
(148,455,o),
(141,451,o),
(133,451,cs),
(120,451,o),
(108,462,o),
(108,475,cs),
(108,481,o),
(111,486,o),
(115,492,cs),
(162,550,ls),
(182,575,o),
(196,583,o),
(217,583,cs),
(239,583,o),
(252,575,o),
(272,551,cs),
(319,492,l),
(324,487,o),
(327,481,o),
(327,475,cs),
(327,462,o),
(315,451,o),
(302,451,cs),
(294,451,o),
(287,455,o),
(279,463,cs),
(217,525,l)
);
}
);
width = 436;
}
);
note = gcircumflex;
unicode = 285;
},
{
glyphname = Gbreve;
kernLeft = C;
layers = (
{
layerId = m01;
shapes = (
{
closed = 1;
nodes = (
(387,244,l),
(303,244,ls),
(283,244,o),
(272,254,o),
(272,270,cs),
(272,291,o),
(288,300,o),
(308,300,cs),
(400,300,ls),
(418,300,o),
(435,299,o),
(443,286,cs),
(449,276,o),
(450,260,o),
(450,243,cs),
(450,61,ls),
(450,36,o),
(446,26,o),
(431,17,cs),
(406,1,o),
(339,-10,o),
(275,-10,cs),
(186,-10,o),
(127,16,o),
(91,72,cs),
(67,110,o),
(53,179,o),
(53,259,cs),
(53,337,ls),
(53,425,o),
(69,496,o),
(99,535,cs),
(134,582,o),
(191,606,o),
(265,606,cs),
(330,606,o),
(380,590,o),
(414,558,cs),
(420,553,o),
(423,545,o),
(423,537,cs),
(423,520,o),
(408,505,o),
(392,505,cs),
(387,505,o),
(385,506,o),
(364,520,cs),
(335,538,o),
(306,547,o),
(266,547,cs),
(210,547,o),
(170,524,o),
(147,481,cs),
(133,453,o),
(123,392,o),
(123,335,cs),
(123,258,ls),
(123,226,o),
(127,190,o),
(133,160,cs),
(150,81,o),
(192,49,o),
(279,49,cs),
(322,49,o),
(351,53,o),
(387,64,c)
);
},
{
closed = 1;
nodes = (
(331,771,o),
(339,779,o),
(355,779,cs),
(369,779,o),
(379,768,o),
(379,755,cs),
(379,682,o),
(338,653,o),
(264,653,cs),
(190,653,o),
(150,682,o),
(150,755,cs),
(150,769,o),
(160,779,o),
(175,779,cs),
(190,779,o),
(198,771,o),
(201,750,cs),
(207,716,o),
(224,703,o),
(264,703,cs),
(306,703,o),
(322,716,o),
(328,752,cs)
);
}
);
width = 509;
}
);
note = Gbreve;
unicode = 286;
},
{
glyphname = gbreve;
kernLeft = c;
layers = (
{
layerId = m01;
shapes = (
{
closed = 1;
nodes = (
(279,5,o),
(243,-10,o),
(192,-10,cs),
(91,-10,o),
(44,47,o),
(44,172,cs),
(44,206,ls),
(44,329,o),
(96,393,o),
(196,393,cs),
(247,393,o),
(284,376,o),
(309,341,c),
(312,384,o),
(320,391,o),
(340,391,cs),
(361,391,o),
(369,376,o),
(369,356,cs),
(369,38,ls),
(369,-68,o),
(362,-108,o),
(339,-142,cs),
(308,-186,o),
(258,-208,o),
(188,-208,cs),
(118,-208,o),
(74,-191,o),
(52,-157,cs),
(49,-152,o),
(48,-147,o),
(49,-141,cs),
(52,-128,o),
(63,-119,o),
(76,-119,cs),
(81,-119,o),
(85,-120,o),
(92,-126,cs),
(116,-143,o),
(147,-153,o),
(183,-153,cs),
(289,-153,o),
(303,-77,o),
(304,8,cs),
(304,37,l)
);
},
{
closed = 1;
nodes = (
(300,281,o),
(285,335,o),
(206,335,cs),
(140,335,o),
(111,294,o),
(111,203,cs),
(111,172,ls),
(111,85,o),
(139,48,o),
(205,48,cs),
(273,48,o),
(303,86,o),
(303,173,cs),
(302,209,ls)
);
},
{
closed = 1;
nodes = (
(286,572,o),
(294,580,o),
(310,580,cs),
(323,580,o),
(334,570,o),
(334,556,cs),
(334,483,o),
(293,454,o),
(219,454,cs),
(145,454,o),
(105,483,o),
(105,556,cs),
(105,570,o),
(115,580,o),
(129,580,cs),
(145,580,o),
(152,572,o),
(156,552,cs),
(162,517,o),
(179,505,o),
(219,505,cs),
(261,505,o),
(277,517,o),
(283,553,cs)
);
}
);
width = 436;
}
);
note = gbreve;
unicode = 287;
},
{
glyphname = Gdotaccent;
kernLeft = C;
layers = (
{
layerId = m01;
shapes = (
{
closed = 1;
nodes = (
(387,244,l),
(303,244,ls),
(283,244,o),
(272,254,o),
(272,270,cs),
(272,291,o),
(288,300,o),
(308,300,cs),
(400,300,ls),
(418,300,o),
(435,299,o),
(443,286,cs),
(449,276,o),
(450,260,o),
(450,243,cs),
(450,61,ls),
(450,36,o),
(446,26,o),
(431,17,cs),
(406,1,o),
(339,-10,o),
(275,-10,cs),
(186,-10,o),
(127,16,o),
(91,72,cs),
(67,110,o),
(53,179,o),
(53,259,cs),
(53,337,ls),
(53,425,o),
(69,496,o),
(99,535,cs),
(134,582,o),
(191,606,o),
(265,606,cs),
(330,606,o),
(380,590,o),
(414,558,cs),
(420,553,o),
(423,545,o),
(423,537,cs),
(423,520,o),
(408,505,o),
(392,505,cs),
(387,505,o),
(385,506,o),
(364,520,cs),
(335,538,o),
(306,547,o),
(266,547,cs),
(210,547,o),
(170,524,o),
(147,481,cs),
(133,453,o),
(123,392,o),
(123,335,cs),
(123,258,ls),
(123,226,o),
(127,190,o),
(133,160,cs),
(150,81,o),
(192,49,o),
(279,49,cs),
(322,49,o),
(351,53,o),
(387,64,c)
);
},
{
closed = 1;
nodes = (
(295,759,o),
(310,742,o),
(310,712,cs),
(310,682,o),
(295,664,o),
(270,664,cs),
(246,664,o),
(231,682,o),
(231,712,cs),
(231,742,o),
(246,759,o),
(270,759,cs)
);
}
);
width = 509;
}
);
note = Gdotaccent;
unicode = 288;
},
{
glyphname = gdotaccent;
kernLeft = c;
layers = (
{
layerId = m01;
shapes = (
{
closed = 1;
nodes = (
(279,5,o),
(243,-10,o),
(192,-10,cs),
(91,-10,o),
(44,47,o),
(44,172,cs),
(44,206,ls),
(44,329,o),
(96,393,o),
(196,393,cs),
(247,393,o),
(284,376,o),
(309,341,c),
(312,384,o),
(320,391,o),
(340,391,cs),
(361,391,o),
(369,376,o),
(369,356,cs),
(369,38,ls),
(369,-68,o),
(362,-108,o),
(339,-142,cs),
(308,-186,o),
(258,-208,o),
(188,-208,cs),
(118,-208,o),
(74,-191,o),
(52,-157,cs),
(49,-152,o),
(48,-147,o),
(49,-141,cs),
(52,-128,o),
(63,-119,o),
(76,-119,cs),
(81,-119,o),
(85,-120,o),
(92,-126,cs),
(116,-143,o),
(147,-153,o),
(183,-153,cs),
(289,-153,o),
(303,-77,o),
(304,8,cs),
(304,37,l)
);
},
{
closed = 1;
nodes = (
(300,281,o),
(285,335,o),
(206,335,cs),
(140,335,o),
(111,294,o),
(111,203,cs),
(111,172,ls),
(111,85,o),
(139,48,o),
(205,48,cs),
(273,48,o),
(303,86,o),
(303,173,cs),
(302,209,ls)
);
},
{
closed = 1;
nodes = (
(248,561,o),
(263,543,o),
(263,513,cs),
(263,483,o),
(248,465,o),
(224,465,cs),
(199,465,o),
(184,483,o),
(184,513,cs),
(184,543,o),
(199,561,o),
(224,561,cs)
);
}
);
width = 436;
}
);
note = gdotaccent;
unicode = 289;
},
{
glyphname = Gcommaaccent;
kernLeft = C;
layers = (
{
layerId = m01;
shapes = (
{
closed = 1;
nodes = (
(387,244,l),
(303,244,ls),
(283,244,o),
(272,254,o),
(272,270,cs),
(272,291,o),
(288,300,o),
(308,300,cs),
(400,300,ls),
(418,300,o),
(435,299,o),
(443,286,cs),
(449,276,o),
(450,260,o),
(450,243,cs),
(450,61,ls),
(450,36,o),
(446,26,o),
(431,17,cs),
(406,1,o),
(339,-10,o),
(275,-10,cs),
(186,-10,o),
(127,16,o),
(91,72,cs),
(67,110,o),
(53,179,o),
(53,259,cs),
(53,337,ls),
(53,425,o),
(69,496,o),
(99,535,cs),
(134,582,o),
(191,606,o),
(265,606,cs),
(330,606,o),
(380,590,o),
(414,558,cs),
(420,553,o),
(423,545,o),
(423,537,cs),
(423,520,o),
(408,505,o),
(392,505,cs),
(387,505,o),
(385,506,o),
(364,520,cs),
(335,538,o),
(306,547,o),
(266,547,cs),
(210,547,o),
(170,524,o),
(147,481,cs),
(133,453,o),
(123,392,o),
(123,335,cs),
(123,258,ls),
(123,226,o),
(127,190,o),
(133,160,cs),
(150,81,o),
(192,49,o),
(279,49,cs),
(322,49,o),
(351,53,o),
(387,64,c)
);
},
{
closed = 1;
nodes = (
(232,-55,o),
(240,-47,o),
(261,-47,cs),
(286,-47,o),
(297,-56,o),
(297,-69,cs),
(297,-73,o),
(295,-78,o),
(293,-83,cs),
(257,-188,ls),
(250,-207,o),
(243,-213,o),
(222,-213,cs),
(211,-213,o),
(201,-203,o),
(201,-192,cs),
(201,-189,o),
(202,-184,o),
(203,-180,cs),
(227,-76,ls)
);
}
);
width = 509;
}
);
note = Gcommaaccent;
unicode = 290;
},
{
glyphname = gcommaaccent;
kernLeft = c;
layers = (
{
layerId = m01;
shapes = (
{
closed = 1;
nodes = (
(279,5,o),
(243,-10,o),
(192,-10,cs),
(91,-10,o),
(44,47,o),
(44,172,cs),
(44,206,ls),
(44,329,o),
(96,393,o),
(196,393,cs),
(247,393,o),
(284,376,o),
(309,341,c),
(312,384,o),
(320,391,o),
(340,391,cs),
(361,391,o),
(369,376,o),
(369,356,cs),
(369,38,ls),
(369,-68,o),
(362,-108,o),
(339,-142,cs),
(308,-186,o),
(258,-208,o),
(188,-208,cs),
(118,-208,o),
(74,-191,o),
(52,-157,cs),
(49,-152,o),
(48,-147,o),
(49,-141,cs),
(52,-128,o),
(63,-119,o),
(76,-119,cs),
(81,-119,o),
(85,-120,o),
(92,-126,cs),
(116,-143,o),
(147,-153,o),
(183,-153,cs),
(289,-153,o),
(303,-77,o),
(304,8,cs),
(304,37,l)
);
},
{
closed = 1;
nodes = (
(300,281,o),
(285,335,o),
(206,335,cs),
(140,335,o),
(111,294,o),
(111,203,cs),
(111,172,ls),
(111,85,o),
(139,48,o),
(205,48,cs),
(273,48,o),
(303,86,o),
(303,173,cs),
(302,209,ls)
);
},
{
closed = 1;
nodes = (
(181,481,o),
(184,488,o),
(190,495,cs),
(248,563,ls),
(260,577,o),
(267,581,o),
(282,581,cs),
(297,581,o),
(307,572,o),
(307,563,cs),
(307,559,o),
(305,554,o),
(302,549,cs),
(262,477,ls),
(252,459,o),
(243,453,o),
(224,453,cs),
(191,453,o),
(181,463,o),
(181,476,cs)
);
}
);
width = 436;
}
);
note = gcommaaccent;
unicode = 291;
},
{
glyphname = Hcircumflex;
layers = (
{
layerId = m01;
shapes = (
{
closed = 1;
nodes = (
(412,343,l),
(412,563,ls),
(412,589,o),
(424,605,o),
(446,605,cs),
(468,605,o),
(480,589,o),
(480,563,cs),
(480,33,ls),
(480,7,o),
(468,-9,o),
(446,-9,cs),
(424,-9,o),
(412,7,o),
(412,33,cs),
(412,282,l),
(150,282,l),
(150,33,ls),
(150,7,o),
(137,-9,o),
(115,-9,cs),
(94,-9,o),
(81,7,o),
(81,33,cs),
(81,563,ls),
(81,589,o),
(94,605,o),
(115,605,cs),
(137,605,o),
(150,589,o),
(150,563,cs),
(150,343,l)
);
},
{
closed = 1;
nodes = (
(219,662,ls),
(211,654,o),
(204,650,o),
(196,650,cs),
(182,650,o),
(171,661,o),
(171,674,cs),
(171,679,o),
(174,685,o),
(178,691,cs),
(225,749,ls),
(245,773,o),
(258,782,o),
(280,782,cs),
(302,782,o),
(315,774,o),
(335,750,cs),
(382,691,l),
(387,686,o),
(390,679,o),
(390,674,cs),
(390,661,o),
(378,650,o),
(365,650,cs),
(356,650,o),
(350,654,o),
(341,662,cs),
(280,724,l)
);
}
);
width = 561;
}
);
note = Hcircumflex;
unicode = 292;
},
{
glyphname = hcircumflex;
layers = (
{
layerId = m01;
shapes = (
{
closed = 1;
nodes = (
(159,379,o),
(195,393,o),
(245,393,cs),
(318,393,o),
(361,364,o),
(378,305,cs),
(383,286,o),
(386,253,o),
(386,207,cs),
(386,32,ls),
(386,6,o),
(374,-9,o),
(353,-9,cs),
(332,-9,o),
(320,6,o),
(320,32,cs),
(320,201,ls),
(320,245,o),
(316,276,o),
(308,293,cs),
(296,321,o),
(271,335,o),
(236,335,cs),
(200,335,o),
(169,323,o),
(153,302,cs),
(138,283,o),
(133,253,o),
(133,195,cs),
(133,32,ls),
(133,6,o),
(121,-9,o),
(100,-9,cs),
(79,-9,o),
(67,6,o),
(67,32,cs),
(67,589,ls),
(67,615,o),
(79,630,o),
(100,630,cs),
(121,630,o),
(133,615,o),
(133,589,cs),
(133,351,l)
);
},
{
closed = 1;
nodes = (
(79,682,ls),
(71,674,o),
(64,670,o),
(56,670,cs),
(42,670,o),
(31,681,o),
(31,694,cs),
(31,699,o),
(33,705,o),
(38,711,cs),
(85,769,ls),
(105,793,o),
(118,802,o),
(140,802,cs),
(162,802,o),
(175,794,o),
(195,770,cs),
(242,711,l),
(247,706,o),
(249,699,o),
(249,694,cs),
(249,681,o),
(238,670,o),
(225,670,cs),
(216,670,o),
(210,674,o),
(201,682,cs),
(140,744,l)
);
}
);
width = 450;
}
);
note = hcircumflex;
unicode = 293;
},
{
glyphname = Hbar;
layers = (
{
layerId = m01;
shapes = (
{
closed = 1;
nodes = (
(44,430,ls),
(26,430,o),
(14,441,o),
(14,457,cs),
(14,473,o),
(26,483,o),
(44,483,cs),
(80,483,l),
(80,567,ls),
(80,589,o),
(94,605,o),
(115,605,cs),
(135,605,o),
(149,589,o),
(149,567,cs),
(149,483,l),
(411,483,l),
(411,567,ls),
(411,589,o),
(425,605,o),
(446,605,cs),
(466,605,o),
(480,589,o),
(480,567,cs),
(480,483,l),
(516,483,ls),
(535,483,o),
(546,473,o),
(546,457,cs),
(546,441,o),
(535,430,o),
(516,430,cs),
(480,430,l),
(480,33,ls),
(480,7,o),
(467,-9,o),
(446,-9,cs),
(424,-9,o),
(411,7,o),
(411,33,cs),
(411,277,l),
(149,277,l),
(149,33,ls),
(149,7,o),
(137,-9,o),
(115,-9,cs),
(93,-9,o),
(80,7,o),
(80,33,cs),
(80,430,l)
);
},
{
closed = 1;
nodes = (
(411,336,l),
(411,430,l),
(149,430,l),
(149,336,l)
);
}
);
width = 561;
}
);
note = Hbar;
unicode = 294;
},
{
glyphname = hbar;
kernLeft = h;
layers = (
{
layerId = m01;
shapes = (
{
closed = 1;
nodes = (
(36,478,ls),
(16,478,o),
(5,488,o),
(5,504,cs),
(5,520,o),
(16,529,o),
(36,529,cs),
(217,529,ls),
(237,529,o),
(248,520,o),
(248,504,cs),
(248,488,o),
(237,478,o),
(217,478,cs)
);
},
{
closed = 1;
nodes = (
(160,379,o),
(194,393,o),
(245,393,cs),
(318,393,o),
(360,364,o),
(377,305,cs),
(383,285,o),
(385,255,o),
(385,207,cs),
(385,32,ls),
(385,6,o),
(373,-9,o),
(352,-9,cs),
(331,-9,o),
(319,6,o),
(319,32,cs),
(319,201,ls),
(319,245,o),
(315,275,o),
(308,292,cs),
(295,320,o),
(271,335,o),
(236,335,cs),
(199,335,o),
(169,323,o),
(153,302,cs),
(139,282,o),
(133,252,o),
(133,195,cs),
(133,32,ls),
(133,6,o),
(121,-9,o),
(100,-9,cs),
(79,-9,o),
(67,6,o),
(67,32,cs),
(67,589,ls),
(67,615,o),
(79,630,o),
(100,630,cs),
(121,630,o),
(133,615,o),
(133,589,cs),
(133,351,l)
);
}
);
width = 449;
}
);
note = hbar;
unicode = 295;
},
{
glyphname = Itilde;
layers = (
{
layerId = m01;
shapes = (
{
closed = 1;
nodes = (
(87,563,ls),
(87,589,o),
(100,605,o),
(122,605,cs),
(143,605,o),
(156,589,o),
(156,563,cs),
(156,33,ls),
(156,7,o),
(143,-9,o),
(122,-9,cs),
(100,-9,o),
(87,7,o),
(87,33,cs)
);
},
{
closed = 1;
nodes = (
(248,750,o),
(243,729,o),
(239,714,cs),
(227,677,o),
(203,658,o),
(169,658,cs),
(144,658,o),
(131,665,o),
(102,697,cs),
(87,713,o),
(82,717,o),
(73,717,cs),
(59,717,o),
(47,701,o),
(38,673,cs),
(35,662,o),
(27,656,o),
(15,656,cs),
(4,656,o),
(-4,664,o),
(-4,674,cs),
(-4,680,o),
(0,696,o),
(5,711,cs),
(20,752,o),
(41,770,o),
(74,770,cs),
(98,770,o),
(113,762,o),
(138,734,cs),
(157,713,o),
(160,711,o),
(172,711,cs),
(187,711,o),
(197,725,o),
(206,754,cs),
(209,767,o),
(216,773,o),
(228,773,cs),
(230,773,ls),
(240,773,o),
(248,765,o),
(248,756,cs)
);
}
);
width = 243;
}
);
note = Itilde;
unicode = 296;
},
{
glyphname = itilde;
layers = (
{
layerId = m01;
shapes = (
{
closed = 1;
nodes = (
(73,351,ls),
(73,376,o),
(85,391,o),
(106,391,cs),
(127,391,o),
(140,376,o),
(140,351,cs),
(140,32,ls),
(140,6,o),
(127,-9,o),
(106,-9,cs),
(85,-9,o),
(73,6,o),
(73,32,cs)
);
},
{
closed = 1;
nodes = (
(233,551,o),
(228,530,o),
(224,516,cs),
(212,478,o),
(188,459,o),
(154,459,cs),
(129,459,o),
(116,466,o),
(87,498,cs),
(72,514,o),
(67,518,o),
(58,518,cs),
(44,518,o),
(32,502,o),
(23,474,cs),
(20,463,o),
(12,457,o),
(0,457,cs),
(-11,457,o),
(-19,465,o),
(-19,475,cs),
(-19,481,o),
(-15,497,o),
(-10,512,cs),
(5,553,o),
(26,572,o),
(59,572,cs),
(83,572,o),
(98,563,o),
(123,536,cs),
(142,514,o),
(145,512,o),
(157,512,cs),
(172,512,o),
(182,526,o),
(191,556,cs),
(194,568,o),
(201,574,o),
(213,574,cs),
(215,574,ls),
(225,574,o),
(233,566,o),
(233,557,cs)
);
}
);
width = 212;
}
);
note = itilde;
unicode = 297;
},
{
glyphname = Imacron;
layers = (
{
layerId = m01;
shapes = (
{
closed = 1;
nodes = (
(87,563,ls),
(87,589,o),
(100,605,o),
(122,605,cs),
(143,605,o),
(156,589,o),
(156,563,cs),
(156,33,ls),
(156,7,o),
(143,-9,o),
(122,-9,cs),
(100,-9,o),
(87,7,o),
(87,33,cs)
);
},
{
closed = 1;
nodes = (
(211,741,ls),
(233,741,o),
(245,731,o),
(245,713,cs),
(245,695,o),
(233,685,o),
(211,685,cs),
(32,685,ls),
(11,685,o),
(-2,695,o),
(-2,713,cs),
(-2,731,o),
(11,741,o),
(32,741,cs)
);
}
);
width = 243;
}
);
note = Imacron;
unicode = 298;
},
{
glyphname = imacron;
layers = (
{
layerId = m01;
shapes = (
{
closed = 1;
nodes = (
(73,351,ls),
(73,376,o),
(85,391,o),
(106,391,cs),
(127,391,o),
(140,376,o),
(140,351,cs),
(140,32,ls),
(140,6,o),
(127,-9,o),
(106,-9,cs),
(85,-9,o),
(73,6,o),
(73,32,cs)
);
},
{
closed = 1;
nodes = (
(196,542,ls),
(218,542,o),
(230,532,o),
(230,514,cs),
(230,496,o),
(218,486,o),
(196,486,cs),
(17,486,ls),
(-4,486,o),
(-17,496,o),
(-17,514,cs),
(-17,532,o),
(-4,542,o),
(17,542,cs)
);
}
);
width = 212;
}
);
note = imacron;
unicode = 299;
},
{
glyphname = Ibreve;
layers = (
{
layerId = m01;
shapes = (
{
closed = 1;
nodes = (
(88,563,ls),
(88,589,o),
(100,605,o),
(122,605,cs),
(144,605,o),
(156,589,o),
(156,563,cs),
(156,33,ls),
(156,7,o),
(144,-9,o),
(122,-9,cs),
(100,-9,o),
(88,7,o),
(88,33,cs)
);
},
{
closed = 1;
nodes = (
(188,771,o),
(196,779,o),
(212,779,cs),
(226,779,o),
(236,768,o),
(236,755,cs),
(236,682,o),
(195,653,o),
(121,653,cs),
(47,653,o),
(7,682,o),
(7,755,cs),
(7,769,o),
(17,779,o),
(32,779,cs),
(47,779,o),
(55,771,o),
(58,750,cs),
(64,716,o),
(81,703,o),
(122,703,cs),
(163,703,o),
(179,716,o),
(185,752,cs)
);
}
);
width = 243;
}
);
note = Ibreve;
unicode = 300;
},
{
glyphname = ibreve;
layers = (
{
layerId = m01;
shapes = (
{
closed = 1;
nodes = (
(72,351,ls),
(72,376,o),
(85,391,o),
(106,391,cs),
(127,391,o),
(139,376,o),
(139,351,cs),
(139,32,ls),
(139,6,o),
(127,-9,o),
(106,-9,cs),
(85,-9,o),
(72,6,o),
(72,32,cs)
);
},
{
closed = 1;
nodes = (
(172,572,o),
(180,580,o),
(196,580,cs),
(210,580,o),
(220,570,o),
(220,556,cs),
(220,483,o),
(179,454,o),
(105,454,cs),
(31,454,o),
(-9,483,o),
(-9,556,cs),
(-9,570,o),
(1,580,o),
(16,580,cs),
(31,580,o),
(39,572,o),
(42,552,cs),
(48,517,o),
(65,505,o),
(106,505,cs),
(147,505,o),
(163,517,o),
(169,553,cs)
);
}
);
width = 212;
}
);
note = ibreve;
unicode = 301;
},
{
glyphname = Iogonek;
layers = (
{
layerId = m01;
shapes = (
{
closed = 1;
nodes = (
(87,563,ls),
(87,589,o),
(100,605,o),
(122,605,cs),
(143,605,o),
(156,589,o),
(156,563,cs),
(156,33,ls),
(156,7,o),
(143,-9,o),
(122,-9,cs),
(100,-9,o),
(87,7,o),
(87,33,cs)
);
},
{
closed = 1;
nodes = (
(91,-38,o),
(53,-54,o),
(53,-107,cs),
(53,-139,o),
(68,-153,o),
(105,-153,cs),
(116,-153,o),
(125,-152,o),
(142,-148,c),
(144,-148,o),
(146,-147,o),
(149,-147,cs),
(160,-147,o),
(169,-156,o),
(169,-168,cs),
(169,-187,o),
(143,-197,o),
(91,-197,cs),
(24,-197,o),
(-7,-171,o),
(-7,-116,cs),
(-7,-62,o),
(24,-30,o),
(102,4,c),
(140,-3,l)
);
}
);
width = 243;
}
);
note = Iogonek;
unicode = 302;
},
{
glyphname = iogonek;
layers = (
{
layerId = m01;
shapes = (
{
closed = 1;
nodes = (
(131,561,o),
(146,543,o),
(146,513,cs),
(146,483,o),
(131,465,o),
(107,465,cs),
(82,465,o),
(67,483,o),
(67,513,cs),
(67,543,o),
(82,561,o),
(107,561,cs)
);
},
{
closed = 1;
nodes = (
(73,351,ls),
(73,376,o),
(85,391,o),
(106,391,cs),
(127,391,o),
(139,376,o),
(139,351,cs),
(139,32,ls),
(139,6,o),
(127,-9,o),
(106,-9,cs),
(85,-9,o),
(73,6,o),
(73,32,cs)
);
},
{
closed = 1;
nodes = (
(123,-5,l),
(82,-37,o),
(45,-57,o),
(45,-107,cs),
(45,-139,o),
(58,-153,o),
(89,-153,cs),
(100,-153,o),
(108,-152,o),
(125,-148,c),
(127,-148,o),
(129,-147,o),
(131,-147,cs),
(143,-147,o),
(151,-156,o),
(151,-168,cs),
(151,-187,o),
(126,-197,o),
(74,-197,cs),
(13,-197,o),
(-15,-171,o),
(-15,-116,cs),
(-15,-60,o),
(11,-30,o),
(86,5,c)
);
}
);
width = 213;
}
);
note = iogonek;
unicode = 303;
},
{
glyphname = Idotaccent;
layers = (
{
layerId = m01;
shapes = (
{
closed = 1;
nodes = (
(87,563,ls),
(87,589,o),
(100,605,o),
(121,605,cs),
(143,605,o),
(156,589,o),
(156,563,cs),
(156,33,ls),
(156,7,o),
(143,-9,o),
(121,-9,cs),
(100,-9,o),
(87,7,o),
(87,33,cs)
);
},
{
closed = 1;
nodes = (
(146,759,o),
(161,742,o),
(161,712,cs),
(161,682,o),
(146,664,o),
(121,664,cs),
(97,664,o),
(82,682,o),
(82,712,cs),
(82,742,o),
(97,759,o),
(121,759,cs)
);
}
);
width = 243;
}
);
note = Idotaccent;
unicode = 304;
},
{
glyphname = dotlessi;
kernLeft = m;
layers = (
{
layerId = m01;
shapes = (
{
closed = 1;
nodes = (
(73,351,ls),
(73,376,o),
(85,391,o),
(106,391,cs),
(127,391,o),
(139,376,o),
(139,351,cs),
(139,32,ls),
(139,6,o),
(127,-9,o),
(106,-9,cs),
(85,-9,o),
(73,6,o),
(73,32,cs)
);
}
);
width = 212;
}
);
note = dotlessi;
unicode = 305;
},
